<mxfile host="app.diagrams.net" modified="2024-03-22T17:29:38.439Z" agent="Mozilla/5.0 (Windows NT 10.0; Win64; x64) AppleWebKit/537.36 (KHTML, like Gecko) Chrome/122.0.0.0 Safari/537.36" etag="RZpvYu2fE7cRUObz-87-" version="23.1.5" type="github">
  <diagram id="R2lEEEUBdFMjLlhIrx00" name="Page-1">
    <mxGraphModel dx="880" dy="426" grid="1" gridSize="10" guides="1" tooltips="1" connect="1" arrows="1" fold="1" page="1" pageScale="1" pageWidth="850" pageHeight="1100" background="none" math="0" shadow="0" extFonts="Permanent Marker^https://fonts.googleapis.com/css?family=Permanent+Marker">
      <root>
        <mxCell id="0" />
        <mxCell id="1" parent="0" />
        <mxCell id="EZiAzs-gz7eKAXvIqoOE-30" value="" style="shape=image;imageAspect=0;aspect=fixed;verticalLabelPosition=bottom;verticalAlign=top;image=data:image/png,iVBORw0KGgoAAAANSUhEUgAAAtAAAAJ8CAYAAADXiZYJAAAAAXNSR0IArs4c6QAAC7x0RVh0bXhmaWxlACUzQ214ZmlsZSUyMGhvc3QlM0QlMjJFbGVjdHJvbiUyMiUyMG1vZGlmaWVkJTNEJTIyMjAyNC0wMi0yM1QwNCUzQTM4JTNBMjUuMjc2WiUyMiUyMGFnZW50JTNEJTIyTW96aWxsYSUyRjUuMCUyMChXaW5kb3dzJTIwTlQlMjAxMC4wJTNCJTIwV2luNjQlM0IlMjB4NjQpJTIwQXBwbGVXZWJLaXQlMkY1MzcuMzYlMjAoS0hUTUwlMkMlMjBsaWtlJTIwR2Vja28pJTIwZHJhdy5pbyUyRjIzLjEuNSUyMENocm9tZSUyRjEyMC4wLjYwOTkuMTA5JTIwRWxlY3Ryb24lMkYyOC4xLjAlMjBTYWZhcmklMkY1MzcuMzYlMjIlMjBldGFnJTNEJTIyT3h2MUdHTV9abVBPOV80YWdFQUklMjIlMjB2ZXJzaW9uJTNEJTIyMjMuMS41JTIyJTIwdHlwZSUzRCUyMmRldmljZSUyMiUzRSUzQ2RpYWdyYW0lMjBpZCUzRCUyMkM1UkJzNDNvRGEtS2R6WmVOdHV5JTIyJTIwbmFtZSUzRCUyMlBhZ2UtMSUyMiUzRTdWeHRjNXM0RVA0MSUyRm1nR0ljVEx4OXBOMHZhYVRLN3RYZHRQTndUTHRpNFl1WUFkcDclMkIlMkJraEV2UXNRbXRqRzRVMDhuUmZKbUJidlBQbHF0UkFad3ZOamNSTjV5Zmtzbk9CZ1klMkJtUXpnRzhIaHVGWUp2dkpPNTdURHFRN2FjY3NJcE8wQ3hRZG44bFBMRHAxMGJzaUV4eExnZ21sUVVLV2NxZFB3eEQ3aWRUblJSRjlrc1dtTkpCSFhYb3pySFI4OXIxQTdmMUtKc2xjUEpaaEYlMkYzdk1Kbk5zNUdCNWFiZkxMeE1XRHhKUFBjbTlLblVCYThHY0J4Um1xUlhpODBZQjl4Mm1WMiUyQnZuJTJGJTJCR254OHRHNCUyQiUyRkIzJTJGOFA0WiUyRmZYbDd0OWhxdXo2TmIlMkJTUDBLRXclMkJTMHFvMVU5ZG9MVnNKZTRsbVQ1OHlBRVYyRkU4eVY2QU00bWllTGdGMENkdmslMkZUcEpuNFhCdmxWRFdSYU5rVG1jMDlJS1BsQzZGM0pTR2lSQUR2STNEeVJ2dVdOWiUyQkNLaiUyRm1IWmRreUFRWTdDV2tIZFlLMDRpJTJCcGo3aml2SUhjR0ZBJTJCOEJCeVBQZjV4dGIzUk1BeHF4cjBJYVlxNXF3c0FnbnFXNHVhdWlkOVRRdHNJSE1WMUZQdDRoQndYRXZXaUdkJTJCbXpVamwlMkJmeVdjQ3MlMkZkWUxyQVNmVE1CQ0ljZUFsWnkyRDJSRXpNY3JuQzclMkJ4Q3VQNFZNSUFLRE1iVW43T3dmUmtNM0JGUGM1TGd6MHR2YTVFblJoOHlRTXFPWjg4Mm1nVmVIQXUzN2ZIcTY3eXl4bEdDTnp2dG1IMkxSREFMTmdPdWFEOFYzQUN5Z0olMkJYZU1IVVd6STlVa3pQalBIbVZySDhmaVJmZEtDZU9BeXRobUZvTnd6RERDNENCWTJqVW1pNnA0UTlWaUZDcDlPWTNWY1ZPJTJGbUFoOFBKVXVEMENYc0IlMkJlbXBvVHluaTRkVnZEJTJCTUpTOXlqRng3Q3hKd2k3ekR3Um9ueFBkcWdwME5PZ3RadzJjT3hWRTlQTmlRSkp5eGxsVzB2bXpoT0RSYkpBRVRtRElKb0JvUzBHdEl3R21MQk93YXI2MUpUR2o0MnpHd0JTc003RGdkTTdCVHk4QmdoJTJCVXZrRiUyRlBuZ2hsVkxtWGdnRm95TUVDUUxvRzJVZkNrTkY3V25iJTJGelBKYkZJYk1qTiUyQjRxR2FhUnRieFhTamFOdDV1OG1GNTY3bmN1c2NSWVo3ZzAwbmF1U0hKdDlMMTk2MW1KRnFGSnQ3SUZIVUZjOWlYVEtPUUVRR1ZNMnNXVGJZakQ1TWFRZnpXRGtWMlJRJTJCb01IWnFJMFVQUTUlMkYzWEJKYmNvRzQ1cG15JTJCOVhsNklkUVd2aXlpMVRqU1FNNGV4WnBpYlJZUm4lMkZ5cXNJeDBKTHpLcU51Y1hYV3ZDcWJXOHBlQ3dpMzNHJTJCWFZ5SGJsb3h2Nm1kYzJYNyUyRjcyWTBjJTJCOCUyQlRJY011UGVmYnRiZkhxJTJCeU9lJTJCSTJhMTIlMkZxcVo1MHFlcVdYWnclMkZpJTJCOXFHYzE5RDlFZVdjZzVqUlJSSUVnRm1wQ0NwRXF1JTJCU1A1cElkeG13RkpHM1hoSVJmeFdvVk1yVWtXV005OGRqUkJObVZzcDVjZWdXVWFaRVQxTWd2Qnhsc3NWTXFObElDYlBNRFZLVUdScHFLYzVxcHFaYkwlMkZJdndaeEFkelVnZzlZRW1xbXVDRjh3cVdXM1pWTjElMkJYY0c4aXFseHhBNTVmUjRxR3RuenBEYm8xQ2cxMlBpMEZRM3c1SU5KQ0RacnVieUQzSmR5MmIlMkZEa3hxZ1FzMTE5S0xUNlYyWkVFTlZlNzFSSGt1UVBLTXZwJTJGT3dYSHlJbjFybGY1WnVxU1FGZDl5cEpmQVZzaldUTmxtSnRJTVYyVXJYZE10bGJDZ3E4SFdDQXQyVEZnbWhHWENZaGF3MFNHTTFUcjdHR2ZLNEk1enA2bUVTVnBLNlglMkJVc09XNVpza3JkSk1CdjJaT0w1SW5LVXBheTVOUTF5RUNiQ2xFZWhrZTVwbkM0N0RTVDNYN3RvOHJIR0IzZ2JQV2dkRjBTN1VUWU1EZGp1NEpNTlROMmZzSSUyQiUyQlFTY2glMkZEdExSS1BtcmFtcUdTdXFObHFZaEU2Z1hYbjU3WE95azA5WEpsMWJRNlpYZWEyNmdsb0RHZGtOa2xoQUV5WEMwN0lKZ2RpQVNhYXlweEFJQ3QxZFVzekR3M09ybGRqVTVxRm0xajJtaTZ3ZFlwcG8yYTdTRnY4Y0NwWFo5ZzltTktnaVM2Q0lUYmpsYXB5T1VkZTdjUzJscmRHcDJzYmx1SGR0T2xhTGZRVmlzMk1yUVpaRW5OaGxyJTJGb0cxQnR4RzBzd1MlMkJERzFrdEdYZVRsYWxyVU83NlRLeVcyalhWRmxrMW1ibW9Pb3A2UDVCMjlhaDVzaWxTV1JvVU0zUFg4cExrQVphUTNqVHcwJTJGTUpzbCUyQm03WmxRc08xOHlwVmZqWlIzVU5INTl4Q2glMkJyNWhZRmhCZHhLRTdLV3JHZjlXUEVYVVViY2lFTnhTT1FOazhqUGlSUWk3R29tJTJGdCUyQnFpcGRlV0t2cklUJTJGSE5mVFRnMXhjSXdsSlFyeGdxMERuSnlHRzhaWm0lMkJIY0FMRGUxWTkyeTclMkIlMkJ5QVprdDBqSGwlMkIyRGQyNmZLZW5zRkQ3TmFlaks2eG9ZNkw1OFRHNjl4UExob3gxZU9teGxXMTQ1WDM5YTVlMzk5QVpPVWlheEslMkZvV1EzWFJ0Z2RvcUgwR3ppd1Nzdk5XdlMxdjl1dVlldG5PV1ZhU3k2bFFmS2xLdzZmdHc0TmozM3c0cUd5TlFLV2s2c0l3blJkNkNSOHBEdDRMWEZzck0wT29DMEswakNaMExTY2V4aWZvJTJCM3gxZFBFU1hzRDVHb0xvJTJCUmxuSnZ6dDJkbjVMTU51OXBrV0Z0dXpkdTJsNzVGdWlPZldsdWJja3dyNWY5OVpjRDRPdGNsNjclMkIxRExFdFp1OXRGNmxiVzRwNGc2TlV3cUw5cVkxU1hDQ3djSFR4WXhhaUZtVEZZVGIzSUI0Y0pzbCUyQjhnNXhHam5ydzdjOFFZZnlKR1dPSWs4MVR2SWlZNzdWbUttQzg0d0ZNYVhzSlducTJmYjRwaHplSXY0YVRtTCUyRjZjRUx6NkJRJTNEJTNEJTNDJTJGZGlhZ3JhbSUzRSUzQyUyRm14ZmlsZSUzRdpaPR8AACAASURBVHhe7F1lQBQL1541UHKD7l1YGizsRAW7FTtQERRFsBsQwe5AURRbsbu7BQSVhmWDjmWTEFD3+4Z714tcYCcXvO/sP52TzwwzZ86cIAHEj0CAQIBAgECAQIBAgEDgD0FAJpO1zMrK8qyqqp6kqtq2vbq6OhU0vaysTFhR8e2LikrrKDMzswgSifTjD3GJMPMPRID0B9pMmEwgQCBAIEAgQCBAIPA/iEBSQlIgVZu2NDEhsfLKpWu6cZ/igby8/BokjIwMgU7OHYEJE8cVOzo5thGWCHY7ODls/B+EiXBZCQgQAbQSQCZUEAgQCBAIEAgQCBAIIEdAJBJZFhUVX87PyzcJDgrVTUpMblSYg6M9EBC0rtjQyDBHT0/XnUKhZCLXTnASCPwbASKARnBVCIVCSosWLYYWFha6qaurt+dweM/09HTNaTTqaxUVlcdaWlqpCMQSLP9BBGQymUpycvK6tm3VJmhpaTBbtWrVUiKR5ksk0sdmZiabyWQy6z/oNuESgQCBQDNGQCgUdiCRSM4AAHQmkUgVAAB8rq6ujtbR0WmWzy6hUNivvLz85omIky0OHTiiCQfahb7zpXM8PX6qqamNplKpL+HwNldamUzWikQifW+u9v2v2EUE0DDOdElJiX1RQVGwvqH+uJiPscI3r99pVlVXtU74mghY21gBnbs4i136921dUV6RQqVRQ3V0dK7DEE+Q/scQYLPZE1u3VjkYFxsHnDp5Vvdz/GegqqoasLa2AsZPHFsybfoU7aysrG3t2rVb/R9znXCHQIBAoBkiwOPx/H7+/Ln0x48flLjY+O8SiZT6/ft3QE9fT9i5S6c2VVXVORQKOURHR+dsczFfKBT2//Hjx4PVK9YBd27fU0Fi14iRw6q27ggFWrZsOYRKpT5HIqOpeGQyWQuJRDKxIK9gmqqaagc1dXV9VkZmJtPK0rK8rKzwW2VlnI6O9kUqlRpFIpF+NpWdeOsViUSdS0qE037+/O6irq5u2qJFi5ZlpWU5MkD2Tltb+3xTvBxhGkCDDrZo0aJDbm5udqtWrWT6+vpmP3/+/EyhUGLxBhdv+anJqZsMjAzWnT51rvTQgcOaYpG4QZVjxo0CVq5eJq2oqHhtaGg4lUajNUyMt+GE/CZBIC0tbY2mptaGpX7LVV88f1WvDWZmpsCBsL18DXX11w5ODuOaxFBCKYEAgcB/HgGxWNy9qKj4dE52DnXfngM6H95H1+vzQNf+gP/SxQINTQ2OsbHRVC0trfSmBKe0tLRdqbT03eqV69Qe3H+EKl4ZMnSQbOv20HINTY2eGhoaX5vSLyi6k5KSVFoArbZQaWSv5OSUytu37pLjYuNb5eTkgs2SgLq6OmBiYgx0dO4AjB4zkm9nZ9u2mF9yvEULYKWDg0MVFB1/Ao1YLO5WkFewT6Wtiv3N67dJb16/0yguLgZakEiAFpkMdOvRtWLM2NGVKq1b5VJp1OXa2toPlOUXqgsSNDIjI0Pr+/fvARoaGjPLSstU4j7Fky5HXW0FAADJfdL46k7OHWXqGupVpaWlp1u1ahVsZWUlUZZzWOgBu32Tk5IfikSS9suWrNDhcniQxQaHBAoGDXH9RqFQRv8XXiIgO/4/TpiQkLRcU1M9cIr7DA0Oh6sQjdNnT/D1DQ1etW/vNF4hMUFAIEAgQCAAA4G0tDQffX39Q4EbgsujLlxWg8Lq4ztf5OU9V+VH1Y+pxmbGN6HwYE0jk8lUORxOcvjhCO1TkWdglW00ZMus2TOk3gs8SxgMhv3fpStYm42JvKKiIvfKysqw+E+fW2zfuovGYiku32YyLYFVa5fzO3RsD3z//n0xg8G4gIkxTSgkOSl1u66ett/2rbuAM6fONfr1YeToEcD6gNWlUmnZVUdHew9lmI0qgAb/MLW0yFtfvXz9LfzwMd3kpJR6bbZ3sAO8F8wr7tuvT1uJRLzaxsYmTBnOodWRl5enJpWWvomNiTVe5r9KD4m8KdMmla5as6KFurraUE1NzfpTkUgEo+QBb05SqVRNS0urBKUogr0WAuDnRplM9njcqIktU1PTIGNz5/71Eg1NjTBbW9sAyEwEIYEAgQCBQCMIpKenr1BVVQ2c6+Gt/vVLAiysXPr3BcLCD/ysqqiaZmBscBEWMwbECQlJd+Ji4rqtWrlWBwNxv0Rs27mZ38m500cnJ4cRWMrFStaXLwkRmhrqE1evXKf56uUb2GL79usNbNkeKi0vL49ycnKcB1tAM2FI+JpwVyIp7bpowWKd/PwCSFapqrYFv+oWW1pasMkU8gAjI6NySIwIiRAH0ElJSRcBgDRo1fK11NiYT5DUd+7iDGzbuVkIALJHDg4OkyExNSFRampq9NvX7yzWrQnURmPG8BFDZaFbg8vbtm3bl0KhxKGRhZQ3OztbtbKychEgAyZpaWk5XLxw6e20GVNcqqurv0ml0s+qqqqnTUxMjiKVrww+qVTqUFBQ6K+i0nqIpqamEahTKpXmVVVVPzAw0N+rqamZpAw7GtLB4XDakkikjM2btuneunmnDRxbwE9xD57c/a6i0tpFS0vrLRxegpZAgECAQKAuAunp6V5qamp7Jk+YrgYlg1kfgt26dwVOnokAfv78OVhbW/uRslDmcrmepaVl211dhtTMd8b69+TFA6GGhvpKOp0egbVsNPKSE5MfFhQWdvTy9NEtlZYiFqWhqQEcPR5WrK+r99nByWEQYkFNxJiUlPw4k5XZzmuuD6LEZejW4OI+fXrlklqQultZWVXi5QaiADopKfkVh82x9Zw9XxeJYRGRR4oZFoxUBwf7vkj4lcGTkJB0PSM9vaeP92JEJ7CujVOnTyld7O8jplKp7chkskAZPsh1JCckr6PqUFfHxnyquHj+km5MdCwgkUhrDmtr04DuPboB02dOLWZaMWUVpeUB1nbW4cq0D4qulKSUcB093dlnTp0Fa8E0MtL/Gl5hZc0ERo4aXjpj1vQ2/KLiSDsHO28o8vCgSfyaGJmUmDzSb/EyRC9cEydNqPb198mwsrJywMM+QiaBAIHA/wYCEomkx48fP95OnTSTFB/3GZXTgwa7Alu2bxarq6t2olAobFTCIDCLxWJaeWk522ueDxl8VuHx69K1M3D0WJhYTUPNQtnP44b8SU5KfpGSkmq/cL4foriqPrlh4fuLbO1sk+3t7frjgSMeMr9++Xo5Jyev35xZ81DhsG37Zn6Xbs4p9jjGmbAD6OTklOeJCUn2ixcuQRVY7j+0p8jRyaFZntikpKS1VVXVy4a6jaRheYEEBq0X9HPp89Xe0V4pFzM4bi8/v/CWWCiyC9iwUQecFtLYr2evHkBwSKCQ1AJ46eDgMBZL35HKkkgk2rm5uY8z0lmmK5et1RGJRPWKolAowPZdm/lW1sxsY2NjN2WXpohEok7fv3//0KNr39bSv19OkPh8+doFvpGxyRZLS/puJPwED4EAgcD/NgLg6Ewul5e+e+devctRV1WxQMNvySLh2PFj2ba21p2xkNeYjMSviec/RscMXrc6ANPnb12doVuDBd26dnno2M5xKt4+KZKflJRyk5XB6u7tiSzj2pj88GNhxRZMxkcnJ8eRiuxo6uOpqenrKyoq/Ie6jUCUhKpr/5nzkUWGRkY3HR3tvfDwDVYAnfAl4UJObu7A2TPRvRnIHYk8fazYxNj4qVN7pyl4OIdEpkAgaEcikT6PHjGelJ6WgUREozy3713nU6jknVZWVtswF15LoFAopAsEwmeP7j8mbwwKgXUj2ndwN799e6csmjatn56eHvLvSCgdlMlkmhkZrI9PHj3TCQ4KgfQ2GhC0vth10AC+lRWzG4lE+ivNroRfSnLK48uXr3UJO3CEjEYd2AASEXmkRCwWG/2XOqnRYELwEggQCEBHAHxOJyQmuS71W4Fp7fD5S6f5uro6kU5OTiuhWwOPsqysrGNpaemHnl37qYCTJvD8gVMs3kW/rNLQ0Oiurq4ej6euxmR/+fJlX3lp+dSxoydier5q67x+8xJfk6x51tHRcUlT+alIb0lJSQ8SifR6+JAxLTlsjiJySMc1NNSBJy8elLZo0cLTzMwsChITDCLIATSHxVlc/q08yG3AMOrPn9iMGmzRogXw+Nk9YZu2akFMJmM/DLtxI01LTYs+d/aCzdEjx7XwUGJrZwNcuR5V1apVS1sKhYLNVVLH0IKCAr3y8oqPF89HkffvPYSohixky8bi3n16Z/+dcZDhgYUimUlJSW/evXlvt2HdRlgvAJtCAwU9e/dIcXBw6K1IBxbHwTE7Uqn0WecOPSB1uCvSGREZXmLJtNxvZ2cTrIiWOE4gQCBAICBHQCQSuUol0hu9uruoV1VhO8nM1MwUfF6Ds5Qd8eo3qUlEXLraNexgOC7P37pXis9Cb6n7pPEf7ezt3JriKuLz+WO+VXw7O2TQSHV+MR83E3R0dYAHj26XtQBazDIyNbqKmyIUgjMyWGkH94fRoy5cRjTruyHV/Vz6ALv2bOerqqlaamtrYzoFDlIALZVK7aqqqr5OHD+1laL1mXDxA9dtXrp6/ruKiko7TU3N+sd4wBWKkD4zI3OBQCQMGTl0LKyADa66lauXiQYPcfvg4OgwFC4vFPrUlNRPDx88ZmwJ3Y4oeJbr2HtgV7Gjk/0nR0dHXOxszJfk5OQ9RQXFUydPnI6oVOjipbNFega65+3t7XF/405OTrl9OerqgMOHwjEJoNt3aAc2gBSam5sbQDnfBA2BAIEAgQCIQGZGZsrOHXsY16/dhNXEDBW9RYt9xOPdx8Tb2WFfU8vn87tVVFQ869KxJyb3Uag+xcS/K1dVVR2go6PzESoPFnQSiURHIpGkL/NfRX35Av8BXf1c+gK79m4TamlpWWtpaeEXrSMAJy0lLZSXlTVv5rQ5kL40w1WxfefmYucuncDhFdPh8jZGDymATklJeX/p4hXHw4eOamCpXC5rwUKv0omTJyTa2dn1wEM+VJk8Xnah3yJ/vYaGzEOVA4XuQ+ybUjJZaxTWW5GSEpJOcLm84XNneyMKPOvafuvuNb6mlkaYnZ1dIBS/sKCRSCS9Kyoqng7sN0SFz0f2d66jowM8ffmgSlVVdaCWlhb8WUAQHREIBGYkEonb0akr6du3bxC5FJPduH2Fb21j5Uuj0ZQ+PkqxdQQFgQCBQHNDgMVi+RYVFgWOGz0Jk/rRhvx79e6ZREdHezKNRruPJQZJSSn3L0Vd7hsedkypAbS3z7zyiZPcXzk42Ck1UZSQkHT3zeu33TcGbMI1YVf7HAUGry/p26/PBwcH+2Yzwq+kpMRUJpNljhw2rjVWpRt1r0s1NTWwXOebqqqqC5lMxuxFSWEAnZ2dPZdfzN82dNAoXP8o7z+6VaKjq7PK1NT0OJZ/lFBlsVisDelpLF+0nZ9Q9U2dNqnC28crwcbGuhtUHkV0eXmFY6qrvp1x6eOmUVFRoYgc0nFzczPg/uPbP1u2bNmdTCbHQGJCSZSenpFwcH+YzaWLV1qjETVx8oTqRYt90qytrZzQyGmMl8Vih3z88NF7mf9KTOvXRo4e/mPFyqWfrDG8PvDCgJBLIEAg0PQI8Li8/MWLlhp8/FD/lkGsLBwzbtTPpcv8Eq1trNtjJbOoqMiqRYsWSR2duraurq7GSiwkOa1btwbiE6Krf/786aCnp4d941M9VkgkklGFhUWn+/Toj6pnBpKDdYjAFyAyWctDX1//OhJ+rHkSEpKiXr987RYcFIrqi7kiu+Z4ziqfOWt6vK2dLWalnQoDaB6PV+Dvu1z//bsPiuxDdbxHz+7A3gM7m+yzdU5OTsnsGfNoCQmNT6pA5WQ9F7Kenu44CoXyFK1cmUxGyuJlZa9bE2D85PEztOJ+4585a9q3uV5z0mxsrDtgKrgeYXl5eV452Tmho4aPxyQgvXX3Kt/E1GSdkZERLjOuORxe1gKvhaaf479gDs3nxJhKNTW1dk29ThdzxwiBBAIEApgikJ2dvYiVkRkwZeIMXD6B1zX2yYsHIiMjw+k0Gu0uFo6kpqaHvXzxclLg+mClZWNr270xJEDQz6VflK2ttQ8W/iiSwWZzuIEbgs0eP3yiMAarLQscObtt52ZAX18PKCwsAiIjTgHePp7AhXOXgP17DypSW3PcbbArsHFTAM/CgkGHxIAjEZ/PtwMA4Gv3zr1blZYqbhqNPB0BWFgygFXL1wIjRg0DJriPA8AXrmPhJyD5/+bDc4mOjg4mMRcIS6MnLyUpJYjD5S6cM8sLk2BG0Xk4ceoon0GnH7JzsAtSRIvl8cyMzCVsDmftjKmzleKn3PbpM6ZWzfWa88HOzqYfWn9SUlJ2paexpuMxBge07eadq3x9A70gOp1+CK2tjfHzeLwcf9/lxli9sP39YpZrbm5ugrXdYKlJfn7BnX69BuKSRQCXDnXv0fWIjY3NWqxtJ+QRCBAI/HcQ4LA5vKVLVpq9f4tvokuO2AT38VW+/gs+29jYYPIFNTc3X+Q+bhKZnYlLX73CEw0GZZevRYmNjQ0pColREiQnp67Py831mz7FA1a8IQ+epVIp8OjBE2Dk6OHAhrVB4JbnX0Hlh/fQqhPOXThVbGJmvNfGxmYzSndQsScnJUc9evDEbeuWHQqzz6PHjASWrvAHdu/YW6Nz9boVNS8O4G/KtInA1tAdwM0btxu1Z+r0yRVe8z3jbW1teqEy/G/mBgNoMKOZl5vHnzVjLi0xQTkL3hydHIBTZ44LjIyNdEgkktImP3DYnMzlS1dbvH3zDgtMYcmIT4j+pqKi0llbWxsxyHw+35hEInGGuI1snZ2VDUs/VGJw8HxY+P5iExMTfbzOTWYm1ycnOyt40oRpmJYLRV05V2JiahZgaUnHdIV8ampqxO2bdyfv2rFXHSqOcOi6dusC7Nm3g2XJtLSCw0fQEggQCPzvICAUCsdwMjnHhw0ZrdTs7cdPb8soFHJ/tKV9IpFoUuLXpEMTxk2Gfd+vnZGVn3EwMwtmKKEGk3K+K9culji2c1hIoVAwH3cm15GUlKRCoVAKPWZ4UhTtZah7BdcOIM3p5r8CaDAbLQ8sFQWQcplO7RzBDZMikUik31TjUktKSkxatmyZ3c25NyAWixX+wYL+y4NmPX1doE/f3jXnGXxOQg2gQSXgdauurjYQi6bRBgNoHo/nn5aavhavrsiG0Dp97kSxja31ZnNz879eM3D+gWN/cnNyLw90GYL7m2d9rqwPXCsY6Opy1c7ODvGg78TExMj37z6O2rA2CNcbaM0XAguLA3iNV8vMzMxYs3ID89XL15ie9b79+gBbtm9iWVpiG4jyeFl5M6fNNkxLTcfU3trCPn35UK6pqemspaWVipsSQjCBAIHAH4tAamrqu/17DnW/dvUGrHIAtA77LVlUOnrMyHv2DvaT0MhKTU17vW/3gd7Xr92EJaZ2RnbEkDG/eO88uAFoamrCDqLHjhsN+C31fWNra9MHliEwiNPSMjampaYu8Jrrg6jURu7bw/uPgP4DXYBzpy8Avv4+QH5+AVAbAygmhUcc4ttYWx+xtbfdAIUeaxpw0lZMdNzMVcvXQI5bQrZs/K1sAwykwTKOK5evAevXQJtzsGjxgtJx48c8sXewR70srsE/OA6bw1m2ZCX9nZI+CclPTs9e3cGZfVyGBYOB9QmrT15qavrNs6fPuUYcPaHUzl+5LQwLOnDl+kWxsbExogBeKpXqVVVV5fbvO6hVUWERrpCB49UiIsOLTU1NMJnwUdtYkUjklpubd2lgv8GIcFDk+NOXD0XGxkYTKRTKY0W0UI6DmwdLSkpe9OrmogmFHinNnn07S1wG9N1qaGi4E6kMgo9AgEDgv4mARCKxLi8v/9rBsQsuY+saQ01PTxdcUlH58+dPbQMDA8UFrPUIKy0t1a+urs5zsuvU4vv377BOUu2MbO3Ma0P/r0h4q1atgISUuJ+tW7c20tDQKFREj+Q42GvlMcMT1Vd9eRAp1//+3Udg9kxP2OaAX/xPnokQmJiYwM78w1ZWD0NOdg5/+lQP7dSUNCzEQZZBJpOB9zGvfrZq1Uof7Ti/egNokUg0KDs756Jb/6EK61IgWw2D8PHz+0JTU5PJFArlEQw22KQFBQXqrVq1Evbp0b+1UFj/imjYQhEw3Lh9pcTewc5TS0vrBlz29PT0rZ9i4uYuwXjrVEN2RF05x7extV1lYKB3Aq6tjdGnpKTdOXPqrMuJiJO4lEPM8fQomzFr+gs7OxtMxvdkZWVtePrkuf+aleshvz0jwWvQYFdgfeCaD9bW1k064hGJ7QQPgQCBAL4IsFis7a9evpmzdtWGJgmCTp89wW/XwWmNgYFBBBJPC/MLfT5GR2/0musDqx5YrgvMyIKTouRNZIv9FwHzvOcAPF4W7IwsKPPo8TB+t65dA/UN9TEt9wNls9ncRRw2O3Da5FmIfEWCryKe81Gni5lWlkFmZmaY+9uYbpFIND41JS18zMgJTXLdhoUfLHbu3GGXubk5qo3Q9QbQycmp905Hnh54MvIMphthFJ1M+XGP2TOqZs6e+dTe3nYYVB4kdHw+f8bn+C97pk/xaJKTKLd56vRJP7y8PR/b2tnCnkOZnZ1d5DHdUzcpKRkJBLB5XN0GAEHBG5KYVkxH2MwNMAiFQsrPnz/53Tr3blkqxWdzuIamBvAx9s2PFi1a6FCpVNRvS+nprOigDRu7PHv6AisY6pWjqqoKxMS/r9bWpmmSSKRKXJURwgkECAT+KAR4PF6211wfky+fvzaJ3UOGDQbWrl8dY23N7IrEgIz0jPebQ7Z1v3/vIRL2Gh5wMkOPnv/0MiLNyIKyhtb4s+qDlbUV5gkLFiszY+3qDcxXL5CVKGKdcQf97evSB9iyLSTD0tLCGvEJQMCYmpr+/NCBsN6Xo662gsOOVc17z949gB27tmRYWlqi8vtfAbRAIAAnCpSAwYxUIoXjG2a0mlqaNcEOAADaNBpNcXU5Qs2pKanP9+095HL9KuzEL0KN9bNRaVTg5Zsnlbq6umCQBHkIpkQiGZOSknp89PDxuGZB61r9Lvp1qbY2dQDa5hG5XHB03dcvCZs9Znji+iJz8kxESbv2TmvRjrTLyMhoQ6PRpM7tu7fGcnlKQxfVvYe3hBaWDHcsxh1ieuESwggECASaDAGJRNKjoKDgft+e+EwBgupYYmp8NYlEAtckw+pgBxMnJBJJ6GTXqWYUWXP4gTOhE1LiAJlMRsUi0SL3SSgUuhQVFl3v19sVdokiGDgHbFwHqKs3/HEWaeMkaN+L14/F+gb6Y6hUKr7ZoL/BKCgo0Gvbtm1BO3tnEpx181jXvH+IfV2qq6vbV11dPR7ptfevAFooFHp8/BCzw2PG3Cb9zHDyzHF+t+5dVlCp1JNInWuMTyaTtSkpKZH26NK3NTgWpql/129dLrG1s5lDpVJvQbUlNSX16eGwoy5RFy63gMqDBd2KVUulw4YNuWLnYDcHC3lpqWlvdmzf0+vOLUxGijZo0ohRw4EVK5e8tbG1QTVIHbwZ8nhZ14a4jlBKidPaDatKh48YGmZpabkKC7wJGQQCBAJ/PgKpqemH79+9N33bll24bAiGitDBw/sEnbt0CqXT6buh8oB0IpFoYtyn+LCpk2YiSpwgrXVWZOP5qNMlnZw7+lAolL9mpGHwS01OvX7hwiW38MPHEJco4uWv13zPislT3B/ZO9j/04mJgc8NicjNzV34KTZ+o9fcBbDOO9YZ+A1Ba8UDXQeesrW19kPq7r8C6LS09Nc7t+3ufRvnYEaRwSNHDQeWr1r6xsbGGpeOWIFAMDItNT1y7Ch3WCdRkd1Ij8+b71kxY+bU69bWVtOgyBCJRFSZTMbv1K5bC6y2DkLRC9JYMi2AqCvnS0xMjFG/ZIFfPEgASdDeqXOLqsoqqCYgolNpowJ8SYj9KQNkNDRfNngcXtD9Bw+XBm3YhGsDodzJ/gP6AcEhgdFW1laYzFxFBB7BRCBAINCsEOBxedlzZ3ubKGvMbEPODxrsBqwPWB1jbWMNq4wjJSXt2omIyFFnTp1riRRYsAa6uIiPqImuIZ0zZk37Mcdz9i07O5txSO2qzZeXl6emotJG2K/XAJWSEgEWIjGVoa1NA16+fVZVVVVJNTIyKsdUeD3C0tPSP2wJ3d4NSdkOljXv4FCEI8cOZTEYdHOkPv8WQBcXF2u2bNlSBAZlyvg03ZjRbdu2BeK+fvz548cPiq6uLuYp4vR0VuTF8xcnhh0Mb5LpG3V9t7JmAucuniowMzMzhHIyhULhzJiPsbtmTp+DOoiFoq8uzaNn94RmZqYTKBQKqrWHUql0fHzc5yMTx09Vih+Xrp7nd+zUYb6mpuZVJH6DPOnp6S+2hGzvh+QGgEQn2DX86t3TMn19/SbNNCGxneAhECAQwB4BqVTqKBAI3ndz7t3k9wRwekViajzssoec7JziCeOm6HA5XEQANVbaUFZWBgQHhipcrFGfYjqDDly5dgHcYIto1FxdmUVFRR5fPn/dOWPqbETJOnnm9cqla4DHnBn1lnKg8Re09+yFk/wuXTsvJZPJZxCdDIhMYOIPAACBo21HAO7UFbkKLGveP8S+KdXR0e6poaGRANGF38h+C6DBzsgvn7+GY73IAolhIA+4AKN9h3beFAoFcbDTkG4Oh8vznO1tlpSonOY7KBhEx4GD6Smdocz8TUtNe7pv70GXa1duKLV8Q+7HkmWLpWPGjbpkY2MDf35OLTDS0tIunj55dvTxYyfbQsEILc3ceR7fZnpMv2ljYzMZqazc3Fz+iKFjtfPz8pGKgM337uNLKYVK6Umj0ZS3ax62lQQDgQCBgDIQyM3NXfX8ycuVy5etUmr/S0O+Xbh8pqRjxw7zKRTKFSj+S6VSh+Likg89u/Zp8heA+uwF+3x0dbW7a2pqIl5wJpebmpr2ZvfOvb1u3bgDBZomoRk1ZgSwbMUS3L74uaVpVgAAIABJREFUy50SCASTP8d/OTB10kylJMwUgbl1R6hgwMABe8zMTEIU0dZ3/LcAOjU1NepU5NlxkcdPweqMRKIYCs/subO+z5o9/ZqtrS2qQe11dYEbcKqrq1lNMTuzMb8PHd4vdBnQd5W2tvaxxuguXbrU0sXFpbRvzwFtRSLceiwbPUX2DnbAydMROWbmZqZQzmVDNFm8rLypk2cZsjJYaMRA5mVaMYHzF0/lm5mbGUFmqkUoEAjMKr9VpnVs11UpAb9cdUTkEUGfvr0Xk8nkc0jsJngIBAgE/jsIgNMrNm3c3P3RwyfNwqk5nh6VHnNmXLe2tp4CxSCRSOT96OGTzYsXLmkWLwB1bd5/aI9g0GDXtRQKJRyKPw3RgI2SAAAIOzh2ASorm+8QpTZt2gCfE2NANzBtnqyLS3p6+rWjR46POHv6fGs0uGLFC5ZHbgoNimNaMZ2RyPwtgM7KysqbNnmWYUY6smCmbmpdbhDSzwt/lzXkm5khC3YaAkQkEk2IiY4NnzF1drP64500xR3wWeh908bWptFifnB7YmYm+9LwwaOV0sTWEI4x8e/KVFVVO+vo6CDakicWi5mlpaVfnNt3V2oZDbjdT0NDoz2ZTIZ9oYvF4mEJXxPPTBg7WanXjo/v/G/TZ0w7bmFBX4TkD53gIRAgEPhvICCTyVoJSgRlXZ17qYDP1ubws7a2AssAICcm0tPT7+zfc2g4uEEO6Q/rprLadoDb7RYvWXjX2toa1d4AsVg8NSY6dt/0KR6YZFxrj3EDJ29ERpwCvH08gQvnLgH79x5ECmUN35nzkSVdu3UBkzTnUQlqhDknJ5c/fvREbXBON5Jf3SUyaGPMv5fnyL5//05GUir8K4AWiUSWZaVlX507IAtmau8pHzTEFfgc/6VmtSLaIv9Pnz+Uq2uot6NQKJlIAK+Ph8VihZ8/e9Ej7GB4k8y5bsgP8CZ05sLJXHNzM5PGfGWls/bdvHl77o5tuxF39GKB5YGwfcL+/fqu09HXOYxEnlgsnv7m9dt9cz28lRqMHj8ZLujdp5cfmUw+C9fuoqKi1deuXF8TFBCiBZcXDb1L/75AyJaN75lMZk80cgheAgECgT8bgZopQFzetSFuI5s0gVIXxdjP7ys0NDScoDyrc7JyCtwnTNHnsOHXP+M91g30C9wQfPnahUITExMDNFdLWmravbBD4YOiLlxG3Cgp1197jNujB0+AkaOHAxvWBgHeC+YBFpYM2KvL6/o1cfIEMIH3AMk+CigYCQSCdkKh6E2vbv0QNd/LzzvYewR1bTcUu67dvCSwtbOZSaPRYI8B+xVAg8HM21fv9s6Z7YWq0H33jr3AmHGjAV09nZpNQGhHr5yIPFrSq29PfyTBTkPgZWZmflm+ZFU7cOB6c/uBMzWrq6uNDQ0NixuyjcXKTFixdLXj+3cfmtT88e5jgcV+C+/b2NogWniTnpp+NjLy1OTI46dR31zgADF77swfs2fPumhtaz0dDh9Iy2Kxru3ddWAsmswJXJ0gvZGRIXDr3jW+iQk2jS1IbCB4CAQIBJoeATabHfrg3iPf4KBQRIEIXh5ERIYLevXu4U+lUhttRCsvLzcRi8UZHZ3QlcGhjS0U4RCfEP3t/0vmrNTU1HIU0TZ0vKCgQDLEdYRmQQH6zeC1/TWnm/8KoPX19YClK/wBMPaqvdIcrs0GBvrAgyd3pAYGBrgkh/Ly8vxevngduGTxckQvfnidb/+lvuXj3ceesrKy8oGL2a8AOiODdfrk8VOTjkecRJSVlb8dsTM5QHzcZ2DW7OnAqcizQMdOHYB27R0Rd8TO9fSo8pg7K8rKijkTrnMN0RcWFlX06tavbWkpPlvv0Nh5885VgY2t9SQKhVJvcZtMJmsrFArL2tk7t0DaxYrGvtq84ArVqzejik1MTPSQyGSz2Wk+3outwa8Vyvx16NgeCAvfn25hYWEDVy+Hw0le4OVrp2ybQTuT0j7/aNmypS6FQhHCtZugJxAgEPhvIJCRnvFuY1BojyePnjYrhzxmz/g5x9MjytrGempjhgmFwtFf4r+emDxxOqIvj1Ay0EjLRmvbffHSWUH7ju3A3Qw3kQBdUlLSsyC/4O5AlyGwl6c0pA/8oq+pqQk8vP8I6D/QBTh3+gLg6+8D5OcXIFpdXlfP0xcPRAaGBsO1tbXfIfG5MZ701PQHe/bsH3z9KiI4a0SDZcLy5CxW9nXr3gXYtXdHMpNp6QBX5q8AGgxmFs73swaDX6S/2m8IYBZavl4TzNYhTbmDAfihI/sQBTv1+SGRSGz5xfyYnt36Ncvu35DNG8Wjx44M0dXV3Vmf/QKBoE92Vs7Nwa7DEb3FIT23DfHFfflYoaqmak+lUmF9i5PJZCpCobDcya5Tyx8/wKWTyvu1bNkS3Db1g0qlqpFIJFjDpwsKCqV9ew7QkEgkyjP4b03PXjwUG5kYuVIolFilKycUEggQCDQLBPLzC6SuLkM0SkpKmoU9ciPatXcCwiMOsRkMhmVjhrHZ3B3Xr1z32bF9t1J7X+CCtWLl0vKxE8aGWVjQV8DlBenZbHbIwwePfTdiXO5Xtw4Yzeryun5tDAkQDR7idpBOp29A4nNjPODYwnFjJupk8WAtrPwlEq+xhWA8kJga/5NCoaiTSKRvcPyuCaBjY2NbW1hYVLSzd27Z1FnNusaDRd5fkz/9YLPZqp07d0a97xMc1Rf9MebozGlzEL39wgEXCe3ESRMAP/9FVy2tLCfUx19SUuJ/+9bdwNUr1mH2VovETjkPuLWpcxfneVpaWtfhyBGJRM4F+QVPXfq4gavjlf4D15caGBoMpFAon6AqLyoqMpDJZNz2Dp3bQOXBku74yXBRr949wbGOmG3IwtI+QhaBAIEAvghIpVK74uKS6OY6/i2VlSCrqqrS0tPTa/DzLiud9Sp4Y2if5jJBpKEzNmiwKxAQuO4105rZF8lZZaWzogM2bOzy7KlSNmQjMfFfPAMGugDBmwJjmNZMWEtxFCkXCoX08vLyZOf23VUV0TbF8QdP7oB7LUbTaLTXcPTXBNAikahTQUHhM5ferk0SzCgy+MWbJ2IDA/0BFAolThGtouP5+flBly5eWbYldDuqDDTWE0fkdoMZ97Dw/SkMBsO+Pl9YGazre/ccGAMOVYf7q93BK+cFO3lXLV8LfHiPrB58+colZe6TxoeZm5uvhGOPWCye+ezpyz0LvBY2yYvM4aOHBAMG9ltCJpNPQ7VbLBZ34/GyHgwaMKxJXl7WbVhdMd59bKiRkVEoVJsJOgIBAoH/DgLgVIe3r9/tn+OBrFcJbySgBCI5OTlFY0e662ZnIystVsZiERAnU1MT4Prty4hLFIuKir/16tavjVSK3R64xf6LfpXHglM3wDgETYls3esBLA95+/FlpZ6eLqZjWqVS6TgwcTlt8ixEPXZyO/GaQrJle4ho2PBhIfr6urvg/I3UBNBgA+GL5y/3e3suhF0WoIx6pPCIQ0KX/v3A8SqwpybUBYPFYt3YtWPf6OtXb8DB6TdavCaOgErIZC3g5dunZQYGBvUG+FwujzXXw8sS7gKY2h28YHOn/CevqUIaRINrXDcErXlpZWXlAgdQHo+37/TJs96HDhxpkmzuQt/5lTM9poebm5v7QbVbJBK5v33z4ehcj3mwAmisXlymzZgCLPSdf8bCwgKzfgCovhN0BAIEAk2PAJvNPnTuzIU5hw4cwTTAwcqz7bu2iEaPGbmeTCYfqk+mWCymVVVVFzrZdUS8awKvZrL67E1Iif+uotJan0wmw9rBLRaLu+bm5D4c0G8wrGdFY+dB/hx5/erNbyWxYBCNxRQOuW6wVNDY1HgQmUyOxuq64HK5u6MuXPbes2s/4rIdPKeQjJswBliybPFtKyurUXB8rgmgORzO3vNnLy44sC8MUQMhHIVIaH39fKqmTp98mMFg+CPhr82TmclJ8vXxs4/7FI9YVN1ab6wmjsgN+pwYU6mhoWGuoaHxW+tuUFBQi0WLfCs7OnVpVV0Nr5oFr5mZdLo5cOnaecgryOU+sjJYL4ICQ/o1VSOM66CBQNDG9S+ZVkzIgX9JScnSy1FXNgUFhEC+CWD54tJ/gAuwaXPgGyaT2QfxxUswEggQCPyxCGRkZH5cv2ZD15cvYH1pVpq/U6ZNki30nX+JyWTWu+lVIpH05LA5dwa7joCdrJM7UTsDPWHiONTTJxoD5+GTO0KGBWOElpYWrKY6gUCw6N7dB8HLl6xC7Gddu/B6htfVs2P3VpHboIFBBgYG+7C6cFgs1tuA9cE9nz15jlgknlNIbO1sgJNnIrLoYEAD41cTQGdksJ6GBm8Z8OD+IxisyiMdMnQQsC5gzTMrK+ZAtFrzcvOEg1yHU/jFfMSi8Jo4Ijfo0dO7InO6+RAymfxbXQWfz7eViCWIGyDBbDM4OeNY+Imaoevg56B53nMAcKh57aw0XGDAujcymaxBIpHKofLyeFnZUyfNMMlksaGyYEpnybQAzkedyTGHsUmRy+WGHQs/seD4sUjItmB507OztwUiTx3LpDPoTMgGEIQEAgQC/xkEcnNzBcMGj6YWYjAWDQ9QOjl3BA4e3pdiYVF/CaJQKJz95PHzXb4+fqgCS/BZxmQ23KuIxRQOEB9w14GrW/9lVCoV+k3/r5jq+v69B8dcjrqKKcxgtrlzl06/nuHyCgCspnCAxrpPGg8sXrzwppWNVaML3eA4lpOTWzJq2FhaXl4+HLZ/0eI5hSSVlQCQyWRwsEAFVCNrAmguh8vxmOlJT01Jg8r3Lzq8OiRBRTVvB6cjuHQGnYHYQAAACgoK1Nu0aSOxs2rXAo0ckBePiSNym06cOibs2au7F4VCuVLbTrFYPPxz/JfTkyZMQ1w3XLd2G4sO3ldvn0p0dHX60Gi0r1BwlclkJIFAUNnO3rm1sidwyO0DO2+/Jn+qptFobUgkkgyK3SxW5p1tm3cMv30L3rx1rF5caNo04Mmz+yIjYyNUDx8ovhI0BAIEAs0LgYKCAj0SiZTd3qFzs/xSDKIF1tC++fC8Ql9fv96vdFlZWXtOnzy34OD+MNSle8oo5Vi02Kdypse0w2ZmZkvgXA1cLpc7Z6aXeXJyChw2SLTyxFfr1n9tw8biGV5bsb29HXDi9FEenU6nQzJIARHW1y1eU0iev3okNjQyhDVYoCaALiwsrOjRpW/b8nLICUTIuILBg3wrIWSmOoRqamrA+5hX3/T19VF1cIrFYquSEmFcc+1glrsdHBIINuat+/+l9L99QhGLxYuuXLq+Zd2aDagaIJGeh4b4zl48JXR27jgb6rxMsCO3rLQsqXPHHpBLIeq+tKAZGC/3Izb+Pbjl0gHqCL7MzMzYZf6rnJE0XGL14pKc/vUnlUoBg/7vWJ9HQh6BAIFA80VAIpH0ZmVk3h42eBRmdbV4eBsLbg9WVwNHm/Lqys/IyHy0JWSr2727D/BQjbnMYcOHAOvWr35saWU5CKrw7OxsVU1NzXJbphNUlmZHB2ZjpVKpmqmpKeRsbENOCIXCvhw25wb45aTZOVrLoPCIMKFL/76+/7885xxUO0lSqVSvrKwsq4NjF9RvhPUpxeotEawLVldXN9PU1CyC6lxdOolE0ictNf3WyGFjUd+A8OyG9ZrvKZvnPeeAqanpbw1unEzOkYiISG+4JQQBG9cB6uoNb/1G+7lr0+ag0gnu48CAfz+UcwPOsuawubeGDxkN+zygXQ1f2767D26KGBb0UVBH13C5PM6MqR70jHQWFDdxofmcEPNNQ1ODoaGhUYCLAkIogQCBQLNE4K/yh2e7fX38Yd83lenQ9VuXhXb2tu4UCuVfm164XG6Gp8d8ZmJikjJNQqzL0dEBiDh5hEWn062gChGJRJ1zcvKeuLoMxnyqGV7Tv+r69vTlQ5GxsZEbFjsHRCKR5/17D3cuWbwcFR5YxZINnUe/JYuqpkybdIBOpy+Heq5JQqGwY35+wfMBfQehcq4hhWC6feiwwYg3EcrlPgPT64YG/alUKuLuP3AG9Nu3HyLmzoI3RaGub3h3w44bPwZYttL/mqWl5fjaujMzMh+GhGwddL+Zvb17es0BPL1mh9Hp9IVQLjyRSDTp9as3R+bNWQDrQYB1mdCxE4dFffr2nk+hUKKg2A3WHw4eOJzK5yteYIDXqKXX755Jadq0Htra2n/GEwgKsAQNgQCBgEIEwEkG585cWHRgX9hf3+6b6W/nnm2SESOHraBQKEfrmlhQUCDt19tVQywSN1PrfzeLTCEDL988KTUwMIC8Nl0oFM58/uzlPh9vX1jPN0WA4Dn9q67uw0cPgJPPwLXskMe8NmQ/ODnmVORZ7/DDx1oq8lHRcSwTaHV1DR85DFi9dvkjKyurwYrskB8Ha1GHJXxNPIOmrhYU1lhwg2YTodzQqCvnBE7tHGfQaLR7UJ2rSycSibxv3ri9c9XytahKILBsDKvPF5f+fYHQrcFvLC0tf5u2kJmZmejrs8QBzQQRpNg1xjdy1HBg1doVd5lMyxFQ5AuFwiVRFy6HBAVsglXCAUU2HJqg4A3lk6a4r6dSqXug8PH5/MoOjl1UmnLZ0N2HN0VWVkywK/wtFJsJGgIBAoH/BgKsDNb9rVt2DLlzC/EjsAYIrMZqNoSqt4/Xj1keMw5bWNB9a9MIhULKjx8/ih1tkY+wa4ozmZga/71ly5a6VCpVBEU/h8PZd+7MhfkH9x/GtFYd7+lftX3z9fP5NmPWtCNwa7/rwycjPeN5SPAWl4cPHkOBr0EarBNodRU5OjkAEZHwvjaAGWiPRw+f7PVbtBSXDDQqxGox7zu4WzxosCv4RnQSqUw+n7/29Mmzgdu37kJ9YePZDduhY3vg8NGDSQwG3bG2r9nZ2fnjRk00QDqAHq8h5N17dAV27dkeZ8m0dIZybsAZ0MePnVx89EgEFHLcaLzmewJz53nshzILWiaTqQuFQom9dXvYDahYlvtcvHxW2LFTh+lkMhndUxQ3VAnBBAIEAnggwGZzUny8fW3BniKkPyzHajZkw/ARQ4HV61b8K5MnlUodCvIL3vXpOUALqf11+fB6ptXW8/rdM4mBoUFPTU1NSF/9MtIynoWGbO2P9VQzvKd/1fYZnHy2PmDNMyYGk8+4XC579ox5jJSUVKxOOy5ytLQ0gdfvn5fp6+tDTrCSRCLR8rOnz28MCd6COhuIZaBQF6H1AWvKp8+cGkihUHYiRS8nJ2fP0SMR/kePHEcq4jc+vLphLS0tgPOXzmSbm5uZ1VZYWFhY3qNLH9Xycvh1/XgOIbeyZgJnzp/k0enmkLp22Znsy7t27J1w9Qqs7d81UGCZPRk/YSywbIX/FQtLC3dFF0RpaamBVCrldHTqCmuBAdblPkePh4n69usDuexEkV/EcQIBAoE/A4Hc3FzhENcRlGIUI1jx/noKIgkmgMLCD6RaWDDsaiMrEonckhKTosaPmYxJMxmez7Tadl+9cVHo4OgwiUKhQEqhgr0yHjPmoppq1tAVief0r9o6/5qLfJxLp5ujmnwGyiwsLCzr1c1FrbS0we3ujf4B4l37XFv5l6S4KlXVNsZaWlqQ5hyT8vPzd4Qfjlh6JOwo7MxabcVYBwp1EZ3v4/XTe4HnbkNDwxVIb3c8Hi9y356DHufPXkQqQil8+gb6wL2HN/nGxsa6coVgZ6+GhkaZnVW7mskpcH94DiHX0dUBHj65KzQ2NoI0Xo/FYr8IWBfY79nTF7DcwDp7MmCgCxAcuvElk2mhcJmKSCSyFIvEn7t17g357RR0DusH1u59O8D6wiVaWlonYIFHEBMIEAj8sQjIZLK2YrEYnOyA6P5f23Gsxmo2BKaevh5w/9FtgbGx0W9rm4VC4YynT54fWLTAD5Ov3Xg+02r7dvDwPvFA1/6+VCr1DJQLqKioqKJ75z64TDWDoh8LGnDy2YfY19/09PRQTT6TSCTalZWVeU52nRB/9Vfm4pznrx+LDQz0IffakXi8rJN7d++fdeEcpD6qBs8N1oFCXUVTpk0C/JcuPmVubuaB9ALhcrmXt23ZOeH61ZtIRdTw4f1GpKWlBbx6+7TUwPCfxoWaDKhEyunYDl4GtO6NE5zT+fD+I6D/QBfg3OkLgK+/D4B2CLuKigrw6cuHSl1dXUjZWQ6b82XhAr92cGu5sb7GwKH/hw7v+8qwYLRXdEEIBAKn4uLiN/16ucL+/IhluQ848WTipAlryGTyQUU2E8cJBAgE/hsIiEQiC7FY/LWbc++GxynBcBWrsZoNqUxJ/yqjUCkqtcdtCoXCZefOXNgUErwFVVCmjGdabR3rA9ZUTJsxZQOVSt2lCOKioiKDHz9+wP5SqUhuUxyPT4j+1rJlS4aenh7iiU8CgaBdcTH/Vb9eA1G9NClrcc75S2cFHTo4zaLRaHegYE7icrnXN2/aNubWTUj0jcrEMlCoq2jU6BHA2g2rbtDp9LFQHKuPhs3m3gkJ3jz83p37SEX84sOzG7RNmzZATPy7Sj09vV8Bac0Ma35JXM9u/WBlQOs6itcQcnAboVAoVGMwGN8UgYtmHByW2ZO/S08gfaYSi8VdeFze40EDhyO6EWBV7rNuw2qwuWMDmlImReeHOE4gQCDQvBAoKSnpyeNl3R02qHnPgJajFvv5Q4WqaltrbW3tHPn/ZWdn7z0WftwPqxJKuVy8nmly+V7ec4F58+fuMzU19Vd0VfD5/C75efmP3AYMw3QChyK9eBx/9PSe2MjY0E1HRycGqXyxWDz4y+evFyaOn4q6bAfvxCXo466928XDRwwFJ8gcg+Izic1mPwlYt3Hgk8fPoNArpMEqUKiryNVtABAcGvjUwsLCVaERDRCw2ZxHgRuC3R4/fIJURA0f3t2gLVq0ABJS4r5ra2v/GlckFAo7FOQXvOiP07hBVIAAAGhvlYqKiiGZTBYokpWTk1s4cthYvXyEaz2xyp4YGhkCt+9dLzIxMdZXZLNAIOjF4XDvDB8Mf3a1Itlwji9buaRqntecjRQKZTMcPoKWQIBA4M9FQCgUjon+GHNi1vS5qAMRZaDw5Pl9sYmpyQAKhRIn18dms6P27Nw/8fIlbNdb4+2P+8TxwJLliy9ZWFhMUqRLIpGM/vgh+sSMqbMhlTMqkteUx0+fixR279F1tpaWFuJP9hKJZNbDB4/3NvfZ5XKcl63w/zbTY/p2fX39QCjYkziZnLcrV6zp+fpV856K1advL2D7ji3vGJaMXlAcq48mM5PzLGBdYP+nT54jFaE0vuT0Lz9pNNqvuYlisbg7m825P9RtZLN8s/305WMFhUJmqqur5ykCKT8/X+zSx02rqWeBgjM+X7x+LDE0NFSYVRYKhf3S0zJujB4xvknxX7xk0Y8FPl6bqFTqRkU4E8cJBAgE/hsIiESieXdu39u5fMkq2CVktRFoLPkD0lVXVwPHwk8A+/eiqxC7dO28sH37dlPIZPJDuX4WK/PpxoCQAY8foUtgKfuMug1yBQKD1z9jMi0HKtItEonm37xxe9uq5WtRnSdFepRxfOv20NIx40aB2dgjSPWJRKIVZ06dCwrdtBX1kAqkNsDhmzZjCuC3ZFGkmZnZHCh8JDabG7Nk8bLOHz9EQ6H/Fw1eCyPqKurWvSuwZ/+uWAsLehdEhgIAwOFwnq1bHdAfbvMaUn1o+OoG0OA6zIx01s1Rw8fBCuAU3TBBG9FuIgRlRMe9LdPU1HSEsha7qKiovEvHnqqVlZVoIELN+3epTIWenp7CP26RSDQgJTn1ythR7rAzQFiOWlrou+DnYv+FIWQyGdIbMmqQCAEEAgQCTY6ASCRaHXnidMC2zTtQ1w+DX/B09XSAEUPG/PJL/n/giLw+fXsDq5avBT68/4jY7yNHD4r6D3RZSCaTz8uFZGZmflrqt7IT0lhDLkdZzzS5PjD22L1vZ5ylJUPhmNaCgoKQyOOnV+zbcwBx01xjoGP5LFF0chf7L/o+02PaDhMTk7WKaBs6npudu/9wWPiiiGORqJtfkdoAhw9c+rcuYO1DJtNiCBQ+EpfDjVvk498xNuYTFPomo+ncxRk4GLY3ns6gd0JqBCeT83T9+qABTzEoV8F7pWZy+pcfNBqtldxXoVDYPyU57dq40e6wAujaWNVXtw3Wj4Fjh2rfTJHg+yH6damahlpHPT09hXuu+fySaie7jq1kMhkkVXjdMEkkEpCQEv9dR+efUpmGDBKJRAOTEpOvjB8zCRb+WI9a8lk0X+a3ZBEYQAdAAo8gIhAgEPjjEcjLy9sbdvDI4oij6AIRRY3YVy5dAyZMHAfs3rEXuHnjNmLcQrZsLHWfOH41mUw+JBfC4fDSPT28rJKSkhHLrcuI5zNNrsvBwR6IOHk0g8Ewt1ZkOI/HO7lvz8FZeEz6wvpZosiXqdMnA75+PqcZDMYsRbQNHedyuZd2bN3tjmRkLVKdaPhAjPfs3fGJYcnoDEUOicPhfF60wL/9p9hfpUpQ+P5Fg3eBt3PnTsDBw3u/MBiMDogM/CsD/SBow6bBWGzEWb1uBXDh3CVg0BBXAHxrX78mEMCqsbBly5bAl6TYah0dnV9vsWAGNCkx+SrcAE6OlaIbJ9ob5ruPL0s1NDU66enpZTR2fp4/f96qQ4cOlXZW7VCNTUR6DdTlS8n4+pNKpSpcMQrin5yUfHXcaHgBNNajlhb6LpAtWrwghEqlEgE0VhcBIYdAoJkjwOVyz+3esW/qpagrqCyVB2E0GvVXqYa8b0kgEAJgIg1MVqHNQC9fuaRy7rzZ4H0qRG5wVlZWrvu4qUY8Lg+VD8p6psn1mNPNgcvXzueZmZkZKzIcLLPcFBQ65P69X5UrilggH8f6WaJIMZiN3RCw9qEFxGxsffJqymbXB/XHImkJysc7Aw/Ovz515nimOd2cqQgf8DimGWisAsj6DK/JQB/eG0+nI89AszPZt7aEbh95+9ZdKNg0SIP3Sk1VVVUtUSUQAAAgAElEQVTgQ+ybCn39f0oLsMpAM5mWwPt3H4HZMz1rAn7w3yxWJvoMdOzrUgqF0oFCoWQ2Bq5MJlMRiURgAI3oHGC5SAU0ICXjK/D/9cQKPy8JhUKX9LSM60hqoEGcsRofuNh/4Y+Fvgs2kclkogYa0RVEMBEI/HkIcDice8GBoUOxCszqTq64cvkaEPMxFtwgWJMYQlsD7ek1G1i02GevgYHBEjnaubm5JUPdRtKKiooxOwHyZxgezzS5kXp6usD9x+Bca+Pf5lrX5wSbzY5evmRVl3dvP2DmY21BWD5LFBnYs1d3YOeebTEWFhZdFdE2dJzD4cT5LVraMfpjLFIRv/iUkYE3MjYCbt29BmmwQE0AjbYGuvbbYMDGdYC6+r/HVGJRY4tNDTT3wu4deyej7QLGe6UmlUYFnr18JDY0NPhVLiCRSPqkpqbdGjUMXg103au29o0Tq4YRUEd03LsyTU0NhTXQGRkZbXR1db/ZMp1g/0FhvUgFNCCVlQBQKBSFAbRAIOjNZnNujxgyBlYJh9xJrEYtLVvhXz3Pey44hSMUNoAEA4EAgcAfiQCbzX6zesW6Xq9evvkj7J88dSKwdLnfKTOzf/Y2FBQUSPv2HKAhkUgx9QGvZ5rcSHDF86t3z0oNDP7Zy9BwwMhNmzdnvnViAqSt34hwwOpZoki5o5MDcOzEkXQGg26jiLah4zweL8NjhiczJRn9Gm9lZOBrdnC8ewrpXNcE0P9LUzi4XN7RsINH5p0+eRbp9fCLD8+VmsYmxsDNO1cKTUxMDOQKxWJxNw6b82BIM53CEff1Y0Xr1q2Zurq6jU7hSEpKUjE2NgYDaIVBa92ThEcZCji/mkKhKCwnEYvFXXncrIeDBjbtfM+161eBY3YCKBTKDtQXMSGAQIBA4I9AgMPhxvv6+HWIjUFXaqksZ8F79ep1K68zGPRxcp1FRUXfunTs2aapm8fhYlDfXoaGZGRnZ+e4j5tizOVgU6YC11Ys6ekMsHTlQq6pqakJUrnZ2dm548dMMsriZSMV8Rsf3hl4sHz2a/Knam1tbUhNoJjPgcYEpXqEYDEHOi8vb8uJiJOrDu4/DDt4w8uv+uTa2toAJ88eZ9Pp5pby40KhsH1BQeHL/n3cFI5ca8hWrMsfautJSI6rVmmjYqBoDvSlS5daurq6Vtlbt1cYtNbnB5aLVED5daedNIRdaWlpu5zsnNfg+D041wLWvQGbQgPLJk52BzcRHoBjB0FLIEAg8OciwOXyUud6eNkkJSJrwFPWtCw5woOGuAFBwRseWVgwBsv/r6QEbB7v1Ornz59/1Imoby9DQw7k5uaVDHUbgWmZSlOB9Vfpyp1/rWSHY09ubq5giOsIanExHw5bo7R4Z+BTMr7KRCIRpKVwYBPhjS0h20ej3USIR3awNorgJsI161feZDAY/8zegXlKhELh0vNnL4Zs2rgZ9SggmKphkXft1gXYe2BXvIUF49fEEbFYzCwpEcb37NoH0SZCPMofajsFlkIUFxe3tbKyUjibjs/nV7Wzd26N9EaK1SIV8MYIvm3WbtZs6ETVbIIsEcYhwR/L3oBde7ZJho8ctoxCoUTAuqgIYgIBAoE/FoEsXhZn6uSZdFZGoy0mzca/fv37Alu3h7xiMBj9QKNkMlkLkUhU3Vyax+ECBbXZvKCgoLRPjwHqUil2ZSp4TaFShAHYt/P6/bMyAwMDRDEHKP8vPPqrS6WlitQ1m+MJKXHVrVq10qNSqSJFRpGysnIi9+za63HhXJQi2nqPQzm5hYVFqLt6p0ybBCxZ5n/SzMxkNiJDAQAQCoUeDx883ufvuwxWFhGpPqR8g4e4AQEb1z2xtLR0k8soLS3Vl0pLuR2duvxa7w1HPp4vOCptVIDY+Pe/rR5vzLbCwqKy7p17q1VUVMBxAXPav5s1y/X19f5duF9HW1lZmZFYJM7s1L4bLPyx3loZfuyQyGVAPx8ymXwBc0AIgQQCBALNEoHs7JycCWMmGfN4WYjsg/KcxqJXSW5cz149gF17tn1kWDC6/x1At/o7gEZkf1MzQW02Ly4urnRu312lqqoKF5OVMbZPbriKigrw6cuHKl1d3TZInSkuLv7m3L57GzR4KPvajU+I/qapqUnX0NAoVOQ3KT8/f8fRwxFLDocdVTjKqzFhWH+qrqtrgY/XD68FnnsMDQ1XKHKqoeNisXh43Kf4M1MmzoC9DAOUqawTCb4s+Pr5nLWwsJgh94XD4bSlUqnlSGqH5TKwLn+Qy9XV0wUeQOxSBnny8vKEri5DKODYpKb8gaOcnrx4IDIyMlJ4PZSUlIAvXQIHmw6o/k7Q+ns+6rSwcxfnmVpaWnfQyiL4CQQIBP4MBHJycgtGDx+nn5urcNGrQoeUEYSBX1H3H9r9iU6n18zTlclkrcVicRWS5nGFDimBAEaz+XfwGQF1xwEc0/FMgtVnB7gnISnt82/7KODYC9IKBIJqB5sOkHc+KJKvjGs39vP7chqNZqOmppajyB6SSCRafvb0+Y0hwVsUbmNTJAzP5SLrA9aUT585NZBCoexUZEdDx0UiUeesrOwngwYMQ1RHXDeAxmL8W322+i31/T7LY/p2IyOjdbWPFxYWlvXs2letrKwcKQQAVuUPtQ2wtrECTp+L5NLp5gwohmVnZeePHeVukJOTC4X8Fw34xwP+5Etf5Ofj65fEmrF8cH8mJsbA9VuXC0zNTA2h8JaUlFQ52XVCXHoCRYcimjv3bwgtmRZjqFTqK0W0xHECAQKB/wYCubm5RcOHjNEtyC9A5ZCygjBwb8Ohw/s+0xn0jn8H0LhkoPHs66kNNJQMNNjf4+bmBpap4NZjpYyxfXX8llGpVET9Sn/3O1XbW7fHBA9lXbsfP70t09KCtlWZBJY1PH70dM/ihUsQjeeSg/1X1y1+y0X2H9ojchs0cAmVSj2J9A5SXl5uLBSKMpzbd0NdA13fHy5Wn8D+rnNdTqFQjtX2NTsrO2/8mEmGWVnYdLQixbEuX4+e3YEdu7d+YjItIW3v4XK5LI8ZnpapKWmQTagbPMsZa48UhBtEg0PTT56JyKTT6ZCGpufn5osGuAwmC4XQMufyBQWtW7euMRectQou3EHze/n2qcTY2Ki3hoZGAho5BC+BAIHAn4NAbm5u8bDBo3UKCxR+VVbolDKCsE7OHYGwI/u/0Bn0msVneNRA493XUyeQVLhwSyaTtRKLxdV4Z9nxHttX22+omff6Ljrwq4NIJKpCuvOhPpnKuHY/xL4ppVDI7SkUClvRHxNJIBAMS/iaeGbShGk0RcSNHcd7uUjUlXMCp3aOM2g02j00doKdwO3snVv9+PEDjZh6ecGTa2hoAAQHhqJagxp15ZywQ8f208hk8v3aitiZ7K++C5c4od0aibXjo8aMAFatWX7b0tJyFBTZbBY7zt9vecfojzFQyGtKZ5au8G9wvSwYqE6ZNhHYGroDFu41zZr7dsZbMC0grYfPysrmTXafZsbO5Ci0W35zf/3qTU3QjNTGuorAcYEUCsVKTU0NXvpeocUEAYEAgUBzRQAMoIcPHq1TgEEADfqIdxD21+bgfV8YfwfQoE6sp3AoKyMJdQqHsgJoZV6jaANoPMp28L52P0S/LqXQFC+FA88DmIHumJ9f8HxA30GIyhrkJxPv5SLPXtUsFulPpVLj0VxAWVnZee7jphiiXSdaXz00Fs2SoG+v3j2TamvTemhra/82jT0jI+PB1tAdg+/e+S2uRgMHJrxe8z1lczxnHaLT6b5QBLJYmU+CA0MGPnr4BAq5wgBaUYDdkJJBg12BgI3rnzKZlq5QDGGz2fF+i5Z1iIlWvFWprk3g38emzUHA7Zt3UW35Am9oQqFQlcFgfINiM0FDIEAg8OcjkJubWzhi6Fi9/Lz8P8KZLl2dgf2H9sYzGP9sDsZjDjRefT21QYY6B1oZJRzKPvngSDekJRx/v1CAde+YlHAoy/cPMa/LKFRKO0gZaKlUqldWVpbVwbEL4k5LuWN4Lhf5nBhTqa6ubqapqVmEBsjMzMwPa1au74Zko1PdoBmLT/L1+QJetJWVlZoGBgZltY+z2dxDkcdPLjgWfhzyBamMxsfQrZtKx44btYZGox2Ecm44HM65vbsPTI26cBkKeQ1NY6PgwLpuC0sG7Ekvk6a4A/5Lfc8zGIxpUAxhsVgPQjdtG3z/7gOF5PUF0Nt2bgbkGWmFAuohIJPJwIs3j6WGhobNeooMEt8IHgIBAoGGEcjOzskbN8rdMDtbYV9Ts4ARTBjs2b8jhsFg/FoDjdcmQjz6emqDCGcToUAgwK2JUNknFm0TIR5lO8rAIDrubZmurq6Dqqqqwm04NYFYYWFhRY8ufduWlyNvTsPTMTU1NeB9zKtv+vr6qGuXOZmcyCNHjs08FXkGdmG8MoJRsLHtxp0rxSYmJnp1MRUIBAtv3ri9Zc3K9ZpQ8VZG4yM4GaJDx/azaDTabSh2ZWdnbz918uzSg/vCIE+0kNcTg/KPhZ+oyeLW939Q9MtpFvn5/JjlMX23qanpSih87Ex2RPiRiLmnIs8oJMcjgLayZgJnzp+E3Kyp0EiCgECAQOCPQCA7Kztr4oRpphy24vIxRQ4po/GuT99ewPZdW94xGIxecntyc3NLhrqN/OOWjPy1UOS2wNjYWFsRtniPsVOkH8vjWIyxw7psB0v/GpIV+/l9BY1Gg1QmWRNAczlcjsdMTzqcpi5lOCLXUdPsdTqCS2fQIU15aMw2gUCw6NbNuyGrV6xFVbKCl//9XPoAm7ds+mhpZVkzP7P2TywWD/3y+eu5ieOnKhy7Vp99eDU+vgZLTnS0e9JotEQouIAvAjeu3d66dvV62APascw2bN4aUjpm3MjVNBrtEBS7+UX81RcuRAWEbtqq8EUOj5etPn17A1u2b/rAZDJ7QLGXoCEQIBD4byDA4/FYs6bNtUxNhd543dgzAFz0IZ9mBNLJVySvWr4W+PD+I2rQBrr2B0K2BD9jMOgD5cKysrJy3cdNNUJbPonaOJgCzOngSuvzeWZmZsaKWPFYpKJIJ17HsVikUlRUVNG1U8+2374p3K+Glxuw5cYnRFeSSCQzAwMDhdUONQF0RgbraWjwlgEP7j+CrUwZDEOGDgLWBax5ZmXF/PXHiFSvSCQamJ6WfmnU8PGomiaR6lfE5zXfs8pjzoyTFhYW3vUE0FYikSium3Nv2IFnQ3qxaHwER/xQKBRVEokEqS5XKBSOjf746fis6bMRvQgowhDq8VNnI4VduznPpVKp16HwiMXiKS+evwrz9vRBNbEGiq76aMCSE18/nygmkzkZqQyCj0CAQODPQ4DL5SZ6ey50+PL5KyrjldV4N2zEUGB9wNq7Fhb0EXKDORxeuqeHl1VSErJ15HI5yl5L7uBgD0ScPJrBYJhbKwIf71Xeyvh6IPcRi1XeBQUFkr69BmpKxBJF0DWb44mp8d9JJJK2tra2QqNrAmgOh7P3/NmLPgf2hf01bwvGD49MW131vn4+1VOnTw5jMBj+MEyrl7SoqMjg58+fvA6OXVTQysKDPyx8v8DVbeAyLS2tesf18fn8mk1HlZXw3+jwaHwEa48vXjqbZ2au+O1cjpdYLO7K42U9QjqPGyvcHz27JzY3NxtEJpOjocgUCAS9uRze7WGDRzVJAL1y9dLKSVMmbjM2NkY3Cw+KswQNgQCBQLNBgMPmRC/xW9EFi+ywMhrvxruPBVatWn7RjG42RQ5iZibn01K/5Z0+foB0u2022Hfr3hXYvW9nnKUlw1mRUdnZ2Tnu46YYczkKy2cVifrXcWWO7QOV0xlg5v1CrqmpqQlsY/9myM3N5Q8bNEobHLCAxU8ZLxBgoz6ZTFYhkUjVimyuCaDFYvH0F89f7vf2XAg7I6iMGtvwiENCl/79FpPJ5LOKHIJyPDs7p3jcKHed5tiQ8eLNE7GBgf4ACoUSV58vHDYn3XveQquvX6CNAca78XHosMHAug2rnzFhfB0oLS01+HstOerGVSjnuyGa+ISYSk1NDXBlJ6TtBCUlJaaVlZVpndqhnyOOxO6/13gvIpPJ55DwEzwEAgQCfyYCmZmcZwHrAvs/ffIcEwewLIWrz6CZHtOBxf4Lw01MTObLj7NYmU83BoQMePwI2vQlKI4qI6ByG+QKBAavf8ZkWir8As7hcNPmzZlvnZjw2wAtKK4opFHW1wO5IY5ODsCxE0fSGQy6jULjGiDIzsrOnjh+qgmHw0Uq4hefMl4gWqu0BuK/Rlfp6OhAik1qAmiRSNSpoKDwmUtvV1R1wXjV2CoKKuGemYy0jGdbtuzof6+ZjYNr27YtEPv5fbW2tnZbEon0sz6/MjIyrhzcf3g81AkWeH8hWLVmeel49/EHzMxM1sI5D4WFheU9u/ZVRbNVEY6+urTq6mrAu+hXFfr6+rA2cBYVFlV069y7bUVFBRr1iHgfPrkjMjE1Ga6trf0OkQCCiUCAQOCPRIDD4V7bGrp97M0bkPq0m9zHhYsX/PCe77ldT0/v13OBzWZH7dm5f+LlS1cxsU8ZARVoqPvE8cCS5YsvWVhYTFJkOJvNjl6+ZFWXd28/KCJFdFwZXw/khvXs1R3YuWdbjIWFxa9JKnCN5nK5qZ6z59tg8UKhjBcIKpUCPHv1SGJoaAgpFq4JoGNjY1tbWFhUtLN3bvn9+3e4GDVKj7bGtlWrVsDX5E8/2Gy2aufOnRWm1KEYz+PxAu/fe7g0aMOmZjUODLwh7NyzLZHJtHRqyA+wCfLenfvBy5euhv21AAo2cGkuXjlb0r59O7CO+CYcXi6XlzHXw4uZlIiuHg6Oztq0Do72wPGTR1l0urkVHBlcDpc1x8PLMjkpBQ4bJrQJKXFVbdu2NUU7yhETYwghBAIEAkpDIDs7+9i+PQc9z54+rzSdaBStD1xTPnPW9AAtLa1dcjnZ2dl7jx057nc0/Dga0b94lRFQgcq8vOcC8+bP3WdqaqqwhJTN5tzfFBQ65P69h5j4WJ8QvL8eyHWCX5c3BKx9aMG0GILUGTabE73Mf0WX9+/QN6aCNuD9AmFmZgpcvRmVb2pqagTF51/zhNlsdtrC+X7W8XGfofDVS4NHjW3HTh2AQ0f2pVtYWCD+jFDXWKFQ2I/H5V0f4jayWQShcvsW+y/85j5xfKSVtZVPQydBIpH04HGz7rkNGNokdbh17YpPiPmmotLaWltbG9Z+cRaLdW/b5p1Db9+6i/h6Q8M4ctT/sXce4E0b7x8/OWFlWFI2CQlJIJDB3rTsslv2LJQNpcyWljIKhbJH2XvTsjelBVpGKavsUUYWYSRAINOS7AwIifXn8sP83TSJZVuyreT18/QJje/ee+9zp+irV+/dfYwmfjf+94oVK7Y3xs7Dhw+PLZy3uP2vR44aU83ssm5ubujkmWOst7e3Tc1ZszsGBoAAEDBIICUlZfaGdZsmrFi22uh1SvrGsQDBH90OHLp79t0799Gg/kMN+iG0wOJlC9Uff9Lua4qi3qtlhmG+2bl996zZM+cZ3MVIaDtYTFarXuX96b9S9GfqtMmZfft9+j1N0+8fBgryLy4u7qflS1cN2LVjj9Au2Gy5Pp/1xovWtwUEBAww1cnHjx+fmDFtdusTf5wy1cR/6kn5AIHTVjZtXRft7+8fLMTh9wI6Jubhtp82/9xr86afjFpcJ3WO7ZChA7MGDhmwNyioYn8hHRJSJjw8vCQ+pKR2jQb2rzIFbRwhxKzZZQ4c3qOqVr3qQKVSWeB7Ony+vEqlyqhVrb69KQsJzXZSz0BgYADas39Hol95Py9j7b548WL2nl37vlo4f7GjsXXFKD9h0jfpvfv0XObt7T3VGHsvXryYuX/vwXHz5iwUbScUIe3j12kLF8+/VbFiBYMLWYTYgzJAAAjIhwDHcWP37N4/Z/rUGSb/3ckrnnW91z9FWCwR/fOOzUy9+nX/tcMRwzD9/jz918rRI74U9Hq8oNGROi0xb7ur1i7nPmrZfAxN0wYPAEhISJi9dfO2b5cvXWmUjrLFmTj2q9HZ/Qf2/bFcOePSM/X7Ehsbu2PpohV99+4RfmiaNVk0avwBvs9eCQwMELRV7HsBjRcS/n3+0rLBgz43uFm4fgelnsxbtm5I/bDJB1+JtYBQ5/vDmIfXv586o85ff5615nj9q218AiHePoWiKKYwp2JiHv0zecKU6hcv/G1V33v27o5Gjx7xW6XgSh2NdYRl2e7Xr91Y16/PIKPmm7HtFFR++66tqXXr1fmCoqgDxtjEW/DdvvXPxj69+lvU7yFDB74ZPGzg9goVKgwxxl8oCwSAgPwJqFSqvufOXlg14vPRJr15LCjdQUcGH0r1ad+eaP6cH5EYedZH//iFCQwM6OTi4nJB1wbLsq3C74fv7da5t6zeoh38ZQ8TViWsF0VRBsOoLMt+ceSX3xZMHP+daOmhlt62Tzde8xfOSevcteO3FEWtM/UKevny5Y8b1m4et3bNesGHppnalhj1OnT6GE2eMuG3wMBAQZrmvYBmWbZCelr63do1Ghi1qEoMpwuzcfOfKxmOTo74XPJHYraF86D/PHnmy+8mT7OJi7lR4w/R/B/n3KtYsUI1Q/2MiYlZfPzoiWHz5iwQfCKhIZumfL92w2pVo8YNJ7m7u280tn5KSkpImjrtWoN6jU2OqBjbpn75K9cupDkpneq5ubkZlczMcVyQWq2+XbfmBxaNnK9au1zVuk3Lb5VK5RZz+g11gQAQkB8BLD7v3wvf272LaeLTkIA29L2xxP6+clbj7uFeV6lUvj/5RaPRhCW8TLjU+IMWoonL2fNmoO49uv7HvfT09PdpHcb6nrf8hUtn1F5lvT5wdnY2uLXG23tDp6tXrm3p12eQTZ4zYQyLbTu3Mg0a1hukVCqNWt+k3wbDMF/t3bN/1g/fzzL5Pm/JB4iBg/ujkaOHr/fz83u/e0xhzN4LaFzo6dOnL/r2HlA25sFDYzhLVhYfXbxzz88v/fz8BCV0G+MIy7K1U1JSzzRq0Ey0i9mY9vOWnTnnB7Z1q49W+wf6G0wpYBim2dO4Z4fatPzYquL/5p0rmU5OTtVIkjRpwiQmJqY3atjcQaPWmIPO6LrOSmd08fJfGZ6eniaJ4JcvX6o/atbWWZWqMrptUyu824mmJUVRN0y1AfWAABCQJwGVSlUtKSn5QrNGLU2+X+EUjuSklHxznXFeKd7TX6yTCO9H3X5jZ2fnQdM0qyPOMAyVk5OTXCW4pr0Yo6B7+40X7E2dLN3W+PhgDTs7O3f9vhTkf0pKSt2XL16ebNWivUlvCgxxscS2fTofTv55nPP2KdvKzc3tuiG/CvpepVL1uXD+4ipTtkg2tU1z6k2eMiGj34C+s1xcXOYLsfMvAR0VFbX35607umzd/LNZCxWENCykzKAhA94MGPTZ4eDgYIPbxwixl7dMXNzThP59B3lGRz0wpbqodf6+ek7t5eXZ3NHRMd/9n/M2lpCQmN6yWRuHlJRUUf0Qaqxa9apow6Y1cf4B/v5C6+QtFxPz8NbkCVNqXrxg2V3ZcJ7TvIVzbgcFVaxliu8xD2KuTJs6s/5fZyyT/lOqVCl0887VLFdXFweCIHJM8RnqAAEgIF8CGo3GPSMj41n1sDqC9qfNr6c4TWPY8MG5X21cvwWtWLYK5fc7cyk5ODigKzcuZHp4ePznbXZCQoKmaaOWThzLmdsMEjtqnp9DJEWicxdPp3l5eQl624sPasvJyXlSs2q90mZ3MI8BS23bp2v29r1rr+zs7AI8PDwEnZOQX381Gk3z+/fDD3bp0MOqwT6hY7FyzTK2TdtWXymVyp+F1PmXgGZZttudf+6u79W9r0XzOwtydO+BnanVa1QbTlGUOBtH5mkoKjJqy5Fffuu5dPEKkyKRQgALKYNXfm7+aX18+fLlBZ/4Ex0d8/vqlWta7dtzwCq5Rd9O+kbdsePHOwvbMcRQ32NiYlYd2HdoyPKlq0T/Y1NY21+OG/2qe8+um4OCgkYb8jG/7x8+fLjotyPHRiyYt8gi6U4NP8D7cc6/W6FCheqm+At1gAAQkD+BpKSkV/VqfVjq1SvzFr5LuYsBplyhQiDatW/78/Ll/XzzUo+NjY0ZOvCLivfvG8yGEDRguC/uHm7vdxURVMmIQlWqhKFNP6176O/vL3i706SkpMwGdRqXzsjIMKIlw0UttW0f9uTdQ9ArDw8Ps3ZMSUlJCeY47tqH9ZsJegAxREHqCPzBI3tVYWGhvYXku2Nf/yWgk5OTne3s7Nha1eorzL1IDYEw9D0+VOTW3avanJwcyt3dXZJ3/CqVqnFiQuJvzZu0NmtVsKG+GPr+++mTuRYtP9oRElJZsKDjOO7TmzdurejTq7+bIftSfP/nuROsr2+5jkql8v0iEWPbYRim072797f07NbHovli+w7uUlWtVmWwsXtX6/rHcVzbyIionZ07dLeI319+PeZV925dtgRVDhplLGMoDwSAQNEg8DTu6fPePT/zefzoiU13qHGTRmjugtnXgoIq1M/r6KOYRyfnzJ7f6vixP0TpQ96HAZ1RsXKg23/cFk2ZOulUhaAKrYU6HBsb92RgvyH+UZHv07+FVjVYzhLb9mEngkMqo5+2b4719y8fYNCpQgrwPO/0Ng+aDa1U3exAnyUi8Bcu/6VxcaEbuLq6Cjqg4l8CGnOIjn5wYdGCJY2stT+vbizwPr3jJ359sXLlSo3NGUBDdePi4p5/PmSkz51/7hoqKtn3V2/+naZUOjehafq20EbwxFSpVEzDuo3t1RbOIa4cXAnt2P1Tkq+vr6dQf/Mrp9FoPLKysuLDKtcQJSdOqC/h0f9klyxZ0sfUA0lwLh9CiAkJMrjeU6hLhZY7+MteLPgHKJVKy24+LYr3YAQIAAExCDyKeXRl8qSp9c+fuyiGOclsfNqnJxo1dsSeihUrfpq3kadxT5du+3nniFUr1piciqKziZX/UKEAACAASURBVCOyk6Z8i3bv3JebjiLFZ/TYka/7D+i71q+83zih9vFJx3Nmz2/+x+8nhVYptJzUO53l13jbdq3R1GmTz1QMqmjw+HJDnXz58iXbslk7MjXVvHRTS0TgIx7cycnJyaGFBm3/I6BTU1MHXb92c+HAfkOsEtnUDcZP2zen1K1Xe4Krq+tWQwNkzvcPHjxccPnvy0MmfvudVdJWmrdoimbN/SGiYsWKYcb2IzIy8o/NG39qsWPbLovmrE+ZNolr2arFnpCQEEErVQvr1+NHjx+MHvlV0K2bgp8djMX0r/K1atdEq9YsiwmsEFjJHEOPHj26N37cxCpinbBUmC+RMXcRQRAuhrY3NKc/UBcIAAHbJhAT82jHujXr++7cvtumHZ3y/aSMHr26zfPy8pqd11GGYQadPvXX4jEjvzQ7JxZHJKdOn4w2rtssytZ7+UFduWY507JV829omhasQ548ebJ85/bdX6xasVa2e0GP+XLkq34D+q7z8xP+4FDQpHzy+EnkiOFjgv+5fcfseStlBN7d3Q2dOH2M9fYRfljZfwS0SqXC6Qyp9es0srP07gg6uniXhKs3LuLFUq4uLi7mrzYoZNhYlg3Izs5+UKNKXXuxjzEXMlvwg0L1GlWnly1bdo2Q8vplOI77+PHjJ9vatepgkVQCXdvXb19Kd3JyakTTtOnHVr4z9ijm0arDh4/0X7RwqSg5UoYYjp8wTtOlS6dtFYIqCE6Xyc/m48exPx4/enzY7JnzJE3/ebe94d2KFSH/2dDYwvdAoCgTSExMnHD4wJFpP0yfZdU1O4YYb/l5I/PBhw3w2qX/nJ6hVqs/ePL4ydE2LT8xW0BjP/A2djVqVpcsB/rE6aNMQGDAJ0qlUvBKd4Zh+v915tzykcPHiL4ThyW27cNc125YyTRr3vQrmqa3GRpvQ9+be3qvpSLwtevUQitWLwuvUCGgiqE+6b7/j4DGX0RERB3ftnVbi5+2bjf7NYtQR/TLDRzU73X/Qf3PhIYGG3XMsilt/a+/kae2/7yj0dbN2yy6mM0/oDw6/OuB9LQ0jWtQUNBrU/yPi4t7MXzoqLJiPN0Jab9d+zb85KkT71SqFFRTSHlDZViW/SguNm5fm5afWOQh4MTpo6ry/uV7UhT1pyHfCvse58+/fPHy14+atRX9j6R+u7PmTGdatWm52t/f/3tz/IW6QAAIyJsAXjNy6+btLX17D7DI30pTaZ29cIrz9PJsnl9KIsdxLllZbxKrhpi/lV1hwkqsHOh7kbezS5Ys4UmSpOA9S1mWrfP8+YvTLZu1ETW4Yqlt+/C44zVOPj7ercTYNjUuLm7hnl37xi5dvMIqelLoPO7Wowv66uuxvwQFVewitE6+Appl2dbPnj3f06p5O1GeEoU6oyt36q/fGV/fcnglpDhJRAYcwPsqp6akHmnUsLnJe2wa20dcfu6CWaoGDertDQ0LHWlKfVwnJibmh7v/3B81asRYi6TcHD6yPyW0SshYkiRFe4/48uVLTduWHZwSExNNxSConqenJ/rj9G9pZcuWFSXa/fx5PNO5Q3fq+bPngto3pdDFK2c1bm6uLcT4Q2ZK+1AHCAAB2yCg0WhCkpKSr35Yv6kof7+k6lVkzF3tmzdvSA8Pj7T82nj+/HlSlw493J9J+HdTjL75+pZDh3/bn1yuXDkPY+w9e/asjLOzc0ZwxarGVDNY1hLb9umciHp4D2k0GgdfX99Mg44ZKMBxXN+zf51fOXzoSLP1pJQR+O+mTszo0q3Tj76+vj8I7XO+AhpXfvL4yZNvxk3wv/T3FaG2RCn3wYcN0OKlC2MDAgPMWv1prDPR0THXV61YXXX/3oMWeUry8PRAZy+c0mq1Wj83N7d4Y/3VlccL2rKy3iR83LZTKSmFHG6vbr3aaNWa5S/L+5cX9WCbyMjIIz9t2d7u563bJc3lHjCo35uBg/v9HhIS0slU3vr1IsMj9+/atbfDxvWbJZkzYWGhaMu2DUZtbyhGv8AGEAACtkeA53mFSqV6Xb1KHfvsN9m25yBCqLx/eXTg0O4EXz/fsgU5+CD6wYXZM+c1OnnitE32QedU6zYt8UK6i5VM2MggNjY2dnD/z8tHRBh10K1BHlJv24cdCA0NwfedOH9/08940O+IWBF5qSPw23dtVdWpW3sYTdOHDA7EuwIFCuhnz559GRkRNaV/38HuQo2JUW7bzi3JIaHBc3x9fZeLYU+oDRx1T05K3i/mMaOFtb1g0dyUevXrHA4JCflcqI8FlQu/F772xs3bPSeOnyzpq72de35O8fUrt7BSpUo/muuzfn2GYTrGPHi4tePHXSX1/9djh1RBlSoOomn6VzH8V6lU7WJj43a2b93R7Cfr/PyZPHWSpk3bltuDgyvD9nViDBjYAAIyJxAbG/doyMDPA8PvC9ply+K9xaLz+x++Ox8UFNS0oMbx+pFDBw6NWrRwqVl7DGP7Um5jN37CuMyu3buuDgz0/9ZYkDExDw+vWLaq8/694h5hIWV/dX3s0asbGjt21JGgykGdje13fuWTkpKcStiXUIdUqlag3hTSjtQR+EtXz+Hj5+s7OzsLfuopsEM8zxMv4l+kDOg3xOX+PXE2PTcECR8o8vP2zSpvH283giB4Q+XF/j4qIur8rl37am1Yt1HSRRrBwZXRngM7Mh0cHPyUSmWKuf1Qq9Vur169etq1Y88yDx8+MtdcvvU/bPQBWrJs4Yvy/uV9pGggPj6e6da5FxX7JE4K8wjnmx/8ZS/r4+Mjqth9/vx5Sq/un7k+koD7lRsX0yiKbEZR1E1JoIBRIAAEZEUgJibmyLLFKzsePHDYJv0e981XGZ/27bHGz8+vQNGJc7nv3L67pXfPz8wKmOhvY9e6bUuE1wHhI70LO7LcGGh79u1QVa9ZzaTzAlQq1ejjx/6YOX7cRNHuN5bYtg/z+XHJfLZV649+8PLyEi2IGRf3NL5Pr37ejx4+NmYI/lNWqgh86TKl0Y3bl7Pc3NyMeptc6BNBZGT09CePH48ePOBzi+TXbvl5Q0pAYOCqkJDKM8yibGJlhmFq5OTk3GjepLVdclKyiVYMV9u9b3uKl6fnqpCwENH6+eDBg1mPHz0ZPrDfUEneGPx+8tdUr7Je48uWLfuT4R4aXyIqKnrjqROnu82ZNV+0Pzj6Xkz5fhJejHcwOLjyMOO9K7jGgwcxa06d/LP3rB/miOp302aN0Zz5MyMrVqwYKqa/YAsIAAH5EkhOTh5/5PBvU6d+N13UBWpiEdm2c4uqXv26eAeOAwXZzMjIKPc2LzbG3OOu9SOSnbt2en8ioViRSnyUNUmSQQ4ODkYvcuE4rl788/gTLZq2EW2RuSW27cNjdubsCc7H16c1SZLXxJoXMTGPTiyY92Pro78eM8ukVBH43O1t1y6PCgwMCDHGQYMh9bi4uISvxoz3vHxJ2lxofFzxspWLEsuXL+9lTAfELhseHr4y9nFczyGDhhu1cECoH337fZr+xchhcUFBQUbv+2yojUePHj+ZO3t++WO//W5wXA3Z0v/+8y+GpvX5rFdEcHDwf06WMsZOYWUZhqmekZFxuXb1Bma/1suvnZt3ruCIf0Oaps3fjFKvAY1GUyVNk3a9ZrV6ou7g8vOOzclVqobN9PHxkeaEALEGDuwAASBgMQIsy7Z4GPNw/yftupgVvZXK4Wu3/k4vXbp0TQ8Pj5jC2nj+/HlCj66fej55HGuyK7qT6fDJjLdv/YMGDPoM/bx1B6pZqwaqVr0Kmjl9jsn7QwcE+qP9h3YnlitXzmQ9kpSU/OrD+k1LaTTiHaQs9bZ9zs7O6O+r5157eLiLej+Lj4+fduTwb9/M/GGOyRs1SBmB7zewb87nw4fsDQoK6mvMhDQotOLj4wcnJSYtbNe6o6QHjeAIp4enxwQfH58txnRAirIPHz6KXrd6g9+O7btEnUSBFQLQ0d9/0drZ2TUU8+lOx4Bl2Vbp6RlHWjZrU4ZhWFHQVK5cCf1y9ICW5/kaLi4u90QxWoCRyMioS2tXra+/b+8BhZjt9OzVXTti9PCrISHBH4hpV2crMjLq4ro16xvs3X3A7ONKsc3/bW+4Py07O9tDjFXQUvQZbAIBIGB5AnjRuFarTQ2rXEPUv5Fi9MTDwx39cfqY2tu7rMHo+IMHD46uWLr64wP7Ba/XytfFvFHohh/8L8aD7eJ0DlM/3Xt0RWPHjTpWqVKlT0y18fDBw2vTvp9R98yfZ0018a96lti2r8VHzdDMWdOvV6xUsZ4oTr8zgteYRUVG7+7cobvJD35SRuBXrlmmatX6o4kURW0ypt8GBTQ2FhERceXA3kOha1avl2T7nJGjhmt69O4WHhIS0tAY56Uqy7Jsba1We7Vv7wF2+MlWrM/vJ39VlSxRckVY1TDRUjfy+hZxP2LVy4SEHn17DxAlgo73TS7jUGZBpUqVForFoSA7eFFeUlLyrmaNWor22gu3dfbiadbDw72Pi4vL71L0geO4Ni9fJuxt1qilwRuHkPZ/XDI/tVbtGrvDwsLGCCkPZYAAECg+BJ48iX0ydNBwf1tbSJi7gHDad38HVQ5qZGg0VCrVF3+e/mv2mJFfSRqYM+RHQd+vXLMs9aOWzae6uLisM9XG48ePZ5/449SYGdNmmxx1NbVtU+vNmD2Nbde+zUo/P79pptrIr55arXZ9k/UmISy4hr05dqWKwJ+/9Kfa29u7qZOTk1GCT5CAxvtPZmVl3e3ZrY+92BdtWJVQtO/gruySJUtWM2b1ozmDIKTus2fPhmi1/LKunXo6xT83eZe5901t3LI+KSDA70KVqlW6C2nfnDKR4ZEXL1z8O2TalBkmP+3h9tdvXJMcWNH/QtWqVbuZ448xdR88iLm5ctnqsP37xNlOsEfPbq/HfDUqvFKloNrG+GFs2ZgHMTdWLF8Ttn/vAbPeWviV90NHfz/8muf58p6entJujG1sJ6E8EAACVicQHR2zZ8vGLT1+/mmHTUWhp82Yqmnfrs1y/0DDhz5pNJqw5OTUKx/Ua+xkdaD5OHDp2oU0d3fXBs7OzibvoJCamvpBwsuEY1IftiUmvz/P/sF6lfX62NXVVfDJi0Lbf/LkSdyQgcP9IsIFb3LxL9NSReApikTnLv6Z6enl6SC0L7pyggQ0LvzowaMvX2W9mt6qRXtaq9Ua206+5RUKBTp15jhTumTpGRUqVRBtxacoziGE7t27N6dEiZKj+vbuT8Y/f2Gy2ZVrliaHhYVGhoaFFri1j8nG86nI87zTw4cPrx8/dsJt3uwFJi0AXbJ8UVLNWtViQkJCDEYTxPQdp6EwDHOwYd0morztuHz9vIam6W4URZ0S08+8tliWbcmq2MMNzLwhrN+0OqlycKVtwcHBRm+dJGX/wDYQAAK2QYBhmH5/X7y8bOig4WYFSMTuze+nfmP8/ct3pWlaUM7C82fPk7t3/dQt9olpedB4tw38+aTt/3Zb0wmsu3fuo0H9h5rcPf8Af7yXdUo533JmL8hPSEhQt235iXNCgjixEKkW0WFYXl74oLGjGi8vL0ki5lFR0Xu3bvqpu609+H3UqgWaPmPq1UqVghoYO2kEC2hs+N6de7ufx8d/NKj/MLMnFra3ddvG5HI+Pn9WrV71U2Mdt1T5qIiomWUcHcaNHD7G6eaNW0Y16+DggLAg8vbxuR8WFvKRUZXNLJyQkOChVmv+unLpqueE8ZMFvyYrWbIkWrthVXJAQPnokNCQJtbYTvD+/fDjf54603DenIVmpXJMnjKB/ahVi8tVqoRZ5Ej48PDwY3+e+uuDubMXmOR38xZN0byFc16WL+/nRxCEbZ6UYOa8hOpAAAiYR4Bl2cD09PT7Ui24NsW7MmXKoOu3L2W7uro6EATxRoiNyMjoQ1s2be20/eedRkfS84pnXXv6CwtNFdH9BvTNGTx00K8hIZW7CulHYWWio6KPr1m9vvXe3fvNXh8j9bZ9PXt3RyNHDf8jOCS4nbn9zq++SqX67Mrlq8sHD/jc5Ac/KR4gps+cqm7Xvs0Kf3/Db07y9ssoAY0rR0RE/nX/Xnjo2FHjzMqxXbF6aVKVqmERoaEhzaUYLDFtRkdHD3NxcVm1ccPm9BVLVwvarqz9J+34qdMmp6WlaQ5Wq1ZtkJj+CLXF83yJiIjII9lv3tSf/v0slyuXrxZatVWbluiHGVPVr16/OhIWFtZfaDtil0tNTfXNynoTOWzwF443rpu2BXKdurXRxi3r0kuWLBHi6ur6TGwf87OHt2dSc+qIz4eOdL529bpRTeIHl3MXT2tKlCwxtFy5cvuMqgyFgQAQKFYE4uKePh/w2WCfqMhom+h3i5bN0cyZ04xafMaybM9bN2+v6dOrv+AAD+6soW3qxn41Gn3atyeaP+dHk3bh2LV3W2qt2jVHUhRl9t9hjuP6XL92Y/lnnw406U2w/uBKvW3f9l1bU+vVrzuWJMldUkwqhmHKv3r1KsrU7QuleoA4deY461POp4OLi8tFY/tttIDGDYSHR5x/8vhJ8NBBX5gUid60dV1yQGBAVFhYaBNjHbZWebVaXSkhIWEbQkTIlk1bS/x65FgZVarqP+683YAcDRk2KGXlijULN21Z94Cm6SPW8lnXbkx0zMjSDmV+wId97Nm1z/369Zvo5YuXiCAI5OtXDjVoUB/1+ax3qoeHu6ZU6VLfli1btsA9PC3Vl5cvXw5MT0tf3vqj9sqMjEyjmnVwKINO/nlc7ejk+KVU+1YX5FDii8TPMl5nrGnXqoMzy3KC/d7y84ak8v5+x8PCwqzysCXYUSgIBICA1QlER0dv37ljb7cNazdKsu2nsR2cN38W81HrFkv9/PxmCa2LdxQhCIKpGlILvXkjKGida9qQgDb0fWH+lShRAt2LvIV4nqdpmjZ7KyvcR4QQU6NKXfT69WuhaPItJ+W2faVKlUL/3M8N+ojS74I6GvskNnbYkBHl7929bzQLKR4gXF1d0JnzJzM8PT1NOjzPJAH9PxEdvgchovXE8d/RQqOEOCq4YNFcBiH+ZFhYWG+jCdpABbwP58uXLye4uro2VamY11lZWSUv/32Fq1u/Tin/8uXJlJSU+0pSudLLy8uo7VAs0bXY2Nghb9686VOmjEONhJeJKRUqBgalp6UlZ2RmXHd1dd3q6uoq7rmjZnbqzp07mzhW3alntz5GPb3vO7grhaSUR6pXr256IpwZvv/zz91Vb95k9e7WqZdrVlaWQUtzF8xKbdCwfkxoqG3sQmPQYSgABICAVQng0/wiwiM3d+vcy6jorVROX7xyVu3m5tqcoiij8hxjHsRcnjt7QYPfj58wyrXCThvEr/nxlrETx3+HDL11zdtou/Zt0HdTJ14JqhQk2o5gUVHRF5csWvbhr78cNaqP+RWWatu+jp0/Qd98O+5i5cqVGpvtZCEGYmJiNu7fe6j3imWrjF48KsUDROcuHdG48WPPVK5c2aQUW5MFNGYUHR09Uqkk558/d+HV+rUb3QtaXRkaFoKGjxiW3KRp49JqNTepcuXKa6QcJEvZTktLq56dnY23GiuvUCimZ2dnh7u4uAgPO1rK0XzaYRhmqUKhiCNJcpkV3TDYdHh4+IGU5JQmAz4b6v7q1atCy5cuXRr9vGNTspu72/mwsDDJdzspzJnw8IhNOdk5Xb74fJQL3ui/oM+qtctxKtNTpdK5qbe3d4ZBIFAACACBYk/gxYsXDqVLlebq1mpon55u3T8bQZUqol17tyX5+vp6GjswKYkpIy5duTzz8yEjjQqS4DSNYcMH5za3cf0WtGLZKpTf74z1Z8PmNSn1GzSc5unpttbYugWVT0pKGnjnn7uL+vUZZBMPO/n5uWP3Tyl169X5miTJ7WL1Oz87eMvXmAePdn3SrpNJedBiP0Cs37QmtWmzxpOM3f9Z1zezBDQ2EhMTo8zKypquVCr7paell7x1645i/579dgRCfI/e3bPxqUCOTo5ZarV6e8mSJWcEBQWppRwgS9tWqVSfKhSKjhRF2exCyAIm8hKtVvuMpumllmZmbHt37tz5ycHBscuUSdOU589dyLd6k6a5R1+rMzLSD1evXn2gsW1IUf7u3bszfH19p23Z9JNq+7ZdLgkvE3KbKVW6FOrcpUPmmC9HZ6enZ5yqXt1y2wRK0U+wCQSAgOUJREdFn1+8aFljMSKb5ng/euyIzK7dux4MDQ3uZ6ydtLQ0zzdv3ryoGlJLkZ1t/LrpvIvKLl+6avIOHPb29jh9Q1uiRAlvJycncbbNQAjhh52SJUsxTT9sUTI1n7RPY5mJXR6nMZz7+0xWVtZr2hJBnMTExPSWzdo6JCeniN0Vo+3di7z1xtHRMdCU49pxY2YLaH2PWZatgxDCifcL7ezsInier6TVav+hKOqG0T2TSQWO43rzPN9JbgKaYZglCoXiGUmSNi+g8VRITU3tqdFolsY/f1H61yNHnZ7GPSuJf+9X3jerY6dP0nzKeb9ydnYe5+rqavbCDzGnnlqtDn769NlsNze3Nq9fvyYIhAgnZ6fSqlRVmpu722yKon4Usz2wBQSAQPEgkJSQNOTmrdsLBvUfatXI5onTx5jy/n49KYo6bQr5qKjoC8uXrGx0+JB1lwt16doJffn1mIvBwZVFT2OIiog6vHv3vlbr1240KdcWc5Vq277Pvxia2fvTHidDw0L/tx+gxJ+oqKhjG9dtbrtzxx6jd18R07VmzZui2fNm3K1YsUJ1U+2KKqCxEwzD3Le3t+9lzgbkpnbGGvWwgMbrGkiSlFsEerFWq42naXqJNbiZ2qZGo+n2/Hl8b1dXlyY8zxMqFXOuXDmfPc7OzjaVv51f/xITEys4Ojo6OTo6RnAct4/n+W00TR82lQXUAwJAoPgS4DjORavVptSqVo/IzCw8vU0qShUqBKK9B3eqypUrZ7KIZ1m21/274au7d+1tsg0x+nfg0J7UKtXCRlEUtVcMe/o2GIZplpSYdLipiafsSrlt39kLpzhPL8/OQvfvNpcNwzBdIyIiN+A1QsbYEvsBYvmqJao6dWstqlChwjxj/NAvK7qAZln2Cc/zzWmaNm13dFN7YqV6+OJHCHWhKEpWiyI5jpOlgNYNM8MwP+B/0zSd+1NuH5ZltygUigtKpXKr3HwHf4EAELANAlFR0X+uXbW+8d49+0tYw6NvJ33NffxJu4PBwcFDzGk/Pv4l26NrL7Kw9SLm2DdUFy863H9oL+fjU9akPfwN2cffP3z4KGbKpO8rnjubfxpiQTYM7SpizrZ9TZs1RnMXzI6pUCGwkpA+iFGG53lFYmKipl2rDg4v36U1GrIrxQPE/ajbbxQKRUUXF5enhtov6HspBHSyQqEIUSqV1k9wMZWKEfXkKqAZhllsZ2cXr1QqZRWBLioCGqfQIISey+0NgBGXBhQFAkBAYgI4mvcg+sGGTp90NyqaJ5Zbl66e07i6ubYkSfKaOTajoh6sOXf2XK/pU2eatLjMnLZx3Rmzp6maNmu6Nzi40khzbRVU//Hj2NFPHj+e3rf3AKMWTBoS0Ia+L6w/u/ZuS64YVOEHPz8/i27sEBUVvefg/kPtVy5fY/DEYUP9M+UBolPnDtpvJozDpw9+YM54SyGgMzQajauvr69xm/ea0wsr1sWbwb89pBEfFY0j0bL5sCy7iOf5lzRNL5aN03qOyj0CzXHc9wihEiRJTpMjf/AZCAAB2yDw/Nnz1L69B7hERz+wqEPNmjdBc+bOjKoQVCHE3IaTkpKCFApFeM2q9UoYsye0ue3i+njv59v3rr3RarVhHh4eMWLYLMjG8+fPUwf2G+py/164Uc1IsW1flaph6Kftm8xKvzGqE3qF1Wp144SXCb81+fAj0pANQwLa0Pf52d9/aHdKtepV8aExuw21X9j3ogponuftOI7LoijK7GMrzemUJeuCgLYk7f9vS+4CmmEYvP1hJZqm8U/4AAEgAARMIhAeHrni6pWrfb+b+L1Fo7fbdm1NCQysMKtixYAVJjmep1J4eOTv+/YcaLx+7QaTF9qZ4sfwEZ+n9+zd/UJYWIgkR1jr+xQdHTMjOipqxOdDRhp1CJ0U2/at37Q6pXKlSuuCQ4NxMMfiH5zSMnnC1IoXzhs+AFDMB4i3EXe098Au1sfHW9Cp0hYT0CqVilQoFE8pijL4VGHx0ZKowXcCujtFUTgSLZsPy7J494dEiqIWycZpPUflLqA5jvsMIdSGJEmjt36S43iBz0AACEhDIDMzs3xmZubjOjUaKjIyLLMndIWKgejAoT2a+BfxrnXq1BF+jGAhCFJSUupnZmaeqVvzAwdpSOVv9frtSxllypRp4ebmdlXqdsPDw0tSFJU4sN9QypTT+MTatq9qtSo4+syyLOsZFhZm+LQvCcA8evTkq0cxD6f0/2ywwZQWMR8g5s6byTT4sP6u0NDQ0eZ2S9QIdHp6undWVtYNmqa9zXVMLvVZlu3x9mDGHiCgLTtichfQKpXqE4IgvqBp+hPLkoPWgAAQKGoEIiKiDv/6y6/Nly1ZaZHg1aKlC1Lq1K2zIzi40jgxWUZGRJ7av+9gvTWr1ivFtFuQrZGjh6t79Ox2LSQ0pJUl2sNtRERETX0RH//lZ58ONCgcpfJp5+6fk8v5+SyrXLnyXKnaMGSX53n7hISElF7d+5IPooVlzpj7AOHs7Iyu3fqbRwgF0DQdZ8hHQ9+LKqA5jgvief4YRVEWW9FpqINSfy9XAa1SqX5UKBQQgZZ6ghRgX61Wf8jz/AKSJBtZyQVoFggAgSJCgGGYGq9fv75cu3qD0jk5OZL2qlw5H/TH6aNvsrOzy3l5eSWJ2Vh6enrNtLS0Kx/Ua1oyPT1dTNP/seXo6IguXTuX5eTk1MDR0fG2pI3lMf748ZPY6d/P9Dt14rSoGkxIH1q1aYlmzJoWFxgY4C+kvJRlHkQ9WHDn7t1BY0aOMyqlxVSfJk4az7T9uPXpkJAQGbHcJwAAIABJREFUUTIGRB08hmFqvj3bYgtN0/hnsfiwLIuPjO5FURSORMvmw7LsQoRQslwP8pB7BDo1NTVMoVDso2k6TDaTBhwFAkDAZgmEh4cfPXb0j0ZLflwmaRR68bKFqTWqV9sXVjVMkh0r7t+9v+va9Rutv5v4vaQ7i8xdMCu1Xt06J6tUq9LH0oOqVqs7JiYmbWvcsLmkY5Vfv85fOqMmSeVAT09Pq59BgNN+32S9ie/etbdjzIOHkg6Ds7MTunLjYjbP89Xc3NwixWhMVAGtVqsb8Tw/jyRJ0U/yEaOzUtgAAS0FVcM25S6gcbpTdnb2dZIkfQz3FkoAASAABAongE89zc7OjmjaqCWRnJQsCS6cO7ttxxZNqdKlfF1cXDgpGsEHxGSkZTz+fNhI8vo1aQ4xrluvDtqwcQ3n4OQQSJKkSop+GLJ57174sYsX/m4wY9osiy3+nD5zamqTpo2vhIWF2kzqYHh45LzHjx4NHTZ4hKQpLT/M/J5p1PiDE1WqVhHt0DtRBXRqampbOzu7ryiKamto8hSV7/HJeDk5OZ9SFIUj0bL5sCy7QKFQpCiVSlkeJS13Af3ixQuHMmXKpNA0bdEFM7KZoOAoEAACRhOIiIhYExkR1W3UF196GF1ZQIUDh/ekeHl6LqxYqaKk943Y2NihaWnpC1s2a2v2Tgn5dev02T8YJyfHCf7+/psEdFuSImq12k2tVj/45quJ9Lmz5yVpQ99o02ZN0OJlCxilUlnJ1s7piIuNezn+60leQnbkMAVUpcpB6MDhPa8Jggh0d3d/YYqN/OqIKqBZlu2GEJKdmDQHplz7jAU0QiiVoiicyiG7j9wFNAbOsuwrhmGogIAA65zDK7tRB4eBABAojABemPX06dO4qZOne586+aeosAYM/Cxz8LBBMZUrV6ouquECjN27F3705o2bDSZ9O0XUVI75P85JrV2n9pWqVcOsHoVNSUnp/Crz1Y62rTs4piRLd/acm7sb+uPkb+kKpBjg7et90BLjZ0wbCQkJfVJTUld/1KytJCdB7j2wM7mst9fKSpUqzTLGL0NlRRXQHMf112q1H9E0PcBQw0XleyygeZ7vQ9M0fniQzQcEtPWHiuO4l3Z2djWdnJwSrO8NeAAEgEBRIJCQkNDxzZs3uz5q2tZRrVaL0iW8d+5vxw8jgiDqUBR1UxSjBoy8XWRd5smTJxHr1250/XnrDoMn1gnxacCgzzTDRwxLDQgICCUIwiYOe7tz597yjLS0Pl069ZQsheHwkX0pzqTzjipVqoi6a4oQ5kLLhIeHn/zrz3N1Zs+cJ+pbh0FDBmQMHNTvUeXgytWE+iK0nNgCGi8qCCNJcpRQB+ReDh+lShBEX4qi5Cag5yOEGIqicCRadp8iEoGOzM7O7irWggbZDSI4DASAgCQEwsPD1758kdD1s08HipLK8cepo6oyDqUXVa5ceZ4kDhdgNC0trVqaJu3SpAlTHP/4/aRZTbdt3xrNXzAn3cnZ6QMnJ6e7ZhkTufL9++G/Pnr4uP7woSNFGS9999ZvXJMcWDHgatWqVTqI7Lao5tLS0jw5lov4dvxk+szpv0TRpjhnf++BnTkEQdSmafqOqA6/PQJeFCd1TrEs+y1CyJ2iqAliO2qr9kBAW2dkioKA5jjuEkEQ3yiVysvWoQitAgEgUFQJhIdHXrxy6XLwlMnTzUqB2LhlXbJfeb8L1atXtUqQiGGY5jk5OX9MnjCV/+3XY6VMGa8OHT9+PW/hbMLOzq4tTdN/mWJD6joR4RFnIyOjQkd98aVoW7qtWb8iKTgkOCI0NKS51P6LYZ/juPaZma8Ode3Yo9Tjx0/MMon3fD524ghnb283JTAwcLVZxgqoLKqAZhhmhkKhyCFJcqYUztqiTbVa3UWr1fajKKqrLfpXkE8sy0IE2soDxrLsca1Wu8rFxeW4lV2B5oEAEChiBBISEhw1as21kydPe8z6Ya5J6QErVy9NCqsSFhUaFtLUmng0Gk0TtVr965ZNPylWr1xnVDrHqDFfaAYPHahVKpUdnZ2dpV+tZwaoiPsRJxISE2t+PnSke5omzWRLTs5OaMPmNcme7h7/hFUNa22yIStUvH/3/vclSpb4pluX3qSpeeEEQaDDv+5PcXB0OFitWtUvpOqGqAKaZdlFPM+/pGl6sVQO25pdhmG6EAQhRwGNX8VxFEVhIS27TxGJQO9ECB0jSXKX7AYAHJYFAZZl8S4DQ3iej9Dfc5xl2dMIoY8QQpspihqq6wzLsi0QQtve/X9/iqLO6P3uD/2ysgBQzJ3EW8IlJCScvXnjdtmvv/xWsIh2cHBAazesTPYtVy48tEqoTUQvWZatkJiYdCDhZYLPzB/muIffjyh0dMOqhKJpP0xJ9irrFe/p6dGdoqhHcpgOd+7c2+Ts5Nhz0oQpzufPXTTa5SZNG6N5C2drMjIy9latWmWY0QZsoMK9e+GL7OzshgzqN4SKi3tqlEc48rxt59ZkZ6XTqSpVwvoaVdnIwmIL6HUIodsURa030g/ZFscCGiHU/21+Df4pmw/LsiCgrTxaLMuu1mq1ES4uLpK8XrJy96B5GyDwTkDjU7fwFk5fkyS5XU8Q4z3ICxLQ778DAW0DA2mGCzzPExERUb9otTmNp0+dSV/6u/CMsbbtWqMfZn6vSU9L3x9WNWyIGU1LUjXyfuQ00oX85v798KwD+w653bp5G72If4l4nkfePt6odu2aqHuPrilVq1UpyarYxSFVQmT3RjwpKanH69ev19y++Y9i4fzFLg8fGtb+eKHnxMnjU2rUrI6ys7PHBgQE7JZkACxk9P7d+zNc3V0nTBj/XclTJ04rhDSL9/desmyhOjMjc0+1GtWGC6ljThlRBTTDMNsVCsUJkiR3mOOUnOoyDNOZIIgBFEXJTUDP1Wq1GhcXF4suChFrbItIBHo2z/OZFEXNEYsL2AEC+gTeCei2PM/jQy8O0jQ9jWGYmQRBDEYI4XzSIziqzDBMOEEQWFnhtyE4Ap2IEPIkCGIyz/Px734HEWgZT68HkQ8+L+VQekZsbJz9np173fAhJfHxL5CdHYF8ff1Qg4b1Ud9+n6bSLi5smRKlxnv7ef9iq93led4uNjZ22NuDY3o6ODhUc3BwcMGv7dPS0pmMjIy7pUuX2uvr67uRIAhpzzWXEFB4eHhJBVLMo13ozyMiIl//9usx8uaN2/bxz+MRPuYcH0VeztcH1axVA3Xq3CElOCS4dEpK8maFQjEhLCwsS0LXLGZapVK112g0W25cu2m3bOlKt4JOK/T2KYtGjRmhav9x25JarXasj4/PVks4KaqAZln2EM/z22matvoRkZaAh9uQs4BGCGkoigIBbanJkqcdlmXHI4S8KIrCP+EDBEQnoCeg4/C2XRRFtcTpG3iLMIIgyiOE/iWK9aLNUXrOzAUBLfrQWM3g8+fPB2SkZ/RzcHSs6eTkSOPIbXpaenJGZuY1Ly/PTUql8ojVnDOx4aIQUCmo6zzPK9Rqdc+EFwl9yziWqeHo6Oj55HEs5x9QnsxIz0h89frVLTc3tz00Te8lCEJrIkKbrXbjxo0SSiflXCel0+fPnj7P/vvipZKpqalOJexLolKlS2Z88GHDVyGhwY6qFNUO73Lekyx5SIzYAhrvM/MjRVGnbHY0RHZMrVZ34nl+EEmSnUU2Lak5lmXxTREEtKSUCzfOsix+PdoQ8kqtOAhFvGmdgCYI4gDP8x3eRul+eCuYfni7rdNvPM/j01MLE9BzeZ5fiRDahHeLyVu2iKMrFt3jOG6pVquNo2l6mZw7XJQFdH7jwrIsT1GUqPpNDuOvUqna4Yf80qXLfEIQyCkzM/MQTdNnKYo6RhCExaPuog4Ax3F/Z2dnf+vq6npJDoMhho8Mw3RSKBRyFNA4bSCdoigspGX3KQp/MN+dYtlHbnuIy26yFGOH9QQ0TsXAwjmc5/mwd0Iav30qUEC/i1bjRYh4ERlO94AUjiI2l96ehLpMoVA8IUlyuZy7VhTuB8bwL64CWseIYZivEEL+NE3jn1b7iCqgWZa9g7d0c3FxsalNyqWkq1arO+bk5AyhabqTlO2IbZtlWRDQYkM10t671+VTKIrCuyHABwiITkAnoPFCZ4TQdwihGjzPJxIEMSa/tAz9FA4soLFD7/KjQ/MuOBTdWTBocQIcxy3TarVPaJoGAW1x+qY3WNwFNMdxX2q12oCiJqAfIoTayGW7GNOn7//XZBimo0KhGEKSpKwENMdxs3NycjJdXFxkuYCtKEQcWJathV+PUxSFf8IHCIhOQF9A8zzf7G0e9ESE0Ha9xYK5UeV8FhFG6QlovOgwtx6kG4k+RFY1yDAMFs6PQUBbdRiMbry4C2iGYb5UKBQBJEkWqQh0gr29fXUnJye8grtYfLCARggNpWka/5TNh2XZ2Qgh2e4AUUQEdABC6E+KogJlM3HAUSAABIoMASygFQrFI5IkV8i5U0XhfmAM/+IuoDmOG6vVaivQNP2lMdzELit2CocmKyurrIeHh+lH6IjdQ4ntqdXqDjk5OcNAQEsMOo/5ovAHk2VZGkd/KIrCP+EDBIAAELAoAY7jlr9Nu3xE0zQIaIuSN68xENDc2LdvxCqQJFmkBDQ+Y76ZeVMDagOBYkXgLEmSLQiC4ItVr6GzQAAIWJ0AwzArFApFDEmSeLcV2X6KQkDFGPjFXUAzDDNWoVAULQFtzASAstYhgC883DLP87MVCsVrkiRxKgd8gAAQAAJAoJgRAAEtzwEv7gKa47gxWq02iKZpHIm22kfUFA6r9QIaFkwABLRgVFAQCAABIFCkCXAct0Kr1cbQNA0RaBmNdHEX0AzDjFEoFEEkSYKAltG8lb2rOgFNEMQsrVb7hqbpWbLvFHQACAABIAAEjCbAMMxKhUIRTZLkKqMr21AFSOGwocGwgCscx43WarWVaZrG23Fa7QMRaKuht07DehHoWQqF4g1JkiCgrTMU0CoQAAJAwKoEOI7DkWcQ0FYdBeMbL+4RaBDQxs8ZqCECAb0I9EytVptD0/RMEcyCCSAABIAAEJAZAYZhVikUikiSJFfLzPV/uQsRaDmPnvG+q1Sq0XZ2dpVJkoQItPH4oIapBPQi0DMVCkUOSZIgoE2FCfWAABAAAjImAAJanoMHEWhulFarDaFperQ1RxBSOKxJ3wptg4C2AnRoEggAASBggwQ4jluVk5MT6eLiAhFoGxyfglwCAQ0CWkbTtei4qpfCMUOr1fI0Tc8oOr2DngABIAAEgIBQAizLriYIIpwkyTVC69hiOUjhsMVRkc4nlUo1ys7OLoQkSYhAS4cZLOcloBeBnqFQKHiSJEFAwzQBAkAACBRDAiCg5TnoEIHmRvI8H0ZR1ChrjiCkcFiTvhXa1hPQ5/B5KjRNN7eCG9AkEAACNkaAYZiBT58+ne7n5zeDpumfbMw9cEcCAhzHrc7JyQl3cXGBCLQEfKUyCQIaBLRUcwvsFkIADlKB6QEEgEBeAsnJyT+qVKrPVy5foxzz5Ui1i4vLBnd392+BVNEmwLIsFs73KIpaK+eeQgqHnEfPeN9Zlh1BEEQVkiQhAm08PqhhKgGdgEYIzUMIaSiKwj/hAwSAQDEkwDAMxbHcoYiIqFpfjfmaVKs1SKl0RstWLuFCQ4NvkRTZlaZpthiiKRZdBgEtz2Eu7hFoLKARQlUpihppzRGEFA5r0rdC23oCeiFCKJWiKPwTPkAACBQzAhzHNVCr1Qf37jngsWjBEvu83R8/8evsXr27JymVym4kSV4pZniKRXexgNZqtfdcXFwgAi2jEQcBDQJaRtO16LiqJ6AX8zz/kqbpxUWnd9ATIAAEhBDA+c4EQWydPHEqOnzwSIFVunTrhOYtmI14nh8EedFCyMqrDMuyWDjfoShqnbw8/7e3kMIh59Ez3neWZb9ACFWnKApHoq32gQi01dBbp2G9HOjlCKFYmqaXWccTaBUIAAFrENDlO48d9bXyzj93DbpQvUY1tGL1EsiLNkhKfgVAQMtvzLDHEIEGAS3PmStzr/UEND7CNZokyVUy7xK4DwSAgAAC+eU7C6iWWwTyooWSklc5LKC1Wu0dFxcXiEDLaOhAQIOAltF0LTqu6qVw4Fd3sl99XXRGBnoCBKQjYCjfWWjLkBctlJQ8yrEsi4XzbYqi1svD4/y9hBQOOY+e8b6zLDscIVSToiicymG1D6RwWA29dRrWE9AbEEI3KYrCP+EDBIBAESUgNN9ZaPchL1ooKdsvBwLa9scoPw8hAg0CWp4zV+Ze66Vw7CQI4i+KojbLvEvgPhAAAgUQMDbfWShIyIsWSsq2y4GAtu3xKcg7ENAgoOU5c2XutZ6AZhUKxTSSJFfKvEvgPhAAAnkImJPvLBQm5EULJWW75TiO267Vain8NtJ2vTTs2dtgUFOEUDPDJWVTQoMQ2l2It58jhOrIpjciO0oQRBeEUHmSJPuJbNooc5DCYRQu+RZmWZZGCE189x/elipeoVBMIklyh3x7BZ4DASCQl4BY+c5CyUJetFBStlcuOTnZ297eHoux3I9CoeC1Wq3sdIFc/S5oRhAEMR1vM1vYjCEI4oXtzSiLeUQRBDGTJMltFmsxn4Zkd6FYE5Yc28aRKIIgsHD+BiGUgxAqjftBEMRxhNAOkiQLe8qVY5fBZyBQbAmIne8sFCTkRQslBeWAgGECxT1FwzAh2ygBAto2xkESL1iW3UIQxGc8z78XznoN7Xt7FOZBiqLwT/gAASAgcwJS5TsLxQJ50UJJQTkgUDgBENDymCEgoOUxTiZ5yTDMdoIgPkUIZSGEyuiM8Dx/lyCIGJxjRVHUQZOMQyUgAARsgoAl8p2FdhTyooWSgnJAoGACIKDlMTtAQMtjnEz2Uq1Wu2m12gkIoXEIoTdYSBME8Yrn+cs8z6+gafoXk41DRSAABKxKwNL5zkI7C3nRQklBOSDwXwIgoOUxK0BAy2OczPZSrVa7vhPSEwiCyOJ5Hu/CMUSpVB412zgYAAJAwOIErJXvLLSjkBctlBSUAwL/JgACWh4zAgS0PMZJNC/xhUkQxFKtVjvs7Srf4S4uLrtEMw6GgAAQsAgBa+c7C+0k5EULJQXlgMD/EwABLY/ZAAJaHuMkmpf4wiRJsiTHcSfe7sgxn6Kok6IZB0NAAAhISsCW8p2FdhTyooWSgnJA4H8EQEDLYyaAgJbHOInmpZ6A/h0hNI+iqD9FMw6GgAAQkIyAreY7C+0w5EULJQXlijsBENDymAEgoOUxTqJ5qRPQLMueemv0B5qmz4pmHAwBASAgCQFbz3cW2mnIixZKCsoVZwIgoOUx+iCg5TFOonmJL8z4+PhS3t7ef9rZ2U1WKpUXRTMOhoAAEBCdgFzynYV2HPKihZKCcsWVAAhoeYw8CGh5jJNoXuoEtI+Pz1mFQvGNUqm8LJpxMAQEgIBoBOSY7yy085AXLZQUlCuOBEBAy2PUQUDLY5xE8/JdCkcpjuMuEAQxhiTJa6IZB0NAAAiIQkDu+c5CIUBetFBSUK44EQABLY/RBgEtj3ESzUs9AX0JITScoqibohkHQ0AACJhNoKjkOwsFAXnRQklBueJCAAS0PEYaBLQ8xkk0L3UCmmVZHHkeSNP0P6IZB0NAAAiYRaCo5TsLhQF50UJJQbniQAAEtDxGGQS0PMZJNC/xhZmcnFzazc3tBs/zfVxcXO6JZhwMAQEgYBKBopzvLBQI5EULJQXlijoBENDyGGEQ0PIYJ9G81Alod3f323Z2dt2cnZ0jRTMOhoAAEDCaQHHJdxYKBvKihZKCckWVAAhoeYwsCGh5jJNoXuoJ6LsKhaKDUql8IJpxMAQEgIBRBIpbvrNQOJAXLZQUlCuKBEBAy2NUQUDLY5xE8/JdDnRpjuPCEUJtKIp6JJpxMAQEgIBgAsU131koIMiLFkoKyhU1AiCg5TGiIKDlMU6ieaknoKN4nm9O03SsaMbBEBAAAgYJQL6zQUTvC0BetHBWUFK+BDiOS+B53pPn+Rc0TfvoBDTHcfE8z3sjhBIpivKSbw+LpucgoIvmuP6rVzzPEwRB8PiXOgHNsuxDrVb7gaur67NigAC6CARsggDkO5s2DJAXbRo3qCUPAgzD1CAI4nZB3vI8XxN2zLK9sQQBbXtjIqpHLMveRQhVRQjdI0myOsdxWoZhytA0rUYIlUAIRVEUFSJqo2AMCACB/xCAfGfzJgXkRZvHD2rbNgGGYTQEQTjl9ZLn+TSapp1t2/vi6R0I6CI+7gzDlCcIosA0DTs7uyrOzs44Hxo+QAAISERAqnznTp07oGkzpiBHR8d/eZ6YmIQmjv8OXbl81aQejf1qNPq0b080f86PqG79Oqhxk0Zm2TPJiXwqQV60WCTBjq0RSEtLq5Gdnf2fKLS9vX1NJycnOK/B1gYMIQQC2gYHRWyXGIZ5RhBEuXzsQl6V2LDBHhDQIyB1vrNOQP9+/ASaOnl6bssNGtZHCxbNRY8fPUGD+g81aTz0BfSRX34zyYZUlSAvWiqyYNfaBFiWxW+G30ebIfps7REpvH0Q0LY9PqJ4p1Kp/BQKRVxeYzk5OR8qFIpggiB+5Hl+Dk3TS0RpEIwAgSJCgGGYwdnZ2fvd3d01xnbJEvnO+Qlo7OfWbZuQu4cb+qRt51y3Z8+bgbr36Jr7b/3odN4I9sOHj3Lr5BeBvnr5Gmr3cRtUogTO/PrfR2fL09PjX5FwnR1jmRlTHvKijaEFZeVAgGGYmgRB3NL5yvN8LZqmC8yNlkOfirKPIKCL8ujq9Y1l2acIIV+9CxP/85lCoXDkeZ4uWbKkv4ODAy4DHyAABBBC79Kf7vM8zysUisVZWVlLhAppS+U7C4lAYzE8YNBn6OetO9C1q9dzo9MajQbNnjHvX5Fq/XJ4AhhK4Tj6xy8oOSkFrV+7sUA7K5atknQuQV60pHjBuBUI6EWhNRRFKa3gAjQpkAAIaIGg5F4sbxSa5/lMgiDKIISyEUIbKIoaJfc+gv9AQEwC7wT0uezs7Hb29vbjeJ7vLURIS5XvnF/fCsqB1o8A42h0YIWA9znMOBqdX04ztjVpyrdo9859uU0VJqCxeMYfXYRb3zd9O1ILaNwu5EWLOevBlrUJpKen18zOzr5ub29f19HREaLP1h6QQtoHAW3DgyO2awXkQue8fv3ax9PTM1Hs9sAeEJAzAZ2ApijKH/cjJSUlBAtphFAvgiCW5I1IS53vXJiA1uVA60eRdeIVC+iGH9T/V/X09HQ0c/qc3AWCutQOXODNmzdo4/othQrovIIcF9ZPEdG3YwkBjduDvGg5X2nG+c5xXPvUVGacg0PpBqVLl/7PrhXGWYPSlibw6tWrtIyMV1dcXemlJEket3T7YrYHAlpMmjZuKyMjwzcrK+sxQRA5PM+XQghlIYRWUBT1rY27XuTdY1n2NM/zZWmaDsvbWYZhZhIEMREhlIwQ6k9R1BlchmXZFgihbQghd57nF9A0Pa3Ig7JgB/MKaF3TWEjb2dl9TRBETyyklUrlErVaHaZWqw/u3XPAY9GCJfaWcjO/FA4scKtVr5IrkPECwLz50Drf8tYVEoH+pGP7/0SvC7NjKQGt6xPkRVtq5lmnnWfPnm3TaNI6rV65Vnn+3EWUnIT/JMJHTgTcPdxRk6aN0KgxI9TOzk5HfH19+8vJf31fQUCbMHLwBGwCNBuqYmtPwFg8I4Q+4nk+ohAB/RV+4OF5fo1OKL8T1iMRQiV5nl8mpYBmWfYvhFAzGxpGS7mSSlGUW36NqVSqj3FKB8/zV58+fdrk+tWb/lO/+99OGJb6GJsDjQUtTr9wdnZGRw7/hvr264100WsstOvUrVVgBDo6KhrVrlPrvTAvSIjr27G0gMY+zZ47A9VvUI/19StHWWocrNjOWYqimluxfYs1jcXzjas3O434YgzkBVuMurQNrV23Ul2nfm3ZimgQ0EbOj6LwBPzNt+PQoCED0IZ1m5A1bnBGIhe9uC09ATMME04QBMnzPN4lhdIJ6HfieARBEF9rtdoggiBGIITwIk+GoqiWGMo74U0jhPzeHgO7VmIBzVMUVaz+XhQWgba3t/8aIWSTEehcETlvBsLiGqdj4GtcP8VCl76hi07r0jtu3/oHeft4owvnL6KkxOT/5ECnpqSi0LB/n7mks9W5a6f3aSL6dnRb64l+ERdgsLhFoHVHPluKr7XawUGr+PgXu1s0aQ3i2VqDIFG7Z86fVPv4eH8qx3SOYnVDNHf8i8oTMEVRaOac6Wj8uIkoKwtncRTfj608AQtI4cBi+jLe1gincbwbsY0IIRwZ7gQCWvw5XEAO9HvhbAs50OL3Wp4Wi2sOdHER0I8fx55a/OOSlgf3H5bnBAWvCyTQrUcX9M23X58ODPRvJTdMIKAFjhg8AQsEJcNitvAELERA4/QNgiBGYrGMMRME0Zfn+VUEQXwHAlr8iacT0HZ2du1ycnIKFM55W7bkLhzi91p+FovzLhzFRUAnJCRoWrVo7wQ5z/K7Pg15jN8InzpzPM3Ly0t2x5WDgDY0uu++hydggaBkWMwWnoCFCOh36RyTcCQaIeSPFx0qFIr5PM8vAQEt/sSTwz7Q4vdaXhaL+z7QxUVA434GV6wqr8kJ3gomEPXwHpJjiiAIaIFDDE/AAkHJsJgtPAELFdA8zzdFCOFFQ3gXlT8IgjgHAlq6SWfrJxFK13Pbt1zc8p3zG5G8ArqgvyMF7djDcVw/nudXI4TwEdLvd/ixtdEHAW1rIyKuPyCgxeVpc9bgAra5IRHVIWtfwEIF9LsFhXhLu9cEQeQefgMCWtSpIKoxa+wNLWoHbNBYcc13NiSg3y1IDs1vNx89AV0aIfSP3kLkTW9PpB2CEIoHAW2Dk72YuGTt+6+pmCECLZAcCGiBoGRazNoXcF4Bnd8uHDiFg+d5fKPbxvM8h3fseBdBghQOG593kBctzgAV53znwgT0ux0TZlaUAAAgAElEQVR5Ynmeb4jL6Xbzefd7/Ku57/5uxBEEUZqiqNr4l1h04594JyAQ0OLMUbBiPAFr33+N9/h/NUBACyQHAlogKJkWk+sFbCncxSXXUkqeDMMMJAhi6+SJU9Hhg0ekbKpI2i7u+c6GItD6gjjvfvK6CDRBELfwTj4EQUzG5d8eqDVP9zsQ0EXyspFFp+R6/wUBLXB6gYAWCEqmxeR6AVsKNwhocUhzHNfAGicWiuO99axAvnP+7PNel7qIckECGq+bwFHqdwuRsYDW/bstCGjrze/i3rJc778goAXOXBDQAkHJtJhcL2BL4QYBLR5pyIsWzhLynQtnZYqAfhd5zk310AlphBAIaOHTEkqKTECu918Q0AInAghogaBkWkyuF7ClcIOAFp805EUXzhTynQ3POVMEtG7nHqyf3+0t7w0C2jBrKCEdAbnef0FAC5wTIKAFgpJpMblewJbCDQJaGtKQF50/V8h3FjbfDAnovIsIcQoHRVFD3+3YkbtwECHUBwS0MN5QShoCcr3/goAWOB9AQAsEJdNicr2ALYUbBLR0pCEv+t9sId9Z+FyT+3UpdJ91W7z/durcAU2bMQU5Ojr+a8ASE5PQxPHfoSuXrwofyHclGzSsjxYsmosunL+Ipk6enm/9sV+NRp/27Ynmz/kRHfnlN6PbsMUKcr3/goAWOJts8QIW6DoUE0BArhewgK6JUkTuN2pRIEhoBPKiEYJ8Z+MnmJyvS2NO+rTF+69OQP9+/MR7sasTwI8fPUGD+g81fkCLaQ253n9BQAucsLZ4Aefn+tZtm1DDD+q//+rA/kMFPska6npRfNItqM9yvYANjaFY38v5Ri0WA0vYKa550ZDvbNrskvN1+U5An8vOzm5nb28/juf53gqFYnFWVtYSd3d3jT4RW7z/5iegsc/4Huzu4YY+ads5twuz581A3Xt0zf23Ljr9Scf2qHGTRu8j1bp77f69h1CnLh3eR6CP/vELqlixQm7dhw8f5drMe1/Ozz4ujyPZGo3mP/VNm2nS1pLr/RcEtMB5YYsXcF7X8YVbrXoVNHP6nNxXOwVd4AK7/J8LVWg9OZaT6wVsKdZyvlFbipFY7RS3vGjIdzZ95sj5utQJaIqi/DGBlJSUECykEUK9CIJYoi+kbfH+KyQCjcXugEGfoZ+37kDXrl5/L2o3rtuMJk35Fu3euQ+tWLbqveiePWPe+xQOzEQnsvG/Z839Af125FjuZNGlcJT3L4+GDR+ce78/+uvx9/Z1dnBZnE6CBTv2d+P6Lbnt2dpHrvdfENACZ5ItXsD6rhcklvHTqf5FiJ9KPT09cqvqR6f187nS09NzRTi+OPGF+vJFAgoNC0Fv3rz51wWY35MvzvvS/73Olq3nasn1AhY4fc0uJucbtdmdt4KB4pIXDfnO5k0uOV+XeQW0jgQW0nZ2dl8TBNETC2mlUrmE4zh1cMWq5sESuXZBOdC6SDFuDge1AisEvI806+7HP23ZhgYO7o9wqsf6tRvfi2adCMY50PoCWj+fWj8CXbd+nX9FsrH9du3boJ3b9+RGsnWpJNhXfcEuMgqzzcn1/gsCWuDQ27qA1l04uuhzft3Cr4OcnZ3/80SqezLWLVzQvYI6+cfp3KfbG9dv5eZz6devV7+u4Cdr7Iut54PJ9QIWOH3NLibnG7XZnbeSgaKcFw35zuJMKpZl/0IINRPHmlWspFIU5ZZfyyqV6mOc0sHz/FWCIPrbqoDW5UDrR5t1Ud68KZW4n7qgUueunXJTPfB9VhdRxike+osI9etfvnQ19z6qL6CxDX2BXlAqCAhoaeY2CGiBXOUgoPVzqvJ2K+/qXv3FDrdv/ZPvqt68fxD0o9nDRwzL98n6yOHfUI9eXd+/mhKI1+rFQEAXPgQgoK03RYtaXjTkO1tvLtlSy4VFoO3t7b9GCMkiAq2/iDBvGmXefGh9/jqx+8/tO8jXzzc3v7mgXTj0f5+UmPz+fm0oAq0LioGAlmbmg4AWyFUOAhq/uikoAp1figeOKCcnpaD4+Pjc1z556+a3WEEn0rGA1l+sqP9krcvLKlGixPtFE6Zs6SNwaEQphgU0fAolcJaiqObAyDoEikpeNOQ7W2f+2GKrBeRAvxfORS0HGkel9d/i4jHRpVTq0in1hbKPj8/7xYj496bkQIOAlnbmg4AWyNfWBXRBOdBYBHfo9DHatWNPbs6V7oISGoHW328ybwRaf6VxQRgLewIXiN4ixSACbRHM0IgZBOSeFw35zmYMfhGsqhPQdnZ27XJycvIVzrpu2+L9t7B1R/oL9gpbE5Q3Yq0voHX50Lo1S/mlcOC1RYXtwgECWtoLBwS0QL62eAHndb2gXTju3rn/nxxm/VW5cbFxuRvC615F6RY+XL18DTVu+uH7Ddv1BbR+DrT+k3XeOtgW/kAOtMCJBsWAQCEE5JgXDfnOMKXzIyD3faBhVMUjINcAFghogXNADgIadyXvogXdUyv+Tvd0m98uHDhSjRcM4rSLvLtw6E480hfQhe22oe+DOacyCRwaUYrJ9QIWpfNgRHYE5JIXDfnOsptaFnVYzicRWhRUEW9MrvdfENACJ6ZcBLTA7kCxPATkegHDQBZfAraeFw35zsV3bordc7j/ik3UtuzJ9f4LAlrgPIILWCAomRaT6wUsU9zgtkgEbDUvGvKdRRpgMJNLAO6/RXsiyPX+CwJa4LyEC1ggKJkWk+sFLFPc4LaIBGwpLxrynUUcWDD1ngDcf4v2ZJDr/RcEtMB5CRewQFAyLSbXC1imuMFtCQhYOy8a8p0lGFQwCRHoYjAH5Hr/BQEtcHKCgBYISqbF5HoByxQ3uC0RAWvlRUO+s0QDCmZBQBeDOSDX+y8IaIGTEwS0QFAyLSbXC1imuMFtCQlYOi8a8p0lHEwwDQK6GMwBud5/QUALnJwgoAWCkmkxuV7AMsUNbktMwBJ50ZDvLPEggvn3BOD+W7Qng1zvvyCgBc5LuIAFgpJpMblewDLFDW5biIBUedGQ72yhAYRmIAJdDOaAXO+/IKAFTk4Q0AJBybSYXC9gmeIGty1IQOy8aMh3tuDgQVMgoIvBHJDr/RcEtMDJCQJaICiZFpPrBSxT3OC2hQmIlRcN+c4WHjhoLpdAQkKCplWL9k7JSclApIgRcPdwR6fOHE/z8vJyllvXQEALHDEQ0AJBybQYCGiZDhy4LZiAOXnRkO8sGDMUlIDA48expxb/uKTlwf2HJbAOJq1JoFuPLuibb78+HRjo38qafpjSNghogdTgCVggKBkWk/MTsAxxg8tWJmBsXjTkO1t5wKB5xHFc+/j4F7tbNGmtBBxFi8CZ8yfVPj7en5IkeVxuPQMBLXDE4AlYICgZFpPzE7AMcYPLNkBAaF405DvbwGCBC7kEnj17tu3G1ZudRnwxBkR0EZkTa9etVNepX/uIr69vfzl2CQS0wFGDJ2CBoGRYTM5PwDLEDS7bCAFDedGQ72wjAwVuvCeARbRGk9Zp9cq1yvPnLiLIiZbf5MBvfJs0bYRGjRmhdnZ2kq14xuRBQBsx/+AJ2AhYMikq9ydgmWAGN22UQH550ZDvbKODBW7lEsDBrNRUZpyDQ+kGpUuXdgIs8iLw6tWrtIyMV1dcXemlckzb0KcNAtrIuQdPwEYCs8HiRekJ2AbxgksyJKDLi165fI1yzJcj1S4uLhvc3d2/lWFXwGUgAASAgEUIgIA2ATM8AZsAzYaqFKUnYBvCCq7InADOi3769Ol0Pz+/GTRN/yTz7oD7QAAIAAFJCYCAlhSv7Rr/66+/7GvVqrVZoVB86+zsnGS7noJnQAAIAAEgAASAABCwLQIgoG1rPCzmDcuyExBCgxFCv1AUNcliDUNDQAAIAAEgAASAABCQOQEQ0DIfQFPcfxd9fv52Z6AhPM8ftrOzKwdRaFNIQh0gAASAABAAAkCgOBIAAV0MRx1HnwmCqEqSZD+GYVYQBJEBUehiOBGgy0AACAABIAAEgIBJBEBAm4RNvpV4nrdXq9XP7e3t2zk6Ot7OzMwsn5WVFaNQKCAKLd9hBc+BABAAAkAACAABCxIAAW1B2LbQlH70WecPRKFtYWTAByAABIAAEAACQEAuBEBAy2WkRPATR585jotHCLWjKOqWziREoUWACyaAABAAAkAACACBYkMABHSxGWqE8os+67rPcdxynuczIRe6GE0I6CoQAAJAAAgAASBgEgEQ0CZhk1+lgqLPup4wDFNeoVBALrT8hhY8BgJAAAgAASAABCxMAAS0hYFbqzmO4/rxPL8WIZSi54MTQigdIcS/+50LQRDfkSS5ylp+QrtAAAgAASAABIAAELB1AiCgbX2ERPQPR5n1zREEEZmdnV3Lzs4uU/f7zMzMZG9v7wwRmwVTQAAIAAEgAASAABAoUgRAQBep4TSuMyzLpmdkZLiDYDaOG5QGAkAACAABIAAEijcBENDFePxBQBfjwYeuAwEgAASAABAAAiYTAAFtMjr5V8QC+m2+sxtBEO9TOOTfK+gBEAACQAAIAAEgAASkJQACWlq+Nm2dYRh8hLcrCGibHiZwDggAASAABIAAELAxAiCgbWxALOkOCGhL0oa2gAAQAAJAAAgAgaJCAAR0URlJE/oBAtoEaFAFCAABIAAEgAAQKPYEQEAX4ykAAroYDz50HQgAASAABIAAEDCZAAhok9HJv+Lbo70zNBqNq6+vLywilP9wQg+AABAAAkAACAABCxEAAW0h0LbYDAhoWxwV8AkIAAEgAASAABCwdQIgoG19hCT0DwS0hHDBNBAAAkAACAABIFBkCYCALrJDa7hjIKANM4ISQAAIAAEgAASAABDISwAEdDGeE1hAkyTpQhDEq2KMAboOBIAAEAACQAAIAAGjCICANgpX0SrMsmwmSZI0COiiNa7QGyAABIAAEAACQEBaAiCgpeVr09ZBQNv08IBzQAAIAAEgAASAgI0SAAFtowNjCbdAQFuCMrQBBIAAEAACQAAIFDUCIKCL2oga0R8Q0EbAgqJAAAgAASAABIAAEHhHAAR0MZ4KWEAzDEMHBATAIsJiPA+g60AACAABIAAEgIBxBEBAG8erSJXmOC5TpVKBgC5SowqdAQJAAAgAASAABKQmAAJaasI2bB8EtA0PDrgGBIAAEAACQAAI2CwBENA2OzTSOwYCWnrG0AIQAAJAAAgAASBQ9AiAgC56Yyq4RyCgBaOCgkAACAABIAAEgAAQeE8ABHQxngwsy74iSZIkCOJ1McYAXQcCQAAIAAEgAASAgFEEQEAbhatoFQYBXbTGE3oDBIAAEAACQAAIWIYACGjLcLbJVkBA2+SwgFNAAAgAASAABICAjRMAAW3jAySleyCgpaQLtoEAEAACQAAIAIGiSgAEdFEdWQH9AgEtABIUAQJAAAgAASAABIBAHgIgoIvxlOA47lVSUhIZFBQEiwiL8TyArgMBIAAEgAAQAALGEQABbRyvIlUaBHSRGk7oDBAAAkAACAABIGAhAiCgLQTaFpsBAW2LowI+2RoBlmU3IYSG8DwfQdN0mM4/lmVPI4Q+QghtpihqaH5+4zI8z5fVr2dr/QN/gAAQAAJAwHgCIKCNZ1ZkaoCALjJDCR2RkMA7Ad0TIfSaIIivSZLczrJsC4TQNoSQT0ECmmGYcIIgQvMKbwldBdNAAAgAASBgIQIgoC0E2habYVn2NUmSzgRBZNmif+ATELAFAv/H3nmAR1F9bfxOioSSzGxCCgQSSEKAhCbSQXpHREGQJgJSBEQpAlIkgBQpUkRQBGlSFARBlCJFAelIDyUhDQghZbMlEErKfP+JLN+6JtnZ3ZnZmd03z+OjZO8995zfOSvv3j1z73MB3ZFlWR0hZIdKpZqu0WhmURQ1mBBSghCym9uBfi6YT3H//Xx3OpFl2cZcDNiBlkMm4QMIgAAICEcAAlo4loqzBAGtuJTBYTsQMBLQSRRFPWYYpu3z1oySFEUFE0L2F9XCwYlqCGg7JA1LggAIgIDIBCCgRQYsZ/MQ0HLODnyTCwGDgKYo6ieWZbtSFDWDZdkZFEXtYVn2LQhouWQKfoAACICAdAQgoKVjLbuVIKBllxI4JEMCRgJ68nPhHM2ybORzIT0PAlqGSYNLIAACICAyAQhokQHL2TwEtJyzA9/kQsAgoAkhAwghUwghdViWTaUoavTzBwnRwiGXZMEPEAABEJCIAAS0RKDluAwEtByzAp/kRsBYQLMs2/J/fdCTCCHfE0K2GAto44cIDTGgB1pu2YQ/IAACICAMAQhoYTgq0opOp3t67949z8jISJzCocgMwmkQAAEQAAEQAAF7EICAtgd1mawJAS2TRMANEAABEAABEAABRRGAgFZUuoR1FgJaWJ6wBgIgAAIgAAIg4BwEIKCdI8+FRqnVap/RNF2aoqgcJ8aA0EEABEAABEAABEDAIgIQ0BbhcqzBENCOlU9EAwIgAAIgAAIgIA0BCGhpOMtyFQhoWaYFToEACIAACIAACMicAAS0zBMkpnsQ0GLShW0QAAEQAAEQAAFHJQAB7aiZ5REXBDQPSBgCAiAAAiAAAiAAAiYEIKCduCQgoJ04+QgdBEAABEAABEDAagIQ0FajU/5EnU73LDY2tnS9evVwCofy04kIQAAEQAAEQAAEJCIAAS0RaDkuAwEtx6zAJxAAARAAARAAAbkTgICWe4ZE9A8CWkS4MA0CIAACIAACIOCwBCCgHTa15gPTarU5NE2XpCgq1/xojAABECiMgEajGXjnzp2ooKCgmSqVaj0ogQAIgAAIOD4BCGjHz3GREUJAO3HyEbogBNLT0xdmZmYOW75spdfoj0bqvb29v/X19Z0giHEYAQEQAAEQkC0BCGjZpkZ8xyCgxWeMFRyTgEajYXRa3c7r12/WHTN6HK3XZxEvL0+ydPliXUREtQs0Q3dXqVRax4weUYEACIAACEBAO3ENQEA7cfIRutUEdDpdI71ev+PHH37yWzR/sZupoY8njct9u/dbaV5eXj1omj5t9UKYCAIgAAIgIFsCENCyTY34jkFAi88YKzgWAa7fmaKodZMnTSM/79hdZHBv9uhG5s2fTViWHYS+aMeqAUQDAiAAAhwBCGgnrgMIaCdOPkK3mICh3/nDUeO8Ll+6YnZ+7Tq1yJcrFqMv2iwpDAABEAAB5RGAgFZezgTzGAJaMJQw5MAECut35hsu+qL5ksI4EAABEFAWAQhoZeVLUG91Ol3OhQsXSrZq1QrH2AlKFsYchYC5fme+caIvmi8pjAMBEAABZRCAgFZGnkTxEgJaFKww6iAE+PY78w0XfdF8SWEcCIAACMifAAS0/HMkmodarTaXpukSFEXlibYIDIOAAglY2u/MN0T0RfMlhXEgAAIgIG8CENDyzo+o3kFAi4oXxhVIwJZ+Z77hoi+aLymMAwEQAAH5EoCAlm9uRPcMAlp0xFhAQQSE6nfmGzL6ovmSwjgQAAEQkB8BCGj55UQyjyCgJUONhWROQOh+Z77hoi+aLymMAwEQAAF5EYCAllc+JPUGAlpS3FhMpgTE6nfmGy76ovmSwjgQAAEQkA8BCGj55EJyTyCgJUeOBWVEQIp+Z77hoi+aLymMAwEQAAF5EICAlkce7OIFBLRdsGNRGRCQut+Zb8joi+ZLCuNAAARAwL4EIKDty9+uq+t0ulwvLy8cY2fXLGBxqQnYq9+Zb5zoi+ZLCuMcgYBOp3uHZdnFLMt+rVKpphcWk1arbU0I2UgI2c8wzBBHiBsxKJ8ABLTyc2h1BJyAPnDgQIlevXrhHGirKWKikgjYu9+ZLyv0RfMlhXFKJqDRaGZRFDWJi4Fl2fmFCejnAnsFIcSTEPIdBLSSM+5YvkNAO1Y+LYpGq9Xm0TTtTlFUvkUTMRgEFEZATv3OfNGhL5ovKYxTIgFOGOfn53/i4uJykGXZwSzLLuUE9HPBPI+iqMksyyazLLucEPITRVFjCSHbIKCVmG3H9BkC2jHzyisqCGhemDBI4QTk2u/MFyv6ovmSwjglEni+Cz3GIKALi8FoFxoCWolJdlCfIaAdNLF8woKA5kMJY5RMQO79znzZoi+aLymMUxoBCGilZQz+GghAQDtxLUBAO3HynSB0pfQ7800F+qL5ksI4JRGAgFZStuCrMQEIaCeuBwhoJ06+A4euxH5nvulAXzRfUhinFAIQ0ErJFPw0JQAB7cQ1AQHtxMl30NCV3u/MNy3oi+ZLCuPkTsBUQBs/REjT9Pec/+iBlnsWndM/CGjnzHtB1BDQTpx8BwzdUfqd+aYGfdF8SWEcCIAACAhPAAJaeKaKsQgBrZhUwVEzBByt35lvwtEXzZcUxoEACICAsAQgoIXlqShrOp0ub8mSJe4zZszAOdCKyhycNRBw5H5nvllGXzRfUhgHAiAAAsIRgIAWjqXiLGm12nyapl0pimIV5zwcdnoCztLvzDfR6IvmSwrjQAAEQMB2AhDQtjNUrAUIaMWmzukdd7Z+Z74JR180X1IYBwIgAAK2EYCAto2fomdDQCs6fU7rvLP2O/NNOPqi+ZLCOBAAARCwngAEtPXsFD8TAlrxKXSqANDvzD/d6IvmzwojQQAEQMAaAhDQ1lBzkDkQ0A6SSCcIA/3O1iUZfdHWccMsEAABEDBHAALaHCEHfh0C2oGT60Chod/ZtmSiL9o2fpgNAiAAAoURgIB24rqAgHbi5CskdDH7nddtXEMaN2n4gsRP23eSaZOjFELGMjfRF20ZL4wGARAAAXMEIKDNEXLg1yGgHTi5Cg9N7H5nTjzXql2DzIqaQ3bv2kO6vdGVTJ85lezbe8BhRTT6ohX+poD7IAACsiIAAS2rdEjrjE6ny/fy8sI50NJix2pmCIjd71yUWJ49byZ5tXkzMunjKQUezl80l/j7+xX8t2F3+sMxH5A+/XqRlPsPSERkdZKTk1MgwDt17kBKly5Nbt+OI691fIMUNm71qrXky6VfEW4dbvxLL71EMjM1BesNHzH0xW44Z9MwVoxiQV+0GFRhEwRAwNkIQEA7W8aN4tVqtSzDMKgBJ64BuYUuRb+zQcAadp8LY/Dr/l3E09OzQNy+9nrngh1qTtRyP0OHDybnz10ggwYMIdy44OCgF6+9O6g/2bBu04txSUl3CgQ1t+MdElr5P/aMBbXBH84m98PNE+sHfdFikYVdEAABZyEA8eQsmS4kTghoJ06+DEMXs9/ZOFzjnebTp878h0Sjxg0Ldp+PH/uroJ3D8Of4uARy8cIlYhDJnPjlhLGvX9kCscuJ7E+mTiBbN28rsGk8zvg1P3/fgh3oogS8sU0x04S+aDHpwjYIgICjE4CAdvQMFxMfBLQTJ19GoYvd72waqrkd6MJaPLhd4fS0jAIBzbVwfD5nYUHrRnEC2nicqYA2tIpwAt4g0A3tIpy/hlYQsdOEvmixCcM+CICAoxKAgHbUzPKICwKaByQMEZWA2P3OhTlfVA8017fctVsXsmXTD2Tg4AFF7kDzFdDGO9CcbcOfuR1oYwFt3N7BCWqpdqCN2aAvWtQyh3EQAAEHJAAB7YBJ5RuSVqv9gxDSku94jAMBoQncvXNPe+b0WWbaFGmPjyvqFI4rl6+96G0uqgear4A27pU27YEuSkBzu9DcaSApKQ9E7YEuLI+z584kDRs10FYMqsAInWfYAwERCfzJMEwrEe3DNAgUSgACGoUBAiBgNwL22IE2BGt6DvSpk2cKxDP3Y9pWYXoKB98WjmfPcgpO8nj06NGLnmfTHmzDjjh3igc37uyZcyQiMqLggcPCerTFSBZ2oMWgCptSEMA3qVJQxhqFEYCARl2AAAjYlYDUPdBSBGs4xs4gtKVY05o10ANtDTXMkRMBCGg5ZcO5fIGAdq58I1oQkC0BqU7hkAKAEgQ0TuGQohKwhtgEIKDFJgz7RRGAgEZtgAAIyIaAFOdAyyZYOzqCc6DtCB9LC0oAAlpQnDBmAQEIaAtgYSgIgID4BOzZFy1+dPZfAf3O9s8BPBCOAAS0cCxhyTICENCW8cJoCwhotdpDLMuWU6lUkcbTtFpta0LIRkKIL8uy81Uq1XTudZ1O9w7LsisIIXpCyACGYY5YsByGOhABR+yLtnd60O9s7wxgfTEIQECLQRU2+RCAgOZDCWMsJqDRaKIpiopgWfZ6MQLagxByiWGYttwCWq12DSHkvf/dlpwMAW0xcoec4Eh90fZMEPqd7Ukfa4tJAAJaTLqwXRwBCGjUh+AEuJ1nQkgiy7KNOeMGAf3899yv5nI70CzLJlEU5cEwzCvcLznRzf2boigaAlrwtCjWIPqibUsd+p1t44fZ8iYAAS3v/DiydxDQjpxdO8dmEMRF7UBTFHWBZdm6FEVN5lxlWXae4XcQ0HZOnsyWR1+0dQlBv7N13DBLOQQgoJWTK0fzFALa0TIqo3jMCej/3Vexn9ulpijq1HMBbfjvjhDQMkqkTFxBXzT/RKDfmT8rjFQ2AQhoZedPyd5DQCs5ezL3nY+ANghn7t8GIU0IgYCWeW7t6R76oounj35ne1Yn1paaAAS01MSxnoEABDRqQTQCfAQ0RVFHWZZdzOlnlmVXUhRVHgJatJQ4jGH0RReeSvQ7O0yJIxCeBCCgeYLCMMEJQEALjhQGDQRMBbTpQ4RcCwfDMEOen9hR8OAgIaQvBDRqiA8B9EX/mxL6nflUDcY4GgEIaEfLqHLigYBWTq7gKQiAgAkB9EUTgn5nvC2cmQAEtDNn376xQ0Dblz9WBwEQEICAs/ZFo99ZgOKBCUUTgIBWdPoU7TwEtKLTB+dBAASMWoYGUhS1bvKkaeTnHbsdHgz6nR0+xQiQBwEIaB6QMEQUAhDQomCFURAAAXsQcJa+aPQ726O6sKYcCUBAyzErzuETBLRz5BlRgoDTEHDkvmj0OztNGSNQngQgoHmCwjDBCUBAC44UBkEABORAwNH6otHvLIeqgg9yIwABLbeMOI8/ENDOk15l+woAACAASURBVGtECgJOR8BRzotGv7PTlS4C5kkAAponKAwTnAAEtOBIYRAEQEBOBJTeF41+ZzlVE3yRGwEIaLllxHn8gYB2nlwjUhBwWgJK7ItGv7PTlisCt4AABLQFsDBUUAIQ0ILihDEQAAE5E1BKXzT6neVcRfBNTgQgoOWUDefyBQLaufKNaEHA6QnIvS8a/c5OX6IAYAEBCGgLYGGooAQgoAXFCWMgAAJKICDXvmj0OyuheuCjnAhAQMspG87lCwS0c+Ub0YIACDwnIKe+aPQ7oyxBwDoCENDWccMs2wlAQNvOEBZAAAQUTMDefdHod1Zw8cB1uxOAgLZ7CpzWAQhop009AgcBEDAQsFdfNPqdUYMgYBsBCGjb+GG29QQgoK1nh5kgAAIOREDqvmj0OztQ8SAUuxGAgLYbeqdfGALa6UsAAEAABIx2ohmdVrfz+vWbdceMHkfr9VmCw0G/s+BIYdCJCUBAO3Hy7Rw6BLSdE4DlQQAE5EdArL5o9DvLL9fwSNkEIKCVnT8lew8BreTswXcQAAHRCAjdF41+Z9FSBcNOTAAC2omTb+fQIaDtnAAsDwIgIF8CQvVFo99ZvjmGZ8omAAGt7Pwp2XsIaCVnD76DAAiITsCW86LR7yx6erCAkxOAgHbyArBj+BDQdoSPpUEABJRDwNK+aPQ7Kye38FS5BCCglZs7pXsOAa30DMJ/EAAByQjw7YtGv7NkKcFCTk4AAtrJC8CO4UNA2xE+lgYBEFAeAXN90eh3Vl5O4bFyCUBAKzd3SvccAlrpGYT/IAACkhMorC8a/c6SpwELggCBgEYR2IsABLS9yGNdEAABxRMw9EUvX7bSa/RHI/Xe3t7f+vr6TlB8YAgABBRCAAJaIYlyQDchoB0wqQgJBEBAOgJcX/SdO3eigoKCZqpUqvXSrYyVQAAEIKBRA/YiAAFtL/JYFwRAAARAAARAwCYCENA24cNkGwhAQNsAD1NBAARAAARAAATsRwAC2n7snX1lCGhnrwDEDwIgAAIgAAIKJQABrdDEOYDbENAOkESEAAIgAAIgAALOSAAC2hmzLo+YIaDlkQd4AQIgAAIgAAIgYCEBCGgLgWG4YAQgoAVDCUMgAAIgAAIgAAJSEoCAlpI21jImAAGNegABEAABEAABEFAkAQhoRabNIZyGgHaINCIIEAABEAABEHA+AhDQzpdzuUQMAS2XTMAPEAABEAABEAABiwhAQFuEC4MFJAABLSBMmAIBEAABEAABEJCOAAS0dKyx0r8JQECjIkAABEAABEAABBRJAAJakWlzCKchoB0ijQgCBEAABEAABJyPAAS08+VcLhFDQMslE/ADBEAABEAABEDAIgIQ0BbhwmABCUBACwgTpkAABEAABEAABKQjAAEtHWus9G8CENCoCBAAARAAARAAAUUSgIBWZNocwmkIaIdII4IAARAAARAAAecjAAHtfDmXS8QQ0HLJBPwAARAAARAAARCwiAAEtEW4MFhAAhDQAsKEKRAAARAAARAAAekIQEBLxxor/ZsABDQqAgRAAARAAARAQBEENBpNsLGjFEUlsixbyfh3KpUqSRHBwElFE4CAVnT64DwIgAAIgAAIOAcBjUYzmKKoZYQQtVHEZQghD43+7MOy7EcqlWqtc1BBlPYiAAFtL/JYFwRAAARAAARAgDeB9PR0Tzc3t2Q3N7eGnp6eN0wnZmRkVHd1dT2Tm5sb6Ovrm8XbMAaCgBUEIKCtgIYpIAACIAACIAAC0hPQ6XRRLMtWYBhmqOnqWq32W4qikmmanim9Z1jR2QhAQDtbxhEvCIAACIAACCiUALcL7e7ufi83N7dR2bJlX+xCY/dZoQlVsNsQ0ApOHlwHARAAARAAAWcjUNguNHafna0K7B8vBLT9cwAPQAAEQAAEQAAEeBIw3YXmdp/d3NxO5+TkVEDvM0+IGGYzAQhomxHCAAiAAAiAAAiAgJQEjHehNRrNahcXl3vofZYyA1gLAho1AAIgAAIgAAIgoCgChl3o/Pz8vi4uLluw+6yo9DmEsxDQDpFGBAECIAACIAACzkXg+S50H4qitmL32blyL4doIaDlkAX4AAIgAAIgAAIgYBEBlmU9tVrtVwzDfEBRFM59togeBttKAALaVoKYDwIgAAIgAAIyJKDT6Tqr1ZqxpUp5NPLw8OBu7MOPggg8efLkYXb2k9M+PqolNE3vVZDrTuEqBLRTpBlBggAIgAAIOBOBu3fvbszKethtxfKvvY4d/Yukp6U7U/gOEauvny9p3qIZGTV6hN7Ts8zuihUrDnCIwBwkCAhoB0kkwgABEAABEAABjgAnns+f+bvbiPdHe4GIYxD4+pvl+noNX4GIllE6IaBllAy4AgIgAAIgAAK2EODaNpKT729t3bw9xLMtIGU498ix3/WBgeX7oJ1DHsmBgJZHHuAFCIAACIAACNhMID4+8eAXCxe33bH9Z5ttwYC8CPTo+SYZP2HcoZCQSu3k5ZlzegMB7Zx5R9QgAAIgAAIOSODBgwdZ7Vp3LoOeZ8dLLtcTffDI3ocBAQGejhed8iKCgFZezuAxCIAACIAACBRKQKvVstXCaoKOgxK4efsqYRgG2k0G+UUSZJAEuAACIAACIAACQhCAgBaConxtQEDLJzcQ0PLJBTwBARAAARAAAZsIQEDbhE/2kyGg5ZMiCGj55AKegAAIgAAIgIBNBCCgbcIn+8kQ0PJJEQS0fHIBT0AABEAABEDAJgIQ0Dbhk/1kCGj5pAgCWj65gCcgAAIgAAIgYBMBCGib8Ml+MgS0fFIEAS2fXMATEAABEAABELCJAAS0TfhkPxkCWj4pgoCWTy7gCQiAAAiAAAjYRAAC2iZ8sp8MAS2fFEFAyycX8AQEQAAEQAAEbCIAAW0TPtlPhoCWT4ogoOWTC3gCAiAAAiAAAjYRUJKA7vZGVzJ95lRSunTpgphTU9PIpI+nkNOnzpAPx3xA+vTrRT6fs5DUb1iPvNq82YvXLAVkbGv3rj2WTpfVeAho+aQDAlo+uYAnIAACIAACIGATAaUIaIN4vnL5Ghk0YEhBzOs2riEhoZULhHKDhvVfCGhbRS8EtE0lhclFEICARmmAAAiAAAiAgIMQUIqANhbL3I4z99OocUMyf9FccvzYXyQtNb3QHWhuHDfG39+vYM5P23eSaZOjXuxYP3uW86/Xzp05/2KX+9GjR2RW1BwSXCmYDB0+mLi7uxPD72wV6VKVD3agpSJtfh0IaPOMMAIEQAAEQAAEFEFACQLaIJTj4xJe7D6bwi2qhWNa1OSCoa91fIPMnjeTcDvZq1etLfgdJ4rPn7tQYPPX/buIp6fnf3azuXFc28i+vQcKhLfxOIOQl3OiIaDlkx0IaPnkAp6AAAiAAAiAgE0ElCSguZ1mTsQW9lOYgN798x7S753eL8Sv6Y71u4P6kw3rNpEvl35VIK4NfdPG7SBcP3Wnzh0KdqK5XWeltXdAQNv09hB0MgS0oDhhDARAAARAAATsR0BJAtrSHWiDgDY8dGigfOrkGXLxwqV/9UwXJ6Df6tn9XwnKyckp2MXmhLfcfyCg5ZMhCGj55AKegAAIgAAIgIBNBJQgoLkAC+uB5n7PtVRcuni50B5oTkD3fLs72bp523/ErulOcnEC2pYTPWxKjgCTIaAFgCiQCQhogUDCDAiAAAiAAAjYm4BSBHRRp3DUql3jxYN+hR1jZ9wDzYlmru+Za8UwfuiQ+3NRAprLj3EPNCfkDWsq4UFCCGh7v8P+f30IaPnkAp6AAAiAAAiAgE0ElCKguSBNz4E2PhGjqIcIuXnGp3Bw7RvcQ4PF7UBzJ3Zwopn7MT2FQ0ntG5z/ENA2vT0EnQwBLShOGAMBEAABEAAB+xFQkoC2HyXlrgwBLZ/cQUDLJxfwBARAAARAAARsIgABbRM+2U+GgJZPiiCg5ZMLeAICIAACIAACNhGAgLYJn+wnQ0DLJ0UQ0PLJBTwBARAAARAAAZsIQEDbhE/2kyGg5ZMiCGj55AKegAAIgAAIgIBNBCCgbcIn+8kQ0PJJEQS0fHIBT0AABEAABEDAJgIQ0Dbhk/1kCGj5pAgCWj65gCcgAAIgAAIgYBMBCGib8Ml+MgS0fFIEAS2fXMATEAABEAABELCJAAS0TfhkPxkCWj4pgoCWTy7gCQiAAAiAAAjYRAAC2iZ8sp8MAS2fFEFAyycX8AQEQAAEQAAEbCIAAW0TPtlPhoCWT4ogoOWTC3gCAiAAAiAAAjYRgIC2CZ/sJ0NAyydFENDyyQU8AQEQAAEQAAGbCDx48CCrXevOZdLT0m2yI9VkmqZJp87tyQ9bt0u1pGLX8fXzJQeP7H0YEBDgqdggHMhxCGgHSiZCAQEQAAEQcG4C8fGJB79YuLjtju0/yxoEJ5yHDh9EBr03kDx9+pTUrdVQ1v7KwbkePd8k4yeMOxQSUqmdHPxxdh8goJ29AhA/CIAACICAwxDQ6XSdk5Pvb23dvL2XHIPihPMQTjgPfpfk5eWR/Px88vncheRH7ECbTdeRY7/rAwPL96Fpeq/ZwRggOgEIaNERYwEQAAEQAAEQkI7A3bt3N54/83e3Ee+Plo2INhXOJUqUKACSlpZOmjdpLR0cha709TfL9fUavrK7YsWKAxQagsO5DQHtcClFQCAAAiAAAs5OgBPRWVkPu61Y/rXXsaN/EXv3RK9ctZy82rwpcXd3f5Eabgfa1dXVplSdPXOODOg32CYbcp3M9Tw3b9GMjBo9Qu/pWQbiWWaJgoCWWULgDgiAAAiAAAgIQYBr51CrNWNLlfJo5OHhUUYIm7AhHYEnT548zM5+ctrHR7UEbRvScee7EgQ0X1IYBwIgAAIgAAIgYBMBnU7nzbLsRELIOEJILvvPzzhvb+9Vlhp+9OhR+ZycnGR3d/fAvLy8p/n5+ZcJIa8yDJNgqS2MBwFLCUBAW0oM40EABEAABEAABGwiYBDSFEWNz8/Pf6JSqSw+mk2j0ZygKKoJy7InCSFPKYpqRQg5zzBMfZucw2QQ4EEAApoHJAwBARAAARAAARAQnsBzId2TYRiLdqDT09PLu7u7Jxt5xBJCCjSNq6trTU9Pz2vCewuLIPD/BCCgUQ0gAAIgAAIgAAKKImDYfS7C6asMw9RSVEBwVnEEIKAVlzI4DAIgAAIgAALOS+DRo0flcnJy7hdHgKKoxjRNn3ZeSohcbAIQ0GIThn0QAAEQAAEQAAHBCOh0uhMsyzYxI6Bv0TRdTbBFYQgETAhAQKMkQAAEQAAEQAAEFEHAaPeZ63nm/nExcTzv+e84fdOWYZjDiggMTiqOAAS04lIGh0EABEAABEDAOQloNJpfKIrqSgj5maKopyzL9mZZ9gQhREtRVBdCyJ+EkDhCyGCKog7TNN3OOUkharEJQECLTRj2QQAEQAAEQAAERCGg1WpZhmEKtIxWq81jWfYVlUp1SZTFYBQEjAhAQKMcQAAEQAAEQAAEFEnAREDnuru7Ny5duvQ5RQYDpxVFAAJaUemCsyAAAiAAAiAAAgYCJgI6Jz8/v6W3tzfX0oEfEBCVAAS0qHhhHARAAARAAARAQCwCxgJap9M9y8/Pb69Sqbg+aPyAgKgEIKBFxQvjIAACIAACIAACYhEw2YF+RgjpwjDMQbHWg10QMBCAgEYtgAAIgAAIgAAIKJKAiYB+SlHUmzRN71VkMHBaUQQgoBWVLjgLAiAAAiAAAiBgIGAioJ+wLPu2SqXaDUIgIDYBCGixCcM+CIAACIAACICAKARMBPTj/50B/Q7DMD+JshiMgoARAQholAMIgAAIgAAIgIAiCRgLaI1Gk+3i4vIeTdNbFRkMnFYUAQhoRaULzoIACIAACIAACBgImOxAP2RZdqRKpdoIQiAgNgEIaLEJwz4IgAAIgAAIgIAoBEwEdFZeXt4YHx+f70RZDEZBwIgABDTKAQRAAARAAARAQJEETAS0nhAygWGYVYoMBk4rigAEtKLSBWdBAARAAARAAAQMBEwEtJaiqKk0Ta8AIRAQmwAEtNiEYR8EQAAEQAAEQEAUAiYCWkNR1EyappeKshiMgoARAQholAMIgAAIgAAIgIAiCZgIaDUhZB7DMIsUGQycVhQBCGhFpQvOggAIgAAIgAAIGAiYCOgMQsgXDMPMAyEQEJsABLTYhGEfBEAABEAABEBAFAImAjqNoqjlNE1/JspiMAoCRgQgoFEOIAACIAACIAACiiRgIqBTKYr6hqbpKEUGA6cVRQACWlHpgrMgAAIgAAIgAAIGAiYCOsXFxWWtl5fXVBACAbEJQECLTRj2QQAEQAAEQAAERCFgcpV3MkVRmxiGmSTKYjAKAkYEIKBRDiAAAiAAAiAAAookYLIDfZdl2e0qlWqcIoOB04oiAAGtqHTBWRAAARAAARAAAQMBEwGdxLLsbpVK9SEIgYDYBCCgxSYM+yAAAiAAAiAAAqIQMGnhSHBxcdlL0/QoURaDURAwIgABjXIAARAAARAAARBQJAETAR1HUdQhhmGGKzIYOK0oAhDQikoXnAUBEAABEAABEDAQMBbQOp0uhmXZ4wzDvAdCICA2AQhosQnDPgiAAAiAAAiAgCgETHqgb7Ise0alUr0rymIwCgJGBCCgUQ4gAAIgAAIgAAKKJGAioK9TFHWBpun+igwGTiuKAAS0otIFZ0EABEAABEAABAwETAT0VUJINMMwvUEIBMQmAAEtNmHYBwEQAAEQAAEQEIWAsYDW6/WX8vPzYxmG6SnKYjAKAkYEIKBRDiAAAiAAAiAAAookYLIDfYEQksgwTHdFBgOnFUUAAlpR6YKzIAACIAACIAACBgImx9idd3FxuU/T9OsgBAJiE4CAFpsw7IMACIAACIAACIhCwGQH+gxFURk0TXcRZTEYBQEjAhDQKAcQAAEQAAEQAAFFEjAR0CcJIXqGYToqMhg4rSgCENCKShecBQEQAAEQAAHzBLRa7Sssyy5xcXHRmh+t3BEsy3ZlGKZAy+h0uuOEEHeWZXGVt3JTarXnDMP8bfVkKyZCQFsBDVNAAARAAATkT0Cj0cygKCpK/p7CQ1sIGAS0Vqv9gRDSkaKo+7bYU9pclmWzleaz0P5SFFWGpulqQtstzh4EtJS0sRYIgAAIgIBkBDgBzS2mUqkK/u1MP84Su8kxdq/n5+d/wW1GO0OuKYoqRQjJomm6oTPEW1yMxnUgFQsIaKlIYx0QAAEQAAFJCTiLiCwMqrPEbg/hJGkRF7MY16ZDCFnFMEw9ufhkLz/sUQcQ0PbKNtYFARAAARAQlYBOpyto36BpeqaoC8nQOAS0DJMisEtarZYTzt9AQBMCAS1wccEcCIAACICA8xJwFhGJHeh/HiJ0tp/nAvprhmHqO1vspvFCQDt7BSB+EAABEAABwQhAQDt+/7c9hJNgBWqjIQjo/wdojzpwyk9tNtYspoMACIAACCiAAAQ0BLQCytRqFzMyMuq7ubmtxA40WjisLiJMBAEQAAEQAAFTAuiBhoB25HeFTqerz7LsCoZhGjhynHxiww40H0oYAwIgAAIgAAI8CGAHGgKaR5kodggENFo4FFu8cBwEQAAEQEC+BCCgIaDlW522ewYBDQFtexXBAgiAAAiAAAiYEICAhoB25DeFTqfjWjeW4yIV9EA7cp0jNhAAARAAAYkJQEBDQEtccpIuxwlolmWXMwyDmwi1WtZwpbtUScApHFKRxjogAAIgAAKSEoCAhoCWtOAkXgwCGi0cEpcclgMBEAABEHAGAhDQENCOXOcZGRkN3d3dl9E03ciR4+QTG07h4EMJY0AABEAABECABwEcYwcBzaNMFDtEp9M1ZFl2GcMwENBo4VBsHcNxEAABEAABmRHADjQEtMxKUlB3IKDRwiFoQcEYCIAACIAACHAEIKAhoB35naBWqxu5urouxQ40TuFw5DpHbCAAAiAAAhITgICGgJa45CRdTqfTca0bS2iabizpwjJcDD3QMkwKXAIBEAABEFAmAQhoCGhlVi4/rzkBzbLsEoZhIKDRA82vaDAKBEAABEAABMwRwEOEENDmakTJr0NA/3/2sAOt5EqG7yAAAiAAArIigB1oCGhZFaTAzqjV6sZubm5f0DTdRGDTijMHAa24lMFhEAABEAABuRKAgIaAlmttCuGXXq9vnJ+f/wXDMBDQaOEQoqRgAwRAAARAAARwCgdXAyqVaoYj14I9dh7lwhMCGi0ccqlF+AECIAACIOBABLADDQHtQOX8n1DUanUTNze3hTRNN3XkOPnEZo8PUhQfxzAGBEAABEAABJRGAAIaAlppNWuJv5yAdnFxWahSqSCg0cJhSelgLAiAAAiAAAgUTQACGgLakd8fer2+SV5eHgQ0wUUqjlzniA0EQAAEQEBiAhDQENASl5yky3ECmmXZBTRNN5N0YRkuhhYOGSYFLoEACIAACCiTAAQ0BLQyK5ef15mZmU1dXV3nQ0BjB5pfxWAUCIAACIAACPAgAAENAc2jTBQ7RK/XN83Ly5uvUqmwA40eaMXWMRwHARAAARCQGQEIaAhomZWkoO5AQP8/TrRwCFpaMAYCIAACIODMBCCgIaAduf4zMzObubq6zqNp+lVHjpNPbBDQfChhDAiAAAiAAAjwIAABDQHNo0wUO4QT0BRFzVOpVBDQaOFQbB3DcRAAARAAAZkRgICGgJZZSQrqjl6vb5aXlwcBjWPsBK0rGAMBEAABEHByAhDQENCO/BbIzMx81dXVdQ5N080dOU4+saGFgw8ljAEBEAABEAABHgQgoCGgeZSJYodAQP9/6iCgFVvGcBwEQAAEQEBuBCCgIaDlVpNC+qPX61/Ny8ubo1KpsAONHmghSwu2QAAEQAAEnJkABDQEtCPXPyeg8/PzZzMM08KR4+QTG3ag+VDCGBAAARAAARDgQQACGgKaR5kodohGo2lOUdRnENC4iVCxRQzHQQAEQAAE5EcAAhoCWn5VKZxHnIAmhHymUqmwA40WDuEKC5ZAAARAAAScmwAENAS0I78DsrKymufm5kJA4xg7Ry5zxAYCIAACICA1AQhoCGipa07K9TQaTQuKomYyDNNSynXluBZ6oOWYFfgEAiAAAiCgSALOJqBZlvXS6XQN8/Pzw/Nz81vnk3xSokSJIyzLxtA0fYaiKL0iE2nidGZmZg1XV9dahJB6LMuOzc3NXebu7n42Ly/vire39zVHiJFPDM4uoJ/XQc3ndTAuLy/vS4qizhJCLktRBxSfJGEMCIAACIAACMidAPeVdnJySl93d7empUuXCtZqtQ8JoQjD0GWyH2UnPcvJPREYWG6Lp6fnMbnHYol/mZmZ/dLT08f4+fnVvXUzRhMdfaPE6ZOn3QhLSKOmjXIjIqs9rVatqio9Lf3vsr5ll3l7e2+2xL4cxmZkZFRTq9XjSpcu/eaTx09KXI++maPT6zwf3E9xL18h8EmZMmUeR9aIcC3p4fFMq9PvCQqqsNDT0/OGHHwXy4esrKwWubm5M1UqldPsQGdkZFTPyFCPK1OmzBtPHj8ucePGzRydTueZkpziXi6w3BNPT8/HkTUiXT08SjzT6XS/VKxYcYGXl9ctMXIAAS0GVdgEARAAARCQjMC9e/fez3mW88mj7Gx632/7XU/8ddIzNjaOZKozC3zw9vYmVcJDSdNmTbI6d+mYV7JUKZ2HR4l55cuXXyWZkyIsdOPGjUolS5Y6fu/OvZLr1m7wObD/IMnNzS10JTc3N9KhYzsyaPC76gpBFR4/fpz9avXq1RNFcEtQk5mZmUFqtWYNw3i12Lrlxyfbf9zpFRsTW+QaVaqEkV6939L06v1WqaysrL+8vb0H/++fO4I6ZWdjer2+cX5+fgQhxIdl2eEURa3ivmXIz8//28fH566d3RNl+ezs7Iop91PWlvEs0/zHrdsfb9+2g46NuV10HYRXIW/3fkvzdp+epTUa3bEKFcoPLlWqlKBsIKBFSTWMggAIgAAIiE1Ar9c302g0W+4np5RetGCJ94m/TvJastmrTcjHE8dllisf8EilUvX18vL6i9dEmQzS6XTe9+4l/+jq4lJ/8aJl9C+7f7XIs9e7vUbGffyRLi8v73yFihV60TT9zycNmf0kJia+5+Hhsaxfn4EZCXEJwdnZ2bw99CjpQcKqhMZt2rI+QK/Rjw+vHq7oD0sajabVgwcPxvv4+LRJuf/gyY3rN1hCCB0dfYMEVgh8FBYWkhMRWb3U48dPk589e7apbFnvL3x9fbN4A5PxQOM6iL8dH/z48WPe3pYqVYqEhFX+pw70+nHh4eHf8p5sZiAEtFAkYQcEQAAEQEAyAteuXZvn7+8/blbU3Pzt237ysGbhnr3eejI9aopLSmrKklq1an1ijQ2p53C7jxqN5ue9v+13nTl9dllb1o+aNS2jc5dOeSoV86aXl9cpW2wJPffKlSvrPDw83hw/ZiJ97uzfVpuvV/8VsnjpAt3TZ0931qxZc7DVhuw0UavVtktPS5/HsmzYurUbS+755beXMtIzivSmUeOG5J0B/TKaNW9aOitL/31YWNhwO7kuyLL/1EHJ53Vw3mqb9RvUI18sXaDLefpsR2TNyPesNmQ0EQJaCIqwAQIgAAIgIBmB6KvRO7MfP3515PDRZe/evWfTuhUrViArVy3PKFWy5PHImpHdbTIm8uTMzMzXWJbd+emUGWTnjl3uQizXvccbOZ/NnUEoiuru7e1t2Va2EA4UYiP6WvT+B6npLw8ZNMzvcTb/3cai3ClZqiRZs+6bdH8/v4s1atboIJLbgpuNjo7+0sfHZ3i313rkJCXeKW3JAtUjqpPZc6M0/gEBal/fsv25h0gtmS+HsdeuRe9PS02rO2TQcN9sAeqgVEEdrEr39fO9WFOAOoCAlkOVwAcQAAEQAAFeBK5diz6cmJBUk/tLldcEnoO4v1grVw6+Glkjsg3PKZIOS05+8Hrp0h67hw8ZRY7+KewzkC1avkpWO+0KoQAAIABJREFUrVlJHj160i0wMOAXSQMzWYzLb2xMXM0Rw0YJml9umW9Wr0irEh52NTIyoq09YzS3tlarVd2/n7Iv+d79kHFjJvimp6Wbm1Lk62/36fls5mfTX1Kr1aNCQ0NXWm1I4oni10Ho1cjISJvqAAJa4qLAciAAAiAAAtYRiL4Wve/27bi6w4eM8rPOQvGzVq1ZkRYWFnohskZkJzHsW2tTrVY3Zln26AcjPnL/8w9hxbPBpxatmpMVXy/Leemll1rYq53j2rVrO+4k3W02+N1houSXi/W79avSKwZVPFGrVs03rc2HmPM0Gk0ljUZ7ZP++A56zoubY1KJj8LNmrRpk1eoVWfqsh1/XqVNrkpj+C2H72tVrO+7cEbsOvk0PCg76q6YN3zpBQAuRbdgAARAAARAQlcCVy1fWZ6jVnfv2GiD4zqSx41u2bUwv6+Ozt1btWgNFDYin8bS0tICnj59e/nzeQq8dP/1sVa83z6VI97fefDJ56gR9iRIlavv5+T3gO0+IcZcvX1305Mnjgd269PARwl5xNn75bWdG6TKl10VGRkwUey1L7HMnTaSlpZ38fsNmrxXLv/GyZK65seXKB5BNWzdoKYqsioiIkG2//9Wr0Quzsx8NkqQO9u7MKFOm9NqIiAirPlRAQJurOrwOAiAAAiBgVwIxMTEf5efmz+jYvivz5MkTUX3x8PAg+3/fo3Vxc5kRHh6+TNTFeBi/cePWqQN7D1T9fN5CFY/hNg/5ZPLHmg6dO96qXr1qY5uN8TSg1+tf0+uztr3WsVvJBw9Sec6yflhAgD/5df/uxy4ubn3Ll/ffZb0l4Wbev3+/VHZ29qXtP+4ou2zJV6Lk2j/An/z08w/6p0+fzK1Ro8Z84bwXxhJXB1n6rG1dOr1R8kGK+J/fAsoFkN/27XpMuVB9y5cvb3EdQEALk3dYAQEQAAEQEIGARqN5mRBy/q03e7tEX7suwgr/NRlZI4ITGvncDWcqleqiJIsWskh09PUF6ekZA3u/1U/UXXfTpX/4aXO6r2/Z9VLs0Or1eh+9Xh8zYfxk7z8O/ykZ6lZtWpKFX8zL9PLyCvfy8lJLtnARC12Pvn701MnTkVMnR4m6Ax9etQpX2zklSpR4nabp/faO27B+QR3o9DETP57sfUTCOmjdpiVZsGhephdteR1AQMuleuAHCIAACIDAfwjExsZGr/52baWN6zaVkhLPgEH9s4cOG5xYpUqVSCnXNayl0+ka5OTknujQprNbcvJ9SV0IDCxPDhz+Ldfd3b0pTdPc1cii/Vy7dm3vX8dONJwxfba3aIsUYXjGZ59mvNq82dnIyIguUq9tvN7Vq9HL1Gp1H6k+KLVr3yZ/3oLZepVKFVm6dGlpi6sI0Pasg5lcHbRodiYiIuI1S+oAAtoSWhgLAiAAAiAgGYGb12/Ov3P37qAB/QZLugNrCHDj5rXpQRUrrqsWUc2qHklbQN26devK6lVrq2zauEXUvueifOw/oO+TocMHx1atWrWWLXEUN1etVvfIyMj4rkXTtrRYa5ize/SvQzqvMl7DylUot83cWDFe12q17bOzs3d1aNOlZHox5zsLvfbET8ZrO3Zufy0iIuJVoW1bak+j0XRPS0tba9c6OHFY51Xa06I6gIC2NNMYDwIgAAIgIDoBvV5fLT8//0a71p3J3TuC3sDL2/eKQRXJwSN7iYuLS3UvL6+bvCfaODAuLm7sg5S0KT3e6CXIKQzWurNj17aMgHJ+c0NDQ5dYa6O4eYmJSfemTJoWKOVX9qb+cF/hz5s/Ozm4UnAFMWIszibLsi5JiUl3ZkbNLr9v7wHJ9Rj3MCWjoheGh4cvkDp24/XkUgdz589OrmRBHUieMHsmCWuDAAiAAAgog0B0dPTh3T/vqf/l0hWe9vT4wzGjsrq92fVcZKQ050NzD5Ox+ez99wYNpy9dvGzP0Emdl2tzx77pKIoqX758ef73aPPwOvpa9LyEhKQhQwYNt+uHBM7V79Z/mx4WGrK6avWqU3m4LtiQ69euf3v9+o03Phg5xi7fsEREVic/bN/01NXVtYqPj49dPqVydfA/AT3kvYH2r4O1G7g6CP02vFr4ND5JhoDmQwljQAAEQAAEJCOg1WrbqtWZO5o2bCHoUV7WBnDizFG9j493D4ZhDllrg++86OjoZdeuXu/70Qfj7C4sOZ+XfbU4o0bNiC2RkZEf8Y3B3DjuopCnT58mv/Vm75KxMbfNDRf99SrhYdyDdY9LlCgRyDCMRvQFCSGPHj16OTs7+0yLpm3dMzMzpViy0DWmTJukadOu1cnIyEiL+n+FcFjpdQABLUQVwAYIgAAIgIBgBGJiYi4sX7YycvuPO14SzKgNhnr27PFs9NiR0eHh4XVtMGN2KncSAScsX+v0RomkxDtmx0sxILhSEPl1366nnLgU6rSKGzduLL9w/mLv8WMnyeJDAsdx0eLP1XXq1v6xRo0ao6TgevP6zeObN22tu/rbtZI+HFtYbGcvnHjo6enZVaVSSXcMCiFEnnUwX123Xp0fIiIiPjBXBxDQ5gjhdRAAARAAAckI6HS6TvfuJW9p06IDI9miPBY6fPSAtkKFwL40Te/jMdyqIdev31x68cKFfuPHyEdYcoF8sXR+xiv16m6uVq3aGKsCM5qk0WiYnJycB691erPEnSR5fEjg3AsKrljwQcHd3T1ApVJpbY2zuPlqtbqjWp35Q/Mmre328KSxf336vv1k+Mhh0dWqhdcTM25j2wV18CznwWud5VYHQWTP3p+fvvSS+TqAgJaqWrAOCIAACICAWQI3b946t3zZiro7tv/sYnawhAN6vPVm/odjRl2oWq1qfTGWZVm2xIMHqeoeb7xdOj4uXowlrLYZEhpCdu768ZF/gL8PRVFPrTb0z67jvKtXrg39cNQ4Uc87tsbHL1cszqhdp9bqqlWrTrFmPt85MTExF5d+sTxy545d7nzniD3uyNED2sAKgf1omt4r9lqcfXnXwdKM2nVqmK0DCGgpKgVrgAAIgAAImCWg1+sbZ2SoDzRp0NyuDw4W5ejJs8eyypb16eDl5XXKbDAWDrh9+/bEmzdiJsjhobrCXF+zblVGterhC8PCwmw6seHe3XsZ777zno9Ul+JYkgbuAp0N33+nrlCxgmitJTqdrkNKcsoPLZu3k9U3LG/2eCNvzLjRV6pWFbdNyZAPR6gDCGhL3l0YCwIgAAIgIBqBGzdu7t72w/bWX6/4toxoi9hgeMSoYQ979e55pHr1at1sMFPo1Pj4hMTxYyYEnzp5RmjTgthr3KQh+WLpwqSQkMqVrDWo0+n6Xrl8dVnP7n1EE6jW+maYt23HVnXValXG+vv7f2+rrcLm37px69SKld/U27b1Jzcx7Nti8/ipP/Rly/q8rlKpjtpix9xcR6kDCGhzmcbrIAACIAACohPIysryy83NTW3wSlOSpc8SfT1rFvD08iRn/z5B3Nzc/D09PdOssVHYHO7UkXv3kre1bdlRJZRNMewc+nO/pkKFwF7WnkYSExP79+dzFtTd+5tsbpD+D6bOXTqST6ZOvBAeXuUVoRlqtdq6WVkPj9V/uXFpoW0LYW/wkIHZ77zb90T16tXbC2GvKBuOUgcQ0GJWCWyDAAiAAAjwIhAbGzv90sXLH44eOVZ2vbHGASxfuURd5+XaX1apUmUWr8B4DLp58+YvGzdsbrt29fqSPIbbbcjgoQMfvzOg7+Hq1at3tdSJrKysCL1Of/6VOo1kHSMX19+XTj/2or3qeXp6Xrc0zuLGX79+Y+uve/Z2WrxwqSweHjT11d3dnVy8ejbXzc0tnGGYBCFjN9hSq9URT548Of9KbWXUgUdJj3o+Pj6F1gEEtBgVApsgAAIgAAIWEUiIT4gb+9GEkNOn5NnCYAimUeOGZMmyhfGVQyqHWhRgEYPT0tLKuLq6apo1aumm0Yh6+IPN7jIqhpw4/WduXl6eys/P76ElBm/cuLns2B/HB0RNnyWr3t/CYpg1OyqzZevmG8PDw8daEmNxYx88eFDa1dU1s03Lji+lpQr25YVQ7r2wM2/+Z5mNmjTcUL169XGCGy94ePDmsmNHjw+ImqaAOpgTldmyVdF1AAEtRoXAJgiAAAiAAG8CGRkZDXRa3cGmjVrK4uIUc46fOP2nnmbodmXLlj1rbqy51x88SBt8+dLlBe/2HyzrnXdDHBs2rVXXrlN7YkCA31pzsRm/npSUlDxk0Pvlr165Zsk0u4ytWasGWbNu1f3g4KBAoRy4c+fOqP89ODlj0IChsu3/5mKtUTOSrN3wbWpQUFCAULEruw6+uR8cHFxoHUBAi1EhsAkCIAACIMCbQExMzNd7fz3Q5/O5C2T51bZpIJ9Mmajr/FqHreHh4SN4B1nEwJs3b534YuGSJnt2/2arKUnmd+3WhYyfMPZktWpVm/JdkDtdJeV+yr4WzdoqIr9cXEf/OqQrV75cJ6FOXImJib302Yw5tQ/+fpgvNruNO3D4t8zg4KA+DMP8LqQTjlYHENBCVgdsgQAIgAAIWEwgKSkpZdCAoQHXo29YPNceEyIiq5N1G1c/CA4OLmfL+txlEhRFaWpH1iNPn9p0vLItblg0t0SJEuRy9HnCsqyK74UjsbdiV/z6297+8+cuUsQ3DByQSZPHZ3Xq0pG7PMbmD0k6nS4sOzv76ss1G3hYBNtOg4cMH/z4nf5991WtXrWHkC78Uwf7+s+fu1BBdfBxVqcuHQqtAwhoIasDtkAABEAABCwioNPp6qemph5q3qSNYv5S5QI8dvKw3t/fvy1N0+csCthoMHec17mz55f17zNQ1l/rm8a3aev6jPoN6n1E0/QWPrEnJSXdGTLo/YpKaN8wxMO1caxe+/W9SpUqVeQTY3FjEhISpp84furDj8dNUkSbTrlyAWTfwV8fBQT4C3qcJFcHQwe9X/GKAtp4DPmsxdXBum/uBgcHB5nmGALa1ncG5oMACIAACFhNIDY2dtHvBw4N/WzGXEUJ6E9nTNG379B2dZUqVT62Nvhbt2799vWKVR1+2LLd1Vob9pjXu2/PvBGjhh+oWrVqF3Prc6dvZGZmnm34SjNZHt1WnP9n/v7rkbe3dwNbT+OIux0XPWnC1Ii/jp8wh0s2r+/+dUdmtepVB9A0LUhvkSPWAQS0bMoVjoAACICA8xGIi4u7OX7MxKqnT9n8PJ6k8Bo1bkC+WLrgVmhoaDVrF05JSdF3bv+6Z0rKA2tN2GUet0O59/dfssqVK2f2Q8/du3cnHvvz+Cfjx06S9RnXhYFcvHRBZqs2LeeVK1dukbWgNRpN8NOnT2/VqVG/hLU27DFv6PD3nvbp13t3RES1t4VYv6AOjh7/ZPwYx6kDCGghKgM2QAAEQAAELCbw8OHDgMePH9+pWb2uu8WTZTDh6o0LOSVLlgwqU6aMxQpYp9M1Sr6bvL91yw6KebDOGPmRPw/o/Mv5d/Lx8Sn2WvPYW7En5sz+vMn+fYI+jyZJ9jt2ak+mTvvkZJWqVXg/MGnqWEpKyshTJ09/NnL4h96SOC3QIiEhlcm2nVszKlQI9BXC5K1bsSfmKbgOJk/75GRVkzqAgBaiMmADBEAABEDAYgI6na73mdNnvxrQTxlHuJkGuHHzWnXDRg0+oGn6B0uDT0xMnPX7/oMfTp82S5ECetbs6br2Hdt9WalSpenFxZ6Wlvbk1catSuh0eksR2X08TXuR46f+eOrn52f1w38xN2P+WLRoSctfdv1q93gsdeDYySN6Pz/f1gzD/G3pXNPxjlgHENC2VgXmgwAIgAAIWEUgJub21nXfre++7rsNL1llwM6TBr337rNB7w3cGR4e1sdSV2JiYs/MjJrd4PDBI5ZOlcX4Nu1ak6iZ086Gh1dpWJRDmZmZze7dS/6lfevOimvfMMR04PBv2ooVK3T19vb+yxrwqamp2a2aty+Zqc60Zrpd58z7/DNNm/ZtFwcFVZhtiyNcHSTfS/6lnYLr4PfDv2krmNQBBLQtVYG5IAACIAACVhNISkq6O/CdIRVuXL9ptQ17TqweUY2s/37NveDgYItPakhLS3v8auNWHkrcmeWYP9+dfeLn51fk1dx37tz59MC+g+M+nTpD9rcPFlVHMz+L0nfs2G5xcOXgmZbWml6vb5qUdGdPu1adFPkBol37NmT6jKlnqoRXaWRp7MbjC+pg/8Fxn05RcB3MjtJ37PDvOoCAtqUqMBcEQAAEQMAqAunp6eXy8vIS69Sor8jdZ0PQl66de+bq6lrJ19c3hS8IrVZbLyXlwaFWr7ZTZPuGIc4/jh/UlSsX0JZhmPOFxR4bE3t07uz5zfftPcAXjezGdercgUyeOvF4eNXw5pY6l5R0d8b+vfvGRH36mSLz7OnlSU6eOfrU19fX6hYWjpmj1gEEtKXvCIwHARAAARCwmYBGo+l2+eKVtb179VfUw1Wmgf+wbVNm7ZdrDVapVLv5QsnMzBy5f++B2ePGTFTkzqQhzsVLF2g6du4wzdvbe2Vhsd+/f1/TuUM35oHCThkxjiWgXAD5bf8uXWBgoMW76LGxsSdnRc1prITbB4uq3YN/7NMGBwd1tuVGRkepg70HdmvLly//4j0LAc33/3gYBwIgAAIgIBiBuLiEJTu27xi+eNGyIlsABFtMREPjPv7ocY+ePVaFhlYey3eZ2zG3dyxfvrL7j1u3850iy3Fv9+lJRn3w/s/hVcO7mzqo1WpD9Hr91QZ1m5YSw/nZ82aSt3r+Z1ny6NEjMitqDtm9a49gy567ePKRp6dnLYZh4i0xmvog9WGrFu1LK7H/2RDn3M8/03Xo1G5eYGDgfEtiN4z9pw6yrjao20SUOrDGJ2vnnLt46pGnZ5kXdQABbS1JzAMBEAABELCaAPcQXdS0mQ3+OHLUahtymNiqdQsyc3ZUsQ/TmfqZmJgU/97AYZWjr12XQwhW+xBZI4J8t/7bhEqVgkMKEdA9zp09/+07fQcJ/g1Dtze6kukzpxKuNWTa5Cir/ec7cdPW9ep69V8ZzjDMDr5zsrKyaqQ+SD3ZrHErT75z5DiOYz1uwpiDVauGt7fGP61WK1odWOOPLXNM6wAC2haamAsCIAACIGAVgZSUFG2HNl3otLR0q+bLZZKfny85cPg3Xbly5Xh9xc+ybAmtVvs4Irw2xbKsXMKwyg+Kosj1mMsswzAlKYp6amwkPj5+0fZtO0ctWbTMpv7Zwhx7LurI4oVLBd1pLgrCuI/HZr/dp8eK4ODgiXxB6fX6dw8f+mPJiGEfKLpNp3LlSmT7z1tTK1SoEMA3dqnqwBp/bJljWgcQ0LbQxFwQAAEQAAGLCajV6opPnjy59UrtRopu3zAE/vfl0489PDyq+vj43DUHQ6vVvpJyP+Vwq+btRXmwrFHjhmT+ornE39+PpKamkXVrNpDhI4eQrZu3kS+XfmXOPYtf/+PY77py5cu1MT0rOCYm9uicWfOaH9h/0GKbfCas27iG+PqVJa91fIPPcJvGdOjYjkyLmnK0SpWwlnwNxcTErF+/9vv+a9esV9Q17YXFdzn6/LNSpUpV9PT0TOMbv2FcTEzM0TmzPhetDozr3bAmV/eTPp5CTp86Y6m7xY7/pw4mH61SpUpBHUBAC4oXxkAABEAABMwRUKvVHW/cuLX5rTfeFvzrfXNri/H6T7t+yKxevVo/Hx+f/ebs63S6/n8cOfrl+0NHCb4zaRATWVlZ5Pf9h0jXbl3Ip1NmkOEjhpKQ0MqiiIpvVq/QtGrd4kOapjcZx34n6U7K2z37BSTEJ5pDYvHrhhaO0qVL/2euGD3QlUMqkW0/bUmpGFSxPF9n4+LiL48fM7GW0CKO7/pCjtv160+Z1apVfZthmEOW2hWzDozr3fiD1K/7dxFPT0/B6920DiCgLa0GjAcBEAABELCJgEajGbtj288zpk2N8rLJkEwmz54zU9+j15szVCrVEnMuJSQkLdmyaevI5ctWCH58n3FrQ3Cl4BcCmtuNHjdhjCgtD6M/GvWsb/8+KytXDn7xECXLsiW1Wu2j6lVqOYzGuBF7hWtVKU1R1GNzOeZeT01NfdiiadvSWq2Wz3BZj5kzb5buje6vz/Tx8TFb38aB/FMHukfVq9QUpQ6KauURs8XnRuxVlmHogjoQJShZVwKcAwEQAAEQsCuBuLiEzSu+XNl3y2aLb8C2q99FLd63X28y6sORW0JDK/cz52BMzO1D8+bMb7PvN7Ob1eZMFfq6YfftwL7fSas2LcnmjVvJ6DEjSUrKA1HaHTp14c5J/uRweHhYW4NDDx8+rHXvXvLxls3aOsQHJC6uP/86pK9QIfDVMmXKXDGXGI1GE/zo0aPr9eo0VvzJE1ysvfv0Ih98NGJbWFjY2+ZiN349MzOzVlpauqh1wNV7cHAQWb1qbUGL0odjPiBDhw8mSUl3RKn3o38d0vv6+b7q7e19BQLakmrAWBAAARAAAZsJxN+OvzB+3KSXT508bbMtORho3KQR+WLx/IshYSF1zfnDncAxaMCQymLevmh6xNupk2fIoAFDzLlm1evcbYzrNq7510kcer3+zdOnzqwZ0G+waC06Uva+cmA2bPpO07hJo/e8vLx+NgdKq9W2j752fWsPB2lRqlf/FbLsqyXRoaGVa5iL3fh1KeqAW4/rh2/c5P9vlBez3o3rAALakmrAWBAAARAAAZsJJCcnp3ft/GbZ+8m8L++zeU0xDZQPLEf27P05IzAw0NfcOqmpqY+bNGjhwfXqOsIP14d88uzRJ/7+/i8eCNVoNON/2LJtxsyo2WXEiFHq3lcuhukzpj3q0bPHLH//sgvMxZSZmfnBL7v2zP5k4jTBHhQtru/b4I8Y/d+cbW8fb3LkzwNZAeUCLPpGQew6MJcHMV7n6qDn291n+vr6LoSAFoMwbIIACIAACBRKICEhwUOlUmVXCxOnL9Je2G/evspqNJpSlStXflKUD6mpqf75+flJL9dsUEIMP8Xs/SzO34tXzz51cXEJ9vf3T+XGJcQlrFu5ctXA7zdsFiNMYo/e13fe7UdGjBq2ISQkZKC5oOLj49esXrV20LrvNriYG2vN61zbQnpaxr++VeC+dajzcm1R2hY4H7mTOEqWLBno5eWVwdfnxITEtSu++maQWHXA+SHlhTrcesZ1AAHNtxIwDgRAAARAwGYCOp2uijpDfaFJwxai7E7a7KCVBk6eOfrQp6xPXZqmY4sywR1hd+/uvUNtW3XidWa0Na4UJq6ssWPJnEN/7NP6B/i38/X1Pc/Ni4uLOzp96qzmhw8dscSMRWOl7n1t07Y1mTVn+rHQ0NAW5hyNi4s/9unUGa8eOfSHuaEWv26PDw+ckweP7NUGBQe1p2n6HF+n42Ljjk7/VLw6kPpCHS5u4zqAgOZbCRgHAiAAAiBgMwGNRtPq5s1bO97s2lPwY9xsds4GAz/v2a6pVq1qD5VKVaRq0uv1r589c25d/z4DRekNlvp4NwOuTVvXZzZoWH+Ql5fXL9zvkhKTYge/OywsOlrcmxal7H0tuHVx3aq4SpUrhZkrk6SkpMR3+g4KjrlV5GcpcyaKfZ378BAWFkoMvb6GP9++HSfaDvTaDd9qmjRtPIxhmJ/4Ol9QBwOHhYl146Y9vnExrgMIaL6VgHEgAAIgAAI2E9DpdP0OHzqyYuTwDwXrD7XZKQEMrFz1pa5N29ajaJousm8hMzPz/V9/+W3+xI+nWNRLKoB7oppYsGiu/rXXu0zy9vb+hlsoOZm7ZbIznZHB+9t+Uf0TwnjZsmXJgcN7dYGB5m+cTE1NzW7asGXJhw8fCrF0oTaMWxdycnJenEIh1oJRM6dl9+7b61OVSrWY7xr379/XtG/dhRGzDqS8UIeL27gOIKD5VgLGgQAIgAAI2ExAq9V+vGnjllmzZ81ziFsIDUCmTZ/8uP+AvtMZhllUFKS0tLTP1n23YcKSL74UpQfa5uRYaWDs+A+fDnrv3YV+fn6fsizrqtVqcxzpDGgDludnQbtTFJVXFCqtVqvKyclJrVm9rruVOGU5bfCQd8nQ4UNXVa4c/D4fB6WoA3t94/KiDviAwBgQAAEQAAEQEILAnTt3ln/7zXcfrPl2rRDmZGNjyLDBZNj7730VFBQ0uiin7iTdWbdsyVcDN2/aKprfUh/vxgXSr38f8tHYD9YHBQcNevjwYYBer0+oW6uhh9BBGr6y/2nbTjJw8DtEqpsIDXFcuHLmiZubW2U/P78HRcWmVqsj1OrM082btPYUOn572uvStTOZPHXC/rCwsE58/EhLSwvIzc0VpQ74rC/mGEMdYAdaTMqwDQIgAAIg8C8CcXFxO75YsLT7zh27HIpM9x5vkPETx+wMDQ3tUVRg8fHx+2bPnNdxr0iXqNjjeDcu1s5dOpJpUZP3h4SEdFKr1ZHqDPXJ5k3bOFSbChfnsROH9T5lfZr4+PhEF5VjKXr8TXu/Db6IdYwdZ79ho/pkybJFl0JCQ17m88Z1hjqAgOZTCRgDAiAAAiAgCIG4uPijn06Jan7k8J+C2DMYsccDRcYBtG7Tknw2d+ax0NCQIk9piI+LP/vxuE/qnzxxStDYzTEQm02Tpo3JosWfnwsJDWmQmZnZLC4ufk/XTm+KdtIIFy9349y7g/qTDes2FdxAx4nKWrVrkFlRc8juXXtE4fvr/l2akJDKr3t7e/9V1AJarbbX8WN/rRo6eIQo8XO5/GTqBLJ18zbSvmNbcuniZTJtchQR+/SV0LBQsnXbxrtBQUFBfOBKVQf2+MZlz76ftaGhIV0hoPlUAsaAAAiAAAgIQiA+Pv7K6JFja/59/oIg9ooSj5zA6tqtC/l0ygxy+tQZQdcqzNgr9eqS5SuXXA0JCalV1GKJiYk3hwx6v+q1q0VuYNrsp6mQNPSJXrl8TbTbCGvUjCRr1q26ValScDWdTtfl/Lm/N/Xr/a4oApIDZBBNx4/9VSAeDT9c7CGhlcmkj6cdHZ2dAAAgAElEQVSIkvMtP27UvFKv7js0Tf9WjIAesXPH7gVTJk0T5ZhG4w9Db3TvRnz9yhacvCH2hyRvb29y+Oh+fbly5Xg9/CtlHWRlZf3r9BHDdfZi1wEEtM3/u4IBEAABEAABvgSSEpMS3uk3qJLQR3yZCgipBXR41Srk+83rEoMrBVcuisXdO3fv9ezRNzAxIZEvLl7j7HlLHedgpcqVyPYdW5IrBlWsoNPpeh85/Oc3I4Z9wEto8QrQZJC9zkL+ZvUKbavWLUbQNP1DUX5nZGRMW7924/RFC5aI8hCh4cNDfFwCuXjh0otd+Jfr1hF1B97F1YVcu3Ex19vbm1dczlAHENDWvHsxBwRAAARAwCoC9+4lp3br0t0vOfm+VfOLmmRvAR0YWJ7s/m1nWoUKgf5F+ZicfF/dqd1r3mlp6YLGbm9jfn6+ZN/BXzMDA8v7aLXaIXt++W3JhHGfiLIDa7zbXK9+3RfHtxk+RKSkPBDtLORFS+brX+vaeTzDMGuK/JB09+6Xq1auHr1m9TrR0mK6C924ScOCtX7avvNfO/JCO3Dt5sVcHx8fb4qisszZlqoOpL5Qh4vbUAcQ0OaqAK+DAAiAAAgIRiAlJUXXukUHL02mRjCbnCF778KqvFXkyNEDxX7F/eDBg4evNmldOktvVn9YzUbqq405Rz29PMnxk0ceBQQElNHpdKO3bv5x/ozpn4l+TCH3LcPQ4YOJu/s/m6KGi0Wshmdm4szZ07N79+n1CU3Ty4sampiY+P3SL5b3/2HrNrHcsJvd85dOPfbw8KhStmzZZHNOFNTBlh/nz/hU/DqQ8kIdLm5DHUBAm6sCvA4CIAACICAYgbS0tOxG9ZqVzM5+LJhNORgqVaokOX3+r8d+fn6livInPT396St1Gr307OkzUVy2x9XGXCAvlXiJ/H3p9DNfX98SWq12wvq1G+d8Pnchr6/6RQEhktFPpk58OnDQO58yDLOwqCXi4xN2z5uz4PU9u38V1At7f0Dkgjlx+s8sXz/fel5eXjHmghOzDsTu9zYXm6EOIKDNkcLrIAACIAACghFQq9XPakfWc8/NzRXMphwMubm5kcvR53N8fHxeKsqfzMzM3MiqdVxZlhXFZXsJC4qiSPStS3ne3t5u/7tEZeqqr1fPWvLFly6iBPncqD1O4Rj38Ue5/zvve8b/+oDnFCmg4+IPRX06q83B3w+LFn5hJ25w3zzUebm2aO0rXDBHjv2uK1cuoIVKpbpsLrjMzMypq1d9J0odGJ8H/lav7mTxwqWinbxSWJyGOoCANlcFeB0EQAAEQEAQAizLUlqtNrd6lVqiiitBnLXCyI3YK/kqlcq1sKksy7o8j13Uv3elvtrYECt3O5tKpXJRq9Uzvln5bdTyZSutIMhvir1O4fhwzKj8UaNHzKRpelYxAvqvTyZOa3rs6HF+wVg4yl4PUHJu7ju4RxsSUrkjTdNmj7URuw64DxFhYaFF0hPzTGxDHYj6RrawLjAcBEAABEDAgQn88ccfbnXq1OGueRY8Sjl8xX0j9gpRqVSF/r3KsqybTqfLqRZWU/DYjQ3a45INbv2bt68ShmEotVo9a+VXqz5dsfxr0eK0l4gcNXoE+XDMKE5AzyhSQMcnnB0/ZmL9UydPixa/QTwaer4Nf759O07UHehf9u7UVqtWtauXl1eR52AbgrZnHYgG/rnhDz4cyY7+aOQsCGixScM+CIAACIBAAQGpRKS9cBtEZGHrSxG78SUb3OUiUv5IKaC5uLgPClKfwsFHQCckJFz46INxL589c15U/MYPi+bk5Lw4jUTMRX/+ZbumWvWq3VUqldlbkKQQ0GLGWpxtQx1AQNsrA1gXBEAABJyMALcD/fLLLz+rFlZT8L975LADffP2VZZhmELbU6Ro4eBaG6ZFTSarv/lO0p5QroylbOEwvG2kPoWDTwtHQnzCpdGjxtY+f+5vh3t3/7TrB22NGpE9GIY5Yi44sVs4DOsb30SYmppG1q3ZQIaPHFJwU6NYHyLRwmEu+3gdBEAABEBAUAJcD7RGo82NCJeuB9r4L1ixv+K+HnM539vbu9AeaA6kWp2ZW6OaeA8RcmtI8TCZaVEYP0Qo5sNjghajFcb4PESYkJB4cfTIMXWcXUBL8TCp4b3N3UT4+/5DL24eHT5iqKg3UuIhQivePJgCAiAAAiBgGwEpT+Ew7FByHq9etVa0HSnOPp9TONLT05/Uq9OoxFORj7ErXbr0f5Ik5kNV9jjGzh47j3yOsUuIT7jw0WjxWjiK+6ZFzBxzBWVJC4eYx9gZitu4Fz64UvALAe3v70fGTRgj2ukcOMbOtr8DMBsEQAAEQMAKAv+cA/1qyezsbCtm858i1YNVBo9KlSpFTp8/Xuw50FJcpMKfkHAjpb5IxV47j3wuUomPjz87fswkUR8iLCxzXL1funhZ1JsILXmIUKoLdbi4PT09yYF9v5NWbVqSzRu3ktFjRhIxb6TERSrC/b8DlkAABEAABHgS4G4ibNOig1emwDcRGpaXctfZOGRvbxU5bOYmwuTkZHWndq97p6Wl8aSljGFSX+Vtr51HPld5x8fFi3qMXVEVIcUZ4JYcYyfVVd4cD9PbN8W+kRJXeSvj/0vwEgRAAAQcisC9e8mp3bp090tOvi94XFLvOhsHEFihPNn96460ChUq+BcV2N07d+/17NE3MDEhUfDYDQaNWxsMv+Merpr08RRy+pTZ43ut8qtS5Upk+84tyRUrVqyg0+l6Hzn85zcjhn1AW2WM5yR77Dx+s3qFtlXrFiNomv6hKDfjJbhIpbC1ORHZqXMHMitqjmgPkFpykYpUdcCzXAQdZqgDwZ+EFtRLGAMBEAABEHAoAkmJSQnv9BtUKeZWrKBx2fsUjvCqVcj3m9clBlcKrlxUYImJiTeHDHq/6rWr0YLGbiqeuYeqXuv4xos1DGJTLBFdo2YkWbNu1a1KlYKr6XS6LufP/b2pX+93GVGCNDIq9c7jlh83al6pV/cdmqZ/K1JAxyfs/nzOgtd/Efgqb8N6xdX5T9t3itrCYclV3lLWgdh1ZmrfUAcQ0FKTx3ogAAIg4MQE4uPjr4weObbm3+cvOBSFV+rVJctXLrkaEhJS5C0xcXHxZyeM+6T+yROnRIndXheMNGnamCxa/Pm5kNCQBpmZmc3i4uL3dO30pugCWhSIxRjds+9nbWhoSFdvb+8iLxJJTEz8fukXy/v/sHWb1O6Jvt75S6cee3h4VClbtmyyucXErAN7f1g21AEEtLkqwOsgAAIgAAKCEbh9O+7Y9KkzXj1y2OxdDIKtKYWh1m1akllzZhwPCwttXvTuZPy+2TPnddz7237RXOJ2m4ODg16cOmLoCU9KuiPaLXWdu3Tkzp/eHxIS0kmtVkeqM9Qnmzdt4yVWkFL0+xbm+7ETh/U+ZX2a+Pj4FPkVwt27d79c9fXq0Wu+XSdW+Haze+3mxVwfHx9viqKyzDkhRR2Y80Gs1w11AAEtFmHYBQEQAAEQ+A+BuLi4HV8sXNp950+7HIpO97feIOMnjNkZGhrao6jAkpKS1n25ZMXAzZu2ihq76XXeYj9U1a9/H/LR2A/WBwUHDUpLSwvIzc1NqFuroYeYQXIfFNLTMsigAUPEXOZfti9cOfPEzc2tsp+f34OiFs3IyJi2fu3G6YsWLHEX0jHDh4aftu0kAwe/Q6Q+qtDF1YVcu3Ex19vbm1dcDx8+DNDr9aLXgT2OMzTUAQS0kBUOWyAAAiAAAsUSSExM/GrNt+tGrfl2rUORGjJsMBkybNCKSpUqfVBUYGlpaZ+t+27DhCVffFnCkYIfO/7Dp4Pee3ehn5/fpyzLuv7vEo2c6lVqiaYv7HUWMnfbIsMw7hRF5RWVP61WO2Lnjt0LpkyaVsaRcuzt7U0OH92vL1euHK+HQ6WoA3sdZ/iiDhwpwYgFBEAABEBA3gS0Wu3HmzZumTV71ryS8vbUMu+mTZ/8uE+/t6f7+PgsKkZcDf9l168LJn48WdD2Bnv3hC5YNFf/2utdJnl7e3/DxX7//gNN+9admIyMDMsgynh02bJlyYHDe3WBgeWK7e3WarW9jh87sWro4PdF6QHndt65H8NDoobcX7l8TdTd+NCwULJ128a7QUFBQXzTlJycou3QpjMtVh3Y4zhD4zoQ7RMiX8AYBwIgAAIg4DwEdDpdvyOH/vhqxPDRoggMe5H8etVybeu2rT6gaXpzUT7o9frXz545t65/n4HeUvgp1TXmm7auz2zQsP4gLy+vX7i4khKTYgcPHBYWfe26FGFKskZkjQjy3bpVcZUqVworbkGNRtPq5s1bO97s2lMltGOm4tlg35Dn+LgE0UR0w0b1yZJliy6FhIa8zDeugjp4d1hYdLR4dSD1cYbGdQABzbcSMA4EQAAEQMBmAmIKDJuds8HAz3u2a6pVq9pDpVL9UZQZrVb7yr279w61bdVJ9A8PUl4oc+iPfVr/AP92vr6+57nY4+Lijk6fOqv54UNHbCD636n27ANu07Y1mTVn+rHQ0NAWxQWlVqsj1OrM082btPYUMnhzD05y+e7Trxf5fM5CUc6B7tK1M5k8dcL+sLCwTnzjEqsOTNeX8jhD4zqAgOZbCRgHAiAAAiBgMwGdTldFnaG+0KRhC4fqET155uhDn7I+dWmaLvKA69TUVP/8/Pykl2s2ELUHWuoLZS5ePfvUxcUl2N/fP5UrkIS4hHUrV64a+P2GIjfjba4jqQ28824/MmLUsA0hISEDi1tbq9WqcnJyUmtWr8vrYTu+cZgT0OZe57tOUeMGD3mXDB0+dFXlysHv87UlVh2IHWtx8RnXAQQ030rAOBAAARAAAZsJsCxbQqvVPqlepcjjkm1ewx4GbsReIQzDeFAU9bS49VNTUx83adDC49GjR4K7KeWus8F57jSIk2ePPvH393/R067RaMb/sGXbjJlRsx3mQ9L0GdMe9Xy750xfX++F5hKXmpqa3bRhy5IPHz40N9Si14s7eYQ7eSUktLJoN05GzZyW3btvr09VKtVivk6LVQf2FND/1EH3mb6+vgshoPlWAsaBAAiAAAgIQuDevXsZr3fp7nM/OUUQe/Y2Uj6wPNmzd2dGYGCgrzlfEhMT4wf9X3vnHdfU2fbxExFZZjJkRxkJEMQ9cCsKOFqr1KJoXXVUbZ11VsW966i1deKoW3FVQdw4cGsFQiDMIJuscyIEFMj7xkee18cHm5zknAze619zze/94+N1Tu7c99jJrQRp6ZpMcX1u6LfO9cX5B/ghB4/sz23Zku1V/28Yhg179PDx/rGjJ5Ky17v+QcHS8v9e8qofSMi8xvrw0QOy4G5dv6PRaOc1LYxIJMr7NmoCm+jbNht6QDLUQ1PM4b2ybt2DpzAYjLOa+idbB8YcoD/WAQzQ2ioB7IAAEAACQIAQAllZOS/mz13Y7mHSI0LiGTtIcLeuyOatG1/6+Hi111SLUJh1Y/3ajSHxBF6mYsxTOAYODkcW/7zwJofj07++9zdv3gQVFBTe69OjP6Gnjajj1+93/fRs6/qzr8m6zvrO/RuYu7tbz+bNmydrWuPs7Jy7y9SXBd347HZ4TSH+8XNDn/OtLub6rTi5J9szlE6nP9W2eLJ0YEy9f6wDGKC1VQLYAQEgAASAACEEsrKyj//+2+5Rx4+eJCSesYNEjRmJTP/h+xM+Pt5RmmrJzRVtO370xPSdO3Y102RrDp//OGvG26gxo35v1Yo9p75elUplI5fLK4g+C7r+tIl7d+8jSxdH/xce9XDds1cPUrYxfDj7145CoSg1rUtOTs7+fXtiJhw8cLiJJltz+fwV/9lbGxsbNxqNpvXZhGTpwJhvoD/WAQzQ5qJeqBMIAAEg0EgIyGSyObGnz69Y+nM04W8ojYFozdqVWMQ3w1YwmcxtmvKjKDrm9q3EX7+fPIPwY8405Sbj8937dsn69us9k06nH/04fr4ovzhyxGjn3Jw8wtJqGpw0fa5rIa28WiKnzx4v9vD0cNUmhlQq/eHShb/WLFqwVKtLR7SJaUwblj0LuXUnQeHs4oz779UYOiCL1ac6gAGaLNIQFwgAASAABBokIJFIwtMFGccivookZY+sobHHXjglDWzNi6LT6Qmacsvl8vbFRcW3+vYKbRTD1e2711AXV5cQBoPx/OPehcLMxLWr1vdKuHpdExKtP9c0IGv6XOtEnxiGhQ9AlkYvSfT19emjTQy5XB7KT0070Vj03bFTB2THb9v43t6tArXp39g6wFujtvb/0sHiRF9f3/c6gAFaW3JgBwSAABAAAoQQkEgkHlVVVRkd2nRtFLcRPn/1SGltbc21t7d/rQnQh1NIlAGcNhSVSqXJ3KQ/p1AoSJrwlfp6a5tPTx/JycnZcub0uRnbtuywJqoJTQOyps91rWPuT3MqI0dF7GKz2Qu0iSGTydgVFRVpHdsG22pjb+o2I0d9g/wwa9ppHx+fSLy1kqEDvDUQZf+pDmCAJoosxAECQAAIAAGtCRQXq6/5HUwvKyvX2scUDZ2cnJCEm5dRF5d/vuL549rz8kQ5342f0srcb+p7fyvbob3/cQJHfZ9yuTzi6ZNne7+NmkDYtwzG+vHY0ROHJB07dZjKYDBitdVgaWnpm97d+9vJ5XJtXUzWbu36VehXw79caW9vr3GL0qdNkKEDY4H6VAcwQBtrJSAvEAACQOD/MQGhMPNx9NKVnW/fSjRrCn379UZWrol+wuH4dtG2kSxhVuzOnb8PP3XijLYuJmkXOWoE8uOP08/5cHwiGhicvDBMkdK5fTezfwv79OXDCiq1eRCDwcjRdiGys3NezZu9IOjRw8faupis3YXLZ6V+ftxIBoNxA2+RcrncC8OwlM7tuzc6HcAAjVcNYA8EgAAQAAJ6E8jKyt5+7uz5KVu37DDrbRxzf5qlHP71sL0+Pt6ztYUilUqnX427tmbu7Plm/UPCrds3ycIHhS1lsVi/N9R7UVGRbFDYUEZJcYm2aEzOztnFGYlLuCh3dXXFtVZCofDQoZg/x8TsP2Rhck3hLEh9Aoetra0HlUotw+n63ryx6gAGaF3UAD5AAAgAASCgFwGZTDb01cvkmJHfjCHsK369CtLR+eTpo9I27YImMpnMi9qGkMvlHYuLS2707TnArH9IePveddTFxbk/g8F41lDvmcLMxHVrNvaKj9P420pt0RncbuCgMGTxzwvucbicXniSYxg27uaN29umTfkB1+CNJ4chbFu1aomcOX+i1N3d3VnXfI1VBzBA66oI8AMCQAAIAAGdCZSXl7vU1tbmtQ3sZNbnIf+d+vSthYVFS0dHR1zXKpaVlSl7Bve1RlFMZ4bGdKTTaci9h7ernJycPvsNQn5+/rKE+Otzl/28gmHMWvXJvXJ1NBYePmAruxV7JZ44CoUisLSkNKlHcF8qHj9Ts/3ww8zrXC4nVNfaGoUO1kRj4WH/qQMYoHVVBPgBASAABICAXgREItHr8d9Ocif6Wmu9isLhrL7G+tCf+wvYbLYHDrf3puo94Kui13S+cf0WXleTsA8Z0A+JXrn0H/d+S6XSHoUFhZcG9Btktm9hr928Inf3cP+CxWLdxwu+tKT0Td/eoXZSiRSvq8nYr9uwGg0bOGC9m5vbRl2LUuugoKDwUmgj0wEM0LoqAvyAABAAAkBALwIZGZknD8UcHnbwwGGzfAs94btxb8dPHHeey/UdiRdEXl7eqmtXr89cvnSVWW7jWLVmORoaPuDXli1bLv+n3svKyqp6Bve1Msc37R/eslc7OTnpdBRfZmZm0qrotcHXr93EKw+Tsb9+O17OZnsOotFoD/UpqjHqAAZofRQBvkAACAABIKAzARRFRz5+9OS3saMn2uscxIiOR47FSLp07fwDnU7HfSc5iqJdC18XXu3XJ8wsB+hbdxJQNw+3cDqd/uifliAjI/PB+jUbul2Nv2bEldItdfjAUGTx0kVJXK5vd10iiESvV1yNi58dvWy1Wa4xlUZFkh4nVjs6Our0APExs8aoAxigdfmrAB8gAASAABDQm8CbN2+clUplfmv/9pZ6BzNCgBTBi3c2NjaezZs31+mYieLiYmxQ6JfUYjM7pcJFfTLFtUsKFxcXjVc7v379esHdO/cWzZuz0Oy2cWzdvknaN6TPehcXly26yAvDsO4iUf5fA/oONLve1f32Dw1Bolf8/NiX49tVl/4/9mmMOoABWl9VgD8QAAJAAAjoTCA7Ozt93uwF3EcPn+gcwxiOXYM7I79s35Th7e3tp2v+jIyMK3/s2hN28vgZszrqbGTUiNppM6YmcLncwZp6VygUAVKp9EmXDj3sNNma2uePn9+vYLFYnalUapqutZWWllb27RVqY477oNdvWC0LCe2/1dPTfY2u/df7NUYdwACtryrAHwgAASAABHQmkJmZueVawo3Jq1es0/g2U+ckJDguW7EECw3rv8/X1/cnXcOjKBr19MmzHWNGjXfQNYYx/I6eOCTu1LnjLDqdflyb/CKRKH/ShO89UpJTtTE3CZvWQYHI/oO7X7PZbE99ChKmC29v2bKtz6ULl/UJYxTfu0m3MCcnx34MBuM5EQU0Nh3AAE2EKiAGEAACQAAI6EQARdFOpaWlN3p1CzGrAVo9XLRo4dSfTqc/1alxBEFkMhmDQqHI2vA6ItXV1bqGMaiflZUV8or/DFGpVEwmk6nVPdWZGZm7Ll+JG7Nx3RazWeMFi+cpBg0OP+bn5zdNH8DFxcXTHyY9Wj196kyzOu/cy6sVcjr2uMTdw52whzvz1MFPikGDwxrUAQzQ+vxlgC8QAAJAAAjoTUAkEhVPGDvZOY0v0DuWIQIE8PyRg0f2lbDZbBd986WnZzz4ZfP2bn9dNI83lF8MHYzMmz8nyc+Pq/UP6zAMCy4uKo7v3aO/2fyYLvH+DdTF1WWgvqdPyGQydnV1dUbbwE5W+mrFkP6Tp35XPWr0yIsBAX6RROVtbDqAAZooZUAcIAAEgAAQ0ImAUCj8I+5ywqgN6zaZxYC1aMkCdNCQsBMcDkevt5NqWCUlZRNfvXq1aZyZnERy+GiMpE3bNgucnZ1i8Cy2SCQqnDThe1dz2MbxYftGEZvNdsPT4+dss7Oy+Qvn/xxw/94DIsIZJMbFy7FSP3/uWDqdfoXIhI1JBzBAE6kMiAUEgAAQAAK4CYjF4s6oHL3evWsfs/iK/8GjO5iDo4Ne2zfqIZWVlTW3sLCQ9ejap6lMptWOCNx8iXJgMhnI/Ud3ampra5lOTk5v8MQVCNJ33E28NzZ66SqTv5Vw1dpoaZ++vY5wOJw5eHr8nG1ubu7yB/eSZv40d5FZHNeoPmXl6vXLFS2cWzQnov+PY7zXwe17Y6OXm78OYIAmWh0QDwgAASAABHATyM3JzZ4za77Xo4ePcfsa0qFrcBdk247NOa28WnkTlTc9Pf3SkcPH+sfsO/TZa7GJyqVPnImTxyvHjht9w8/P70u8cdSnMGAY9qxDm64m3aO6r+d/P1LS6LSO+py+8TEfFEV9KisrU9q17qz3ecp4uetiP2nqROW3Y6Liuf7cCF38/8nnvQ5Q7FmHtuavAxigiVYHxAMCQAAIAAHcBDIzM5f//fLVzB+nzzHpt3Q7f98maduuza++vr6rcDf5GQe5XN6/oKDwdP8+4SZ9XvCNO1dl7u5u3zAYjBu69C4UZj7fsHZT+7grV3VxN4jPoMHhyKKfF7zgcHw7EJlQKMz8e/WKtW3M4VbChJtXpGy25ygGg0HK7TeNRQcwQBP5FwKxgAAQAAJAQCcCCoXCqaamprRzh+6IAlPoFINsJ/XNbE+eP0CaNm3agkqllhGZLycnN2/e7Pnsh0mm+QY+uFsX5Jftm0VeXq1a6tq3+ti+5FcpO0YMH0XYyQ661vI5v9OxJyRcP985LVq0+JPI2Pn5+TP4qWkrJoydbLK9q/sNbM1DYg7vLfX09HQmsv+PYzUWHcAATZZCIC4QAAJAAAjgIiAQpF88c/Js39937aHicjSQ8fQZUxUjRn5929/fbyjRKbOyshakC4TzJ02YapID1v6De8R+/pzNPj4+m/TpveB1gXjct9/Z/+8wqU8YUnx5gQHI4T8PEHp0W32hJSUldhYWFtKQPuHNykoJffYilMW6jaulwd2CD/v7c+cSGviTYI1BBzBAk6kQiA0EgAAQAAJaE1AfcyUWSxK6de5lkgP0wyd3FfYO9mH6Hm3WEBCVSmVVUlIq+fqrSLvs7BytmRnC0MvbC4m9cKrC2bmFPYVC0evAaoFAsD4lOXXyzBlzTW6rzq+7torbtA3ax+Vyl5DBNS1NcOLyX3EDt27ebpKnzVhaWiIvU57UNG3alMNgMHLJYFAfszHoAAZoMhUCsYEAEAACQAAXgfT0jKc7d/zWLvbMBZO63jpixLDaH2fNeOnnx+2EqyEcxmlp6dtfvngxet7shSb1FvqX7RvF7dq3PxYQ4DcbRzsNmqovj3n39l3JkEHDrPJF+fqGI8zfk+2JXI47X23ZzNJZ2wti8CaXy+XtFQrF3U7tupnkteYTJ42v+HZcVJK/v38o3t7w2r/Xwbt3JUMGmq8OYIDGu+pgDwSAABAAAqQRQFF0YEFB4fGQ3mEmddzZrcQEuZu7WxSdTo8nq3kMw+yrq6sLhwz8ykqUZxrDJbulJ3I5/kK1lZWVG41GkxDRu0Ag2Pni2cuR8+aYzoPClq0bJW3bB50KDAycQUSPn4uRIch4uGvX7o6nT55tSmYeXWLfe3gLc3Z2/pJKpSbq4o/Xx9x1AAM03hUHeyAABIAAECCVgFAofLFz++8BZ07HmsTtbSMiI6p/nDU9jcPhtCe1cQRB+Hz+Dn5KWtTMH+aaxFvoHb9tFQe2DjjO4/FmEdW7XC5nqh8Uvh420iZTmEVUWJ3j+HJ8kLPnTyrVDwkMBkOmcyAtHFEUDSssLD7Zr9cAk3pAHBYxtHb23JnJXC75Gq/HZH0eey4AAAtVSURBVO46gAFaC8GDCRAAAkAACBiOgPpYN4lEGtu9S2+TuFjlweNEzN6eFaHr8W14yBUVFdnW1amKJk+YSn/58hUeV8Jt27Zrgxw4uAelNKG4urq6VhKZgJ/KX5+bK5pkCj+aPHBob7mvj/dejh9nKZE9fi6WUCh8uf2XnbxzsRcsDZFPmxwfvmEZTafT47SxJ8rGnHUAAzRRKoA4QAAIAAEgQBgBPl9w8+L5ix1/3b7LqEP0zNkzsKHDhj7j8fxDCGtOQ6Ds7Ow5JcVlSyK++saob6FjL5wWO7s4rfP29t5GRu95eaKCJQuXut26eYeM8FrF7BfSB1m3cU1hy5Zsd60cCDBCUTS8tLTsZK9u/Uzix4SjoiKrpk2fwuf4cToS0B7uEOaqAxigcS81OAABIAAEgADZBDAM86urqxMM6DcIeZ3/mux0Dcb38PRArt+KQ5o0aeJPo9HSDVlERkZG8r49Mb5Hjxw3yu11Y8ZGVU2eOjGTy+UGkdW3TCYbXlZWFtO7e3+jDZKJD26gNDvaFBd3l9Nk9dlQXAFfcP/4sZPt9u2NsTVk3oZyPXn+4A2VRv2CyWQa5UlGIpFEiMXiA+amAxigja1cyA8EgAAQAAINEkjjp20qKCgcP3b0REdjIDpyLKbc3d3tUAAvYIGh86Mo2rnmXc2D0JBBTQsLiwya3s3NFUm4GVdjadm0O51Of0Jm8tTU1Lj7dx90WbF8DYvMPA3FXrl6mbhn7x6PAwIChhg6d0VFRbvKysrHvbv3t5RKpYZO/+98S5YukIUM6JfE4/EMzuDjps1RBzBAG022kBgIAAEgAAQ0EcjMzOTv23Og1ZFDx2w02RL5+djxo5WTp36X6+vryyMyLp5YfH7aJnG5eHzk16MN+gBx8uyxckdHh0M8Azw4qE8ewVBMOP+nxazbBtzK0TekD7J5y3opjU7jEHW6CJ61Vdumpabt5acJvvpx+myDrm99nQE8f+TkmaPVFhYWvvb29sb5mudDMe91gGHC+fPMRwcwQONVPNgDASAABICAwQjIZLJ2KpXq+YjhoyiGur1OfSPd2fMn6xAE6chkMl8arNkGEgkEgocJcde5G9ZvZhqijkWL58vCBoVl+Ptzgw2RT50Dw7AhGKY4PWTgUJuS4lLS0zq7OCNX4i8oKU0oUa6urhdIT/iZBCqVqolIJMpfuXyNa3xcgsHnsUtXzokZTPpmDoej1+2SRPH7tw7Ch9qUlBhGB5fjLyib6KgDgy8YUaAhDhAAAkAACPz/IJCVlTWz5m3NyvDQLxhVVVWkNm1tbY1cvfaXvGmzptE+Pj6/kppMi+BlZWXO1crqVxvWb6bFnj1P6n7oiK+HVS1aPB+zsrFq4+TkVKJFeYSZvHqVsqWqSjl+6OAI0m8ovBR3Tty8OTUmIMBvIWEN6BhILpeHVlZWXggLGWxTXi7WMQp+twWL5snDBobxeTz/Hvi9yfN4rwOlcvzQIaavAxigydMBRAYCQAAIAAGCCCS/Sj4kFksGRUWOJfXr7uOnjpQ7ONjHBbUJGk9Q6XqHkUgkwSqVKvGHabMs79y+q3e8hgL06dsL+e2PHe8oFEpve3v7h6Qk0RA0NSU1Nj//dY+J46Y4kZX/wKE95Z5s9v3WrXnDycqBN25KCn+HRCweNXLEGFK1XV/XgNCQuvWb1mLW1laBDg4OhXjrJds+NTU1Nl9k+jqAAZpsJUB8IAAEgAAQIIQAP5Ufn5WV3X7qpBmkDFh79u8q8/HxfsEL5A0kpGACgxQWlnxpZ2d9ceqkGUjiHWKH6N59eiF79u9CKiqqhrq5OV8isGzcoVJT+Tczhdmtp02ZQfgwuXvfrjJfjncKj8frj7swkh3S+GmJSUmPeEsXR5P6Bp7D9UViL5x626xZs6F0Ov0qyW3pHN4cdAADtM7LC45AAAgAASBgaAL8VP7N3FxR60kTphI6YO0/uKe8ZSt2SmAgz2DnPeNlJ5VKh6hUqnPLlqxAiLqEY3jEV+9Wr1uBUCiU4SwW6zLemsiw56fyr5aUlrWfPGGqY2WlUu8UtrY2iHp9HZ0cX7ZuHRimd0ASAqgv0KmsrPz7zKlYhx3bfiNlv3sL5xbI2XMnsOq31esCAwM3ktAGoSH/pYPydpMmTHFSEqSDfQf3lLdwcnwZSIAOYIAmdLkhGBAAAkAACJBNgJ/CP1epVPacNvVHh4LXBXql8/BwR3bt/lViZ2t7l2dCX+t/rin1do43b96cj7ty1WLl8jV6XbQSvWqpeNDg8FomkzmMRqMZZdvG5/pMTk4+aG1tPWze7AX0p0+e67zGnTp3RH7ZvhF9V/0ultea953OgQzgWFlZ6VFWVpb05+FjtF07dxN6gZCLizNy7NQRWV2dal9gYIDR935ri5M4HXRAftm2CX33ljgdwACt7SqCHRAAAkAACJgMgeTk5A0uLVzmrF61tvb0qVidjrj7JjJCuWzFzxbFxcXbgoKCFplMcxoKQVGUVVBQeMrCokmnLRu30y//dQVX6V98OQSZN38WWltX99Td3S2STqcb7yDif6g8Ly/vO2tr6x2jR40X52bnsisrtb9N3MbGBvH29co+evyQM4Zhczkczl5ckIxkLJPJWspk8ltX4xOoq6LX6vWAVN9C66BAZPe+XYqKijd/BAUFmc3wXF//xzrIy8llV1ToqAMZNo/jz9lD1NLCAE0USYgDBIAAEAACBiWAYVgPuVx+rLCwqPmWTdtYD+4laZW/R8/uyE8L5khd3VzeMBiM0TQa7b5WjiZmJBAIWtra2t7PF722Ohhz2CHh6nWktqa2wSotLCyQsIEDkIkTx0vcPd2qlEplD39//zwTa+m/ylG/lS0sLD7AYNB6nzh+qursqXM0oTDzs2VzOL7INyO/lo2IjLBDUcU9d3fXCba2tkY94xgvY7lcziwqKo4vLCjymjt7vmN5WTneEP+2jxw14u2KVcuaSaXoDG/vlr/rHMjIjlKp1FMmke2j0ql9T544rdSkA1+Oz3sdfBP5tZ0CVdxjObAmslisfCLbgAGaSJoQCwgAASAABAxOID8/f1ptTe3CispKetzleIsH95OomcIsRCaTv6+FyWQi6v9Qu/fsplBvWbC1tUWbNrXY4OnpudvgxZKQUCqVjikvL5/l5OTUPj09Q5bGT7d6lPSoqTpV125dawIC/Kr9/LnMsjLxC0dH++0sFusYCWWQGlIsFvtJJJK5dnZ2w6qqqq0EaYJ3KIpRiwqLLN3c3aqaN7er4gXyLKytrKpRDL3k4eGx2dDXrxMNgM/n/+rg4DDly8HDa0R5+XZ44vv7+yFr1q+QOTs7SxwcHcbQ6fTHePxN1RbDMG5hYfE8KtVumFJZZSXgq3WAUouLSyxd3VyrqNTmysBAnoWVtdVbDMUuuXu4k6YDGKBNVSVQFxAAAkAACOAiIJPJepeXl4+ytLDsYWNnw+anpmUgiArhBfK4FRUVotra2vuOjo4nmExmIq7AZmKsUqloKIp2oVAoHJVK9f61JYVCcVSpVJl1dXWPWSwWaiat/GOZCoWCV1dXF6S+6IZCoRSrVCoXBEGe1dTUJNvb2/MbQ4/1PUgkklCpVLq+rk7ldfDAYdvLl640E4sln22xa3AX5NtxUeU9enanKhQVf/r4eE1pTDw+7kUqlQYiCNLGwsJCrYNClUrlhiDI09ra2mQWi5VKdt8wQJNNGOIDASAABIAAEAACQEAPAnK5vF9JSck8JpMVUlJcohQI0lUUCoWWmpJKcfdwr/D29noXwPO3VSqrC9++fXvUz4/zC4VCUeiRElw1EIABGiQCBIAAEAACQAAIAAEzIYBhWHBdXV3Ah7eubZo0aaLe+J757t27F/b29ma139tMkDdY5v8A9CC7FGZuFWMAAAAASUVORK5CYII=;" vertex="1" parent="1">
          <mxGeometry x="20" y="80" width="830" height="732.64" as="geometry" />
        </mxCell>
      </root>
    </mxGraphModel>
  </diagram>
</mxfile>
